<ttFont>
    <TTGlyph name=".notdef" xMin="100" yMin="0" xMax="658" yMax="531">
      <contour>
        <pt x="100" y="0" on="1"/>
        <pt x="100" y="531" on="1"/>
        <pt x="658" y="531" on="1"/>
        <pt x="658" y="0" on="1"/>
      </contour>
      <contour>
        <pt x="114" y="22" on="1"/>
        <pt x="370" y="266" on="1"/>
        <pt x="114" y="507" on="1"/>
      </contour>
      <contour>
        <pt x="124" y="518" on="1"/>
        <pt x="381" y="276" on="1"/>
        <pt x="635" y="518" on="1"/>
      </contour>
      <contour>
        <pt x="127" y="13" on="1"/>
        <pt x="634" y="13" on="1"/>
        <pt x="381" y="256" on="1"/>
      </contour>
      <contour>
        <pt x="392" y="266" on="1"/>
        <pt x="644" y="25" on="1"/>
        <pt x="644" y="506" on="1"/>
      </contour>
    </TTGlyph>
    <TTGlyph name="A" xMin="34" yMin="0" xMax="678" yMax="732">
      <contour>
        <pt x="34" y="0" on="1"/>
        <pt x="397" y="732" on="1"/>
        <pt x="556" y="732" on="1"/>
        <pt x="678" y="0" on="1"/>
        <pt x="535" y="0" on="1"/>
        <pt x="506" y="162" on="1"/>
        <pt x="269" y="162" on="1"/>
        <pt x="189" y="0" on="1"/>
      </contour>
      <contour>
        <pt x="325" y="286" on="1"/>
        <pt x="492" y="286" on="1"/>
        <pt x="451" y="552" on="1"/>
      </contour>
    </TTGlyph>
    <TTGlyph name="AE" xMin="22" yMin="-5" xMax="1033" yMax="733">
      <contour>
        <pt x="735" y="600" on="1"/>
        <pt x="699" y="600" on="0"/>
        <pt x="688" y="582" on="1"/>
        <pt x="680" y="568" on="0"/>
        <pt x="676" y="545" on="1"/>
        <pt x="657" y="428" on="1"/>
        <pt x="940" y="417" on="1"/>
        <pt x="923" y="302" on="1"/>
        <pt x="635" y="293" on="1"/>
        <pt x="617" y="180" on="1"/>
        <pt x="612" y="142" on="0"/>
        <pt x="631" y="134" on="1"/>
        <pt x="646" y="128" on="0"/>
        <pt x="672" y="128" on="1"/>
        <pt x="940" y="128" on="1"/>
        <pt x="922" y="13" on="1"/>
        <pt x="870" y="6" on="0"/>
        <pt x="682" y="-1" on="1"/>
        <pt x="619" y="-4" on="1"/>
        <pt x="613" y="-4" on="0"/>
        <pt x="585" y="-4" on="0"/>
        <pt x="561" y="0" on="1"/>
        <pt x="496" y="13" on="0"/>
        <pt x="475" y="59" on="1"/>
        <pt x="466" y="77" on="0"/>
        <pt x="466" y="111" on="0"/>
        <pt x="468" y="123" on="1"/>
        <pt x="479" y="195" on="1"/>
        <pt x="308" y="195" on="1"/>
        <pt x="179" y="0" on="1"/>
        <pt x="23" y="0" on="1"/>
        <pt x="397" y="575" on="1"/>
        <pt x="456" y="665" on="0"/>
        <pt x="523" y="699" on="1"/>
        <pt x="590" y="732" on="0"/>
        <pt x="655" y="732" on="1"/>
        <pt x="688" y="732" on="0"/>
        <pt x="970" y="725" on="0"/>
        <pt x="1033" y="716" on="1"/>
        <pt x="1015" y="600" on="1"/>
      </contour>
      <contour>
        <pt x="386" y="319" on="1"/>
        <pt x="499" y="319" on="1"/>
        <pt x="538" y="553" on="1"/>
      </contour>
    </TTGlyph>
    <TTGlyph name="Aacute" xMin="34" yMin="0" xMax="678" yMax="936">
      <contour>
        <pt x="441" y="797" on="1"/>
        <pt x="554" y="936" on="1"/>
        <pt x="676" y="936" on="1"/>
        <pt x="532" y="797" on="1"/>
      </contour>
      <contour>
        <pt x="34" y="0" on="1"/>
        <pt x="397" y="732" on="1"/>
        <pt x="556" y="732" on="1"/>
        <pt x="678" y="0" on="1"/>
        <pt x="535" y="0" on="1"/>
        <pt x="506" y="162" on="1"/>
        <pt x="269" y="162" on="1"/>
        <pt x="189" y="0" on="1"/>
      </contour>
      <contour>
        <pt x="325" y="286" on="1"/>
        <pt x="492" y="286" on="1"/>
        <pt x="451" y="552" on="1"/>
      </contour>
    </TTGlyph>
    <TTGlyph name="Abreve" xMin="34" yMin="0" xMax="678" yMax="910">
      <contour>
        <pt x="448" y="910" on="1"/>
        <pt x="448" y="905" on="0"/>
        <pt x="448" y="880" on="0"/>
        <pt x="471" y="853" on="0"/>
        <pt x="496" y="853" on="1"/>
        <pt x="497" y="853" on="0"/>
        <pt x="498" y="853" on="1"/>
        <pt x="555" y="853" on="0"/>
        <pt x="562" y="910" on="1"/>
        <pt x="619" y="910" on="1"/>
        <pt x="613" y="855" on="0"/>
        <pt x="549" y="797" on="0"/>
        <pt x="448" y="797" on="0"/>
        <pt x="390" y="855" on="0"/>
        <pt x="390" y="897" on="1"/>
        <pt x="390" y="903" on="0"/>
        <pt x="391" y="910" on="1"/>
      </contour>
      <contour>
        <pt x="34" y="0" on="1"/>
        <pt x="397" y="732" on="1"/>
        <pt x="556" y="732" on="1"/>
        <pt x="678" y="0" on="1"/>
        <pt x="535" y="0" on="1"/>
        <pt x="506" y="162" on="1"/>
        <pt x="269" y="162" on="1"/>
        <pt x="189" y="0" on="1"/>
      </contour>
      <contour>
        <pt x="325" y="286" on="1"/>
        <pt x="492" y="286" on="1"/>
        <pt x="451" y="552" on="1"/>
      </contour>
    </TTGlyph>
    <TTGlyph name="Acircumflex" xMin="34" yMin="0" xMax="678" yMax="933">
      <contour>
        <pt x="333" y="797" on="1"/>
        <pt x="462" y="932" on="1"/>
        <pt x="566" y="932" on="1"/>
        <pt x="641" y="797" on="1"/>
        <pt x="551" y="797" on="1"/>
        <pt x="508" y="862" on="1"/>
        <pt x="436" y="797" on="1"/>
      </contour>
      <contour>
        <pt x="34" y="0" on="1"/>
        <pt x="397" y="732" on="1"/>
        <pt x="556" y="732" on="1"/>
        <pt x="678" y="0" on="1"/>
        <pt x="535" y="0" on="1"/>
        <pt x="506" y="162" on="1"/>
        <pt x="269" y="162" on="1"/>
        <pt x="189" y="0" on="1"/>
      </contour>
      <contour>
        <pt x="325" y="286" on="1"/>
        <pt x="492" y="286" on="1"/>
        <pt x="451" y="552" on="1"/>
      </contour>
    </TTGlyph>
    <TTGlyph name="Adieresis" xMin="34" yMin="0" xMax="684" yMax="915">
      <contour>
        <pt x="355" y="914" on="0"/>
        <pt x="403" y="914" on="0"/>
        <pt x="429" y="884" on="0"/>
        <pt x="429" y="873" on="1"/>
        <pt x="429" y="836" on="0"/>
        <pt x="384" y="797" on="0"/>
        <pt x="344" y="797" on="0"/>
        <pt x="332" y="805" on="1"/>
        <pt x="305" y="822" on="0"/>
        <pt x="314" y="880" on="0"/>
      </contour>
      <contour>
        <pt x="610" y="914" on="0"/>
        <pt x="658" y="914" on="0"/>
        <pt x="684" y="884" on="0"/>
        <pt x="684" y="873" on="1"/>
        <pt x="684" y="836" on="0"/>
        <pt x="639" y="797" on="0"/>
        <pt x="599" y="797" on="0"/>
        <pt x="587" y="805" on="1"/>
        <pt x="560" y="822" on="0"/>
        <pt x="569" y="880" on="0"/>
      </contour>
      <contour>
        <pt x="34" y="0" on="1"/>
        <pt x="397" y="732" on="1"/>
        <pt x="556" y="732" on="1"/>
        <pt x="678" y="0" on="1"/>
        <pt x="535" y="0" on="1"/>
        <pt x="506" y="162" on="1"/>
        <pt x="269" y="162" on="1"/>
        <pt x="189" y="0" on="1"/>
      </contour>
      <contour>
        <pt x="325" y="286" on="1"/>
        <pt x="492" y="286" on="1"/>
        <pt x="451" y="552" on="1"/>
      </contour>
    </TTGlyph>
    <TTGlyph name="Agrave" xMin="34" yMin="0" xMax="678" yMax="936">
      <contour>
        <pt x="336" y="936" on="1"/>
        <pt x="455" y="936" on="1"/>
        <pt x="532" y="797" on="1"/>
        <pt x="441" y="797" on="1"/>
      </contour>
      <contour>
        <pt x="34" y="0" on="1"/>
        <pt x="397" y="732" on="1"/>
        <pt x="556" y="732" on="1"/>
        <pt x="678" y="0" on="1"/>
        <pt x="535" y="0" on="1"/>
        <pt x="506" y="162" on="1"/>
        <pt x="269" y="162" on="1"/>
        <pt x="189" y="0" on="1"/>
      </contour>
      <contour>
        <pt x="325" y="286" on="1"/>
        <pt x="492" y="286" on="1"/>
        <pt x="451" y="552" on="1"/>
      </contour>
    </TTGlyph>
    <TTGlyph name="Amacron" xMin="34" yMin="0" xMax="678" yMax="877">
      <contour>
        <pt x="341" y="797" on="1"/>
        <pt x="354" y="876" on="1"/>
        <pt x="646" y="876" on="1"/>
        <pt x="633" y="797" on="1"/>
      </contour>
      <contour>
        <pt x="34" y="0" on="1"/>
        <pt x="397" y="732" on="1"/>
        <pt x="556" y="732" on="1"/>
        <pt x="678" y="0" on="1"/>
        <pt x="535" y="0" on="1"/>
        <pt x="506" y="162" on="1"/>
        <pt x="269" y="162" on="1"/>
        <pt x="189" y="0" on="1"/>
      </contour>
      <contour>
        <pt x="325" y="286" on="1"/>
        <pt x="492" y="286" on="1"/>
        <pt x="451" y="552" on="1"/>
      </contour>
    </TTGlyph>
    <TTGlyph name="Aogonek" xMin="79" yMin="-190" xMax="724" yMax="732">
      <contour>
        <pt x="625" y="-75" on="1"/>
        <pt x="625" y="-114" on="0"/>
        <pt x="675" y="-109" on="1"/>
        <pt x="663" y="-186" on="1"/>
        <pt x="649" y="-189" on="0"/>
        <pt x="619" y="-189" on="0"/>
        <pt x="574" y="-174" on="0"/>
        <pt x="543" y="-127" on="0"/>
        <pt x="543" y="-75" on="0"/>
        <pt x="585" y="-20" on="0"/>
        <pt x="629" y="1" on="1"/>
        <pt x="684" y="1" on="1"/>
        <pt x="625" y="-40" on="0"/>
      </contour>
      <contour>
        <pt x="80" y="0" on="1"/>
        <pt x="443" y="732" on="1"/>
        <pt x="602" y="732" on="1"/>
        <pt x="724" y="0" on="1"/>
        <pt x="581" y="0" on="1"/>
        <pt x="552" y="162" on="1"/>
        <pt x="315" y="162" on="1"/>
        <pt x="235" y="0" on="1"/>
      </contour>
      <contour>
        <pt x="371" y="286" on="1"/>
        <pt x="538" y="286" on="1"/>
        <pt x="497" y="552" on="1"/>
      </contour>
    </TTGlyph>
    <TTGlyph name="Aring" xMin="34" yMin="0" xMax="678" yMax="933">
      <contour>
        <pt x="470" y="932" on="0"/>
        <pt x="421" y="906" on="0"/>
        <pt x="387" y="855" on="0"/>
        <pt x="387" y="821" on="1"/>
        <pt x="387" y="785" on="0"/>
        <pt x="440" y="730" on="0"/>
        <pt x="524" y="730" on="0"/>
        <pt x="591" y="792" on="0"/>
        <pt x="591" y="841" on="1"/>
        <pt x="591" y="877" on="0"/>
        <pt x="539" y="932" on="0"/>
      </contour>
      <contour>
        <pt x="475" y="874" on="0"/>
        <pt x="511" y="874" on="0"/>
        <pt x="532" y="851" on="0"/>
        <pt x="532" y="815" on="0"/>
        <pt x="517" y="801" on="1"/>
        <pt x="504" y="789" on="0"/>
        <pt x="467" y="789" on="0"/>
        <pt x="446" y="812" on="0"/>
        <pt x="446" y="847" on="0"/>
      </contour>
      <contour>
        <pt x="34" y="0" on="1"/>
        <pt x="397" y="732" on="1"/>
        <pt x="556" y="732" on="1"/>
        <pt x="678" y="0" on="1"/>
        <pt x="535" y="0" on="1"/>
        <pt x="506" y="162" on="1"/>
        <pt x="269" y="162" on="1"/>
        <pt x="189" y="0" on="1"/>
      </contour>
      <contour>
        <pt x="325" y="286" on="1"/>
        <pt x="492" y="286" on="1"/>
        <pt x="451" y="552" on="1"/>
      </contour>
    </TTGlyph>
    <TTGlyph name="Atilde" xMin="34" yMin="0" xMax="678" yMax="925">
      <contour>
        <pt x="556" y="887" on="1"/>
        <pt x="558" y="887" on="0"/>
        <pt x="581" y="887" on="0"/>
        <pt x="641" y="912" on="0"/>
        <pt x="656" y="925" on="1"/>
        <pt x="670" y="865" on="1"/>
        <pt x="647" y="844" on="0"/>
        <pt x="618" y="821" on="0"/>
        <pt x="568" y="797" on="0"/>
        <pt x="546" y="797" on="0"/>
        <pt x="535" y="798" on="1"/>
        <pt x="521" y="798" on="0"/>
        <pt x="455" y="832" on="0"/>
        <pt x="440" y="832" on="1"/>
        <pt x="404" y="832" on="0"/>
        <pt x="372" y="815" on="1"/>
        <pt x="362" y="810" on="0"/>
        <pt x="340" y="797" on="1"/>
        <pt x="324" y="852" on="1"/>
        <pt x="399" y="922" on="0"/>
        <pt x="456" y="922" on="1"/>
        <pt x="481" y="921" on="0"/>
        <pt x="540" y="887" on="0"/>
      </contour>
      <contour>
        <pt x="34" y="0" on="1"/>
        <pt x="397" y="732" on="1"/>
        <pt x="556" y="732" on="1"/>
        <pt x="678" y="0" on="1"/>
        <pt x="535" y="0" on="1"/>
        <pt x="506" y="162" on="1"/>
        <pt x="269" y="162" on="1"/>
        <pt x="189" y="0" on="1"/>
      </contour>
      <contour>
        <pt x="325" y="286" on="1"/>
        <pt x="492" y="286" on="1"/>
        <pt x="451" y="552" on="1"/>
      </contour>
    </TTGlyph>
    <TTGlyph name="B" xMin="60" yMin="0" xMax="654" yMax="732">
      <contour>
        <pt x="474" y="732" on="1"/>
        <pt x="528" y="732" on="0"/>
        <pt x="606" y="697" on="0"/>
        <pt x="624" y="668" on="1"/>
        <pt x="653" y="621" on="0"/>
        <pt x="653" y="564" on="1"/>
        <pt x="653" y="544" on="0"/>
        <pt x="644" y="485" on="0"/>
        <pt x="627" y="454" on="1"/>
        <pt x="591" y="391" on="0"/>
        <pt x="524" y="380" on="1"/>
        <pt x="566" y="373" on="0"/>
        <pt x="593" y="323" on="1"/>
        <pt x="612" y="286" on="0"/>
        <pt x="612" y="236" on="1"/>
        <pt x="612" y="218" on="0"/>
        <pt x="610" y="198" on="1"/>
        <pt x="594" y="85" on="0"/>
        <pt x="480" y="0" on="0"/>
        <pt x="360" y="0" on="1"/>
        <pt x="61" y="0" on="1"/>
        <pt x="177" y="732" on="1"/>
      </contour>
      <contour>
        <pt x="473" y="249" on="1"/>
        <pt x="473" y="324" on="0"/>
        <pt x="406" y="324" on="1"/>
        <pt x="252" y="324" on="1"/>
        <pt x="221" y="123" on="1"/>
        <pt x="374" y="123" on="1"/>
        <pt x="455" y="123" on="0"/>
        <pt x="470" y="221" on="1"/>
        <pt x="473" y="236" on="0"/>
      </contour>
      <contour>
        <pt x="420" y="442" on="1"/>
        <pt x="457" y="442" on="0"/>
        <pt x="503" y="485" on="0"/>
        <pt x="509" y="525" on="1"/>
        <pt x="511" y="539" on="0"/>
        <pt x="511" y="559" on="0"/>
        <pt x="507" y="583" on="0"/>
        <pt x="497" y="592" on="1"/>
        <pt x="479" y="608" on="0"/>
        <pt x="446" y="608" on="1"/>
        <pt x="298" y="608" on="1"/>
        <pt x="272" y="442" on="1"/>
      </contour>
    </TTGlyph>
    <TTGlyph name="C" xMin="88" yMin="-7" xMax="658" yMax="740">
      <contour>
        <pt x="407" y="740" on="1"/>
        <pt x="543" y="740" on="0"/>
        <pt x="657" y="704" on="1"/>
        <pt x="640" y="595" on="1"/>
        <pt x="515" y="611" on="0"/>
        <pt x="429" y="611" on="1"/>
        <pt x="425" y="611" on="0"/>
        <pt x="420" y="611" on="0"/>
        <pt x="402" y="611" on="0"/>
        <pt x="386" y="610" on="0"/>
        <pt x="357" y="606" on="0"/>
        <pt x="340" y="597" on="0"/>
        <pt x="315" y="581" on="0"/>
        <pt x="298" y="557" on="0"/>
        <pt x="277" y="519" on="0"/>
        <pt x="270" y="495" on="1"/>
        <pt x="251" y="438" on="0"/>
        <pt x="229" y="305" on="0"/>
        <pt x="229" y="214" on="0"/>
        <pt x="240" y="185" on="1"/>
        <pt x="262" y="126" on="0"/>
        <pt x="341" y="123" on="1"/>
        <pt x="352" y="123" on="0"/>
        <pt x="444" y="123" on="0"/>
        <pt x="568" y="132" on="1"/>
        <pt x="551" y="22" on="1"/>
        <pt x="498" y="4" on="0"/>
        <pt x="390" y="-6" on="0"/>
        <pt x="307" y="-6" on="0"/>
        <pt x="291" y="-6" on="1"/>
        <pt x="223" y="-5" on="0"/>
        <pt x="132" y="57" on="0"/>
        <pt x="113" y="111" on="1"/>
        <pt x="89" y="179" on="0"/>
        <pt x="89" y="323" on="0"/>
        <pt x="110" y="446" on="0"/>
        <pt x="134" y="540" on="0"/>
        <pt x="170" y="622" on="0"/>
        <pt x="216" y="679" on="0"/>
        <pt x="247" y="700" on="1"/>
        <pt x="308" y="740" on="0"/>
      </contour>
    </TTGlyph>
    <TTGlyph name="Cacute" xMin="88" yMin="-7" xMax="658" yMax="939">
      <contour>
        <pt x="407" y="800" on="1"/>
        <pt x="519" y="938" on="1"/>
        <pt x="642" y="938" on="1"/>
        <pt x="498" y="800" on="1"/>
      </contour>
      <contour>
        <pt x="657" y="704" on="1"/>
        <pt x="640" y="595" on="1"/>
        <pt x="515" y="611" on="0"/>
        <pt x="429" y="611" on="1"/>
        <pt x="425" y="611" on="0"/>
        <pt x="420" y="611" on="0"/>
        <pt x="402" y="611" on="0"/>
        <pt x="386" y="610" on="0"/>
        <pt x="357" y="606" on="0"/>
        <pt x="340" y="597" on="0"/>
        <pt x="315" y="581" on="0"/>
        <pt x="298" y="557" on="0"/>
        <pt x="277" y="519" on="0"/>
        <pt x="270" y="495" on="1"/>
        <pt x="251" y="438" on="0"/>
        <pt x="229" y="305" on="0"/>
        <pt x="229" y="214" on="0"/>
        <pt x="240" y="185" on="1"/>
        <pt x="262" y="126" on="0"/>
        <pt x="341" y="123" on="1"/>
        <pt x="352" y="123" on="0"/>
        <pt x="444" y="123" on="0"/>
        <pt x="568" y="132" on="1"/>
        <pt x="551" y="22" on="1"/>
        <pt x="498" y="4" on="0"/>
        <pt x="390" y="-6" on="0"/>
        <pt x="307" y="-6" on="0"/>
        <pt x="291" y="-6" on="1"/>
        <pt x="223" y="-5" on="0"/>
        <pt x="132" y="57" on="0"/>
        <pt x="113" y="111" on="1"/>
        <pt x="89" y="179" on="0"/>
        <pt x="89" y="323" on="0"/>
        <pt x="115" y="477" on="0"/>
        <pt x="157" y="603" on="0"/>
        <pt x="193" y="649" on="1"/>
        <pt x="261" y="740" on="0"/>
        <pt x="543" y="740" on="0"/>
      </contour>
    </TTGlyph>
    <TTGlyph name="Ccaron" xMin="88" yMin="-7" xMax="658" yMax="936">
      <contour>
        <pt x="327" y="936" on="1"/>
        <pt x="417" y="936" on="1"/>
        <pt x="462" y="870" on="1"/>
        <pt x="532" y="936" on="1"/>
        <pt x="635" y="936" on="1"/>
        <pt x="506" y="800" on="1"/>
        <pt x="405" y="800" on="1"/>
      </contour>
      <contour>
        <pt x="657" y="704" on="1"/>
        <pt x="640" y="595" on="1"/>
        <pt x="515" y="611" on="0"/>
        <pt x="429" y="611" on="1"/>
        <pt x="425" y="611" on="0"/>
        <pt x="420" y="611" on="0"/>
        <pt x="402" y="611" on="0"/>
        <pt x="386" y="610" on="0"/>
        <pt x="357" y="606" on="0"/>
        <pt x="340" y="597" on="0"/>
        <pt x="315" y="581" on="0"/>
        <pt x="298" y="557" on="0"/>
        <pt x="277" y="519" on="0"/>
        <pt x="270" y="495" on="1"/>
        <pt x="251" y="438" on="0"/>
        <pt x="229" y="305" on="0"/>
        <pt x="229" y="214" on="0"/>
        <pt x="240" y="185" on="1"/>
        <pt x="262" y="126" on="0"/>
        <pt x="341" y="123" on="1"/>
        <pt x="352" y="123" on="0"/>
        <pt x="444" y="123" on="0"/>
        <pt x="568" y="132" on="1"/>
        <pt x="551" y="22" on="1"/>
        <pt x="498" y="4" on="0"/>
        <pt x="390" y="-6" on="0"/>
        <pt x="307" y="-6" on="0"/>
        <pt x="291" y="-6" on="1"/>
        <pt x="223" y="-5" on="0"/>
        <pt x="132" y="57" on="0"/>
        <pt x="113" y="111" on="1"/>
        <pt x="89" y="179" on="0"/>
        <pt x="89" y="323" on="0"/>
        <pt x="115" y="477" on="0"/>
        <pt x="157" y="603" on="0"/>
        <pt x="193" y="649" on="1"/>
        <pt x="261" y="740" on="0"/>
        <pt x="543" y="740" on="0"/>
      </contour>
    </TTGlyph>
    <TTGlyph name="Ccedilla" xMin="88" yMin="-178" xMax="658" yMax="740">
      <contour>
        <pt x="407" y="740" on="1"/>
        <pt x="543" y="740" on="0"/>
        <pt x="657" y="704" on="1"/>
        <pt x="640" y="595" on="1"/>
        <pt x="515" y="611" on="0"/>
        <pt x="429" y="611" on="1"/>
        <pt x="425" y="611" on="0"/>
        <pt x="420" y="611" on="0"/>
        <pt x="402" y="611" on="0"/>
        <pt x="386" y="610" on="0"/>
        <pt x="357" y="606" on="0"/>
        <pt x="341" y="597" on="0"/>
        <pt x="315" y="581" on="0"/>
        <pt x="299" y="557" on="0"/>
        <pt x="278" y="519" on="0"/>
        <pt x="271" y="495" on="1"/>
        <pt x="252" y="438" on="0"/>
        <pt x="230" y="304" on="0"/>
        <pt x="230" y="214" on="0"/>
        <pt x="240" y="185" on="1"/>
        <pt x="262" y="126" on="0"/>
        <pt x="341" y="123" on="1"/>
        <pt x="352" y="123" on="0"/>
        <pt x="444" y="123" on="0"/>
        <pt x="568" y="132" on="1"/>
        <pt x="551" y="22" on="1"/>
        <pt x="498" y="4" on="0"/>
        <pt x="390" y="-6" on="0"/>
        <pt x="307" y="-6" on="0"/>
        <pt x="291" y="-6" on="1"/>
        <pt x="223" y="-5" on="0"/>
        <pt x="132" y="57" on="0"/>
        <pt x="113" y="111" on="1"/>
        <pt x="89" y="179" on="0"/>
        <pt x="89" y="323" on="0"/>
        <pt x="110" y="446" on="0"/>
        <pt x="134" y="540" on="0"/>
        <pt x="170" y="622" on="0"/>
        <pt x="216" y="679" on="0"/>
        <pt x="247" y="700" on="1"/>
        <pt x="308" y="740" on="0"/>
      </contour>
      <contour>
        <pt x="232" y="-178" on="1"/>
        <pt x="176" y="-178" on="1"/>
        <pt x="186" y="-118" on="1"/>
        <pt x="232" y="-103" on="1"/>
        <pt x="253" y="-96" on="0"/>
        <pt x="268" y="-68" on="0"/>
        <pt x="273" y="-36" on="1"/>
        <pt x="367" y="-36" on="1"/>
        <pt x="355" y="-113" on="0"/>
        <pt x="326" y="-145" on="1"/>
        <pt x="297" y="-178" on="0"/>
      </contour>
    </TTGlyph>
    <TTGlyph name="Ccircumflex" xMin="88" yMin="-7" xMax="658" yMax="936">
      <contour>
        <pt x="288" y="800" on="1"/>
        <pt x="418" y="936" on="1"/>
        <pt x="522" y="936" on="1"/>
        <pt x="597" y="800" on="1"/>
        <pt x="506" y="800" on="1"/>
        <pt x="464" y="865" on="1"/>
        <pt x="391" y="800" on="1"/>
      </contour>
      <contour>
        <pt x="657" y="704" on="1"/>
        <pt x="640" y="595" on="1"/>
        <pt x="515" y="611" on="0"/>
        <pt x="429" y="611" on="1"/>
        <pt x="425" y="611" on="0"/>
        <pt x="420" y="611" on="0"/>
        <pt x="402" y="611" on="0"/>
        <pt x="386" y="610" on="0"/>
        <pt x="357" y="606" on="0"/>
        <pt x="340" y="597" on="0"/>
        <pt x="315" y="581" on="0"/>
        <pt x="298" y="557" on="0"/>
        <pt x="277" y="519" on="0"/>
        <pt x="270" y="495" on="1"/>
        <pt x="251" y="438" on="0"/>
        <pt x="229" y="305" on="0"/>
        <pt x="229" y="214" on="0"/>
        <pt x="240" y="185" on="1"/>
        <pt x="262" y="126" on="0"/>
        <pt x="341" y="123" on="1"/>
        <pt x="352" y="123" on="0"/>
        <pt x="444" y="123" on="0"/>
        <pt x="568" y="132" on="1"/>
        <pt x="551" y="22" on="1"/>
        <pt x="498" y="4" on="0"/>
        <pt x="390" y="-6" on="0"/>
        <pt x="307" y="-6" on="0"/>
        <pt x="291" y="-6" on="1"/>
        <pt x="223" y="-5" on="0"/>
        <pt x="132" y="57" on="0"/>
        <pt x="113" y="111" on="1"/>
        <pt x="89" y="179" on="0"/>
        <pt x="89" y="323" on="0"/>
        <pt x="115" y="477" on="0"/>
        <pt x="157" y="603" on="0"/>
        <pt x="193" y="649" on="1"/>
        <pt x="261" y="740" on="0"/>
        <pt x="543" y="740" on="0"/>
      </contour>
    </TTGlyph>
    <TTGlyph name="Cdotaccent" xMin="88" yMin="-7" xMax="658" yMax="924">
      <contour>
        <pt x="423" y="924" on="1"/>
        <pt x="495" y="924" on="1"/>
        <pt x="518" y="924" on="0"/>
        <pt x="514" y="899" on="1"/>
        <pt x="502" y="823" on="1"/>
        <pt x="499" y="800" on="0"/>
        <pt x="476" y="800" on="1"/>
        <pt x="404" y="800" on="1"/>
        <pt x="393" y="800" on="0"/>
        <pt x="382" y="813" on="0"/>
        <pt x="383" y="823" on="1"/>
        <pt x="395" y="899" on="1"/>
        <pt x="399" y="924" on="0"/>
      </contour>
      <contour>
        <pt x="657" y="704" on="1"/>
        <pt x="640" y="595" on="1"/>
        <pt x="515" y="611" on="0"/>
        <pt x="429" y="611" on="1"/>
        <pt x="425" y="611" on="0"/>
        <pt x="420" y="611" on="0"/>
        <pt x="402" y="611" on="0"/>
        <pt x="386" y="610" on="0"/>
        <pt x="357" y="606" on="0"/>
        <pt x="340" y="597" on="0"/>
        <pt x="315" y="581" on="0"/>
        <pt x="298" y="557" on="0"/>
        <pt x="277" y="519" on="0"/>
        <pt x="270" y="495" on="1"/>
        <pt x="251" y="438" on="0"/>
        <pt x="229" y="305" on="0"/>
        <pt x="229" y="214" on="0"/>
        <pt x="240" y="185" on="1"/>
        <pt x="262" y="126" on="0"/>
        <pt x="341" y="123" on="1"/>
        <pt x="352" y="123" on="0"/>
        <pt x="444" y="123" on="0"/>
        <pt x="568" y="132" on="1"/>
        <pt x="551" y="22" on="1"/>
        <pt x="498" y="4" on="0"/>
        <pt x="390" y="-6" on="0"/>
        <pt x="307" y="-6" on="0"/>
        <pt x="291" y="-6" on="1"/>
        <pt x="223" y="-5" on="0"/>
        <pt x="132" y="57" on="0"/>
        <pt x="113" y="111" on="1"/>
        <pt x="89" y="179" on="0"/>
        <pt x="89" y="323" on="0"/>
        <pt x="115" y="477" on="0"/>
        <pt x="157" y="603" on="0"/>
        <pt x="193" y="649" on="1"/>
        <pt x="261" y="740" on="0"/>
        <pt x="543" y="740" on="0"/>
      </contour>
    </TTGlyph>
    <TTGlyph name="D" xMin="60" yMin="0" xMax="684" yMax="732">
      <contour>
        <pt x="473" y="732" on="1"/>
        <pt x="534" y="732" on="0"/>
        <pt x="621" y="685" on="0"/>
        <pt x="643" y="648" on="1"/>
        <pt x="683" y="581" on="0"/>
        <pt x="683" y="469" on="1"/>
        <pt x="683" y="415" on="0"/>
        <pt x="673" y="346" on="1"/>
        <pt x="643" y="160" on="0"/>
        <pt x="500" y="0" on="0"/>
        <pt x="367" y="0" on="1"/>
        <pt x="61" y="0" on="1"/>
        <pt x="177" y="732" on="1"/>
        <pt x="177" y="732" on="0"/>
      </contour>
      <contour>
        <pt x="533" y="364" on="1"/>
        <pt x="545" y="427" on="0"/>
        <pt x="545" y="460" on="1"/>
        <pt x="545" y="557" on="0"/>
        <pt x="509" y="587" on="1"/>
        <pt x="485" y="608" on="0"/>
        <pt x="438" y="608" on="1"/>
        <pt x="297" y="608" on="1"/>
        <pt x="220" y="125" on="1"/>
        <pt x="367" y="125" on="1"/>
        <pt x="495" y="125" on="0"/>
      </contour>
    </TTGlyph>
    <TTGlyph name="Dcaron" xMin="67" yMin="0" xMax="691" yMax="931">
      <contour>
        <pt x="313" y="930" on="1"/>
        <pt x="403" y="930" on="1"/>
        <pt x="448" y="865" on="1"/>
        <pt x="518" y="930" on="1"/>
        <pt x="622" y="930" on="1"/>
        <pt x="492" y="795" on="1"/>
        <pt x="391" y="795" on="1"/>
      </contour>
      <contour>
        <pt x="481" y="732" on="1"/>
        <pt x="541" y="732" on="0"/>
        <pt x="628" y="685" on="0"/>
        <pt x="650" y="648" on="1"/>
        <pt x="691" y="581" on="0"/>
        <pt x="691" y="469" on="1"/>
        <pt x="691" y="415" on="0"/>
        <pt x="680" y="346" on="1"/>
        <pt x="651" y="160" on="0"/>
        <pt x="507" y="0" on="0"/>
        <pt x="374" y="0" on="1"/>
        <pt x="68" y="0" on="1"/>
        <pt x="184" y="732" on="1"/>
        <pt x="184" y="732" on="0"/>
      </contour>
      <contour>
        <pt x="374" y="125" on="1"/>
        <pt x="503" y="125" on="0"/>
        <pt x="540" y="364" on="1"/>
        <pt x="552" y="427" on="0"/>
        <pt x="552" y="460" on="1"/>
        <pt x="552" y="557" on="0"/>
        <pt x="516" y="587" on="1"/>
        <pt x="492" y="608" on="0"/>
        <pt x="446" y="608" on="1"/>
        <pt x="304" y="608" on="1"/>
        <pt x="228" y="125" on="1"/>
      </contour>
    </TTGlyph>
    <TTGlyph name="Dcroat" xMin="66" yMin="0" xMax="701" yMax="732">
      <contour>
        <pt x="494" y="732" on="1"/>
        <pt x="596" y="732" on="0"/>
        <pt x="644" y="669" on="1"/>
        <pt x="692" y="607" on="0"/>
        <pt x="698" y="521" on="1"/>
        <pt x="700" y="494" on="0"/>
        <pt x="700" y="473" on="1"/>
        <pt x="700" y="410" on="0"/>
        <pt x="690" y="346" on="1"/>
        <pt x="660" y="166" on="0"/>
        <pt x="519" y="0" on="0"/>
        <pt x="389" y="0" on="1"/>
        <pt x="77" y="0" on="1"/>
        <pt x="131" y="340" on="1"/>
        <pt x="66" y="340" on="1"/>
        <pt x="77" y="406" on="1"/>
        <pt x="142" y="406" on="1"/>
        <pt x="193" y="732" on="1"/>
        <pt x="193" y="732" on="0"/>
      </contour>
      <contour>
        <pt x="386" y="125" on="1"/>
        <pt x="511" y="125" on="0"/>
        <pt x="549" y="364" on="1"/>
        <pt x="561" y="429" on="0"/>
        <pt x="561" y="462" on="1"/>
        <pt x="561" y="557" on="0"/>
        <pt x="529" y="587" on="1"/>
        <pt x="506" y="608" on="0"/>
        <pt x="463" y="608" on="1"/>
        <pt x="313" y="608" on="1"/>
        <pt x="282" y="406" on="1"/>
        <pt x="393" y="406" on="1"/>
        <pt x="383" y="340" on="1"/>
        <pt x="271" y="340" on="1"/>
        <pt x="237" y="125" on="1"/>
      </contour>
    </TTGlyph>
    <TTGlyph name="E" xMin="76" yMin="-4" xMax="640" yMax="733">
      <contour>
        <pt x="217" y="706" on="1"/>
        <pt x="243" y="721" on="0"/>
        <pt x="294" y="732" on="0"/>
        <pt x="328" y="732" on="0"/>
        <pt x="577" y="725" on="0"/>
        <pt x="640" y="716" on="1"/>
        <pt x="622" y="600" on="1"/>
        <pt x="343" y="600" on="1"/>
        <pt x="307" y="600" on="0"/>
        <pt x="295" y="582" on="1"/>
        <pt x="286" y="568" on="0"/>
        <pt x="283" y="544" on="1"/>
        <pt x="265" y="432" on="1"/>
        <pt x="548" y="422" on="1"/>
        <pt x="529" y="307" on="1"/>
        <pt x="244" y="297" on="1"/>
        <pt x="225" y="181" on="1"/>
        <pt x="220" y="149" on="0"/>
        <pt x="232" y="140" on="1"/>
        <pt x="236" y="137" on="0"/>
        <pt x="240" y="133" on="0"/>
        <pt x="251" y="131" on="0"/>
        <pt x="256" y="129" on="0"/>
        <pt x="262" y="129" on="1"/>
        <pt x="270" y="129" on="0"/>
        <pt x="279" y="129" on="1"/>
        <pt x="548" y="129" on="1"/>
        <pt x="529" y="14" on="1"/>
        <pt x="472" y="7" on="0"/>
        <pt x="220" y="-3" on="0"/>
        <pt x="191" y="-3" on="0"/>
        <pt x="167" y="3" on="1"/>
        <pt x="77" y="25" on="0"/>
        <pt x="77" y="117" on="1"/>
        <pt x="77" y="133" on="0"/>
        <pt x="79" y="150" on="1"/>
        <pt x="148" y="585" on="1"/>
        <pt x="162" y="674" on="0"/>
      </contour>
    </TTGlyph>
    <TTGlyph name="Eacute" xMin="76" yMin="-4" xMax="640" yMax="931">
      <contour>
        <pt x="382" y="792" on="1"/>
        <pt x="494" y="930" on="1"/>
        <pt x="617" y="930" on="1"/>
        <pt x="472" y="792" on="1"/>
      </contour>
      <contour>
        <pt x="217" y="706" on="1"/>
        <pt x="243" y="721" on="0"/>
        <pt x="294" y="732" on="0"/>
        <pt x="328" y="732" on="0"/>
        <pt x="577" y="725" on="0"/>
        <pt x="640" y="716" on="1"/>
        <pt x="622" y="600" on="1"/>
        <pt x="343" y="600" on="1"/>
        <pt x="295" y="600" on="0"/>
        <pt x="286" y="561" on="1"/>
        <pt x="284" y="554" on="0"/>
        <pt x="283" y="544" on="1"/>
        <pt x="265" y="432" on="1"/>
        <pt x="548" y="422" on="1"/>
        <pt x="529" y="307" on="1"/>
        <pt x="244" y="297" on="1"/>
        <pt x="225" y="181" on="1"/>
        <pt x="220" y="149" on="0"/>
        <pt x="232" y="140" on="1"/>
        <pt x="236" y="137" on="0"/>
        <pt x="240" y="133" on="0"/>
        <pt x="251" y="131" on="0"/>
        <pt x="256" y="129" on="0"/>
        <pt x="262" y="129" on="1"/>
        <pt x="270" y="129" on="0"/>
        <pt x="279" y="129" on="1"/>
        <pt x="548" y="129" on="1"/>
        <pt x="529" y="14" on="1"/>
        <pt x="474" y="7" on="0"/>
        <pt x="250" y="-2" on="1"/>
        <pt x="224" y="-3" on="1"/>
        <pt x="220" y="-3" on="0"/>
        <pt x="191" y="-3" on="0"/>
        <pt x="167" y="3" on="1"/>
        <pt x="77" y="25" on="0"/>
        <pt x="77" y="117" on="1"/>
        <pt x="77" y="133" on="0"/>
        <pt x="79" y="150" on="1"/>
        <pt x="148" y="586" on="1"/>
        <pt x="162" y="674" on="0"/>
      </contour>
    </TTGlyph>
    <TTGlyph name="Ecaron" xMin="76" yMin="-4" xMax="640" yMax="933">
      <contour>
        <pt x="302" y="932" on="1"/>
        <pt x="392" y="932" on="1"/>
        <pt x="437" y="867" on="1"/>
        <pt x="507" y="932" on="1"/>
        <pt x="610" y="932" on="1"/>
        <pt x="481" y="797" on="1"/>
        <pt x="380" y="797" on="1"/>
      </contour>
      <contour>
        <pt x="217" y="706" on="1"/>
        <pt x="243" y="721" on="0"/>
        <pt x="294" y="732" on="0"/>
        <pt x="328" y="732" on="0"/>
        <pt x="577" y="725" on="0"/>
        <pt x="640" y="716" on="1"/>
        <pt x="622" y="600" on="1"/>
        <pt x="343" y="600" on="1"/>
        <pt x="295" y="600" on="0"/>
        <pt x="286" y="561" on="1"/>
        <pt x="284" y="554" on="0"/>
        <pt x="283" y="544" on="1"/>
        <pt x="265" y="432" on="1"/>
        <pt x="548" y="422" on="1"/>
        <pt x="529" y="307" on="1"/>
        <pt x="244" y="297" on="1"/>
        <pt x="225" y="181" on="1"/>
        <pt x="220" y="149" on="0"/>
        <pt x="232" y="140" on="1"/>
        <pt x="236" y="137" on="0"/>
        <pt x="240" y="133" on="0"/>
        <pt x="251" y="131" on="0"/>
        <pt x="256" y="129" on="0"/>
        <pt x="262" y="129" on="1"/>
        <pt x="270" y="129" on="0"/>
        <pt x="279" y="129" on="1"/>
        <pt x="548" y="129" on="1"/>
        <pt x="529" y="14" on="1"/>
        <pt x="474" y="7" on="0"/>
        <pt x="250" y="-2" on="1"/>
        <pt x="224" y="-3" on="1"/>
        <pt x="220" y="-3" on="0"/>
        <pt x="191" y="-3" on="0"/>
        <pt x="167" y="3" on="1"/>
        <pt x="77" y="25" on="0"/>
        <pt x="77" y="117" on="1"/>
        <pt x="77" y="133" on="0"/>
        <pt x="79" y="150" on="1"/>
        <pt x="148" y="586" on="1"/>
        <pt x="162" y="674" on="0"/>
      </contour>
    </TTGlyph>
    <TTGlyph name="Ecircumflex" xMin="76" yMin="-4" xMax="640" yMax="928">
      <contour>
        <pt x="275" y="792" on="1"/>
        <pt x="404" y="928" on="1"/>
        <pt x="508" y="928" on="1"/>
        <pt x="584" y="792" on="1"/>
        <pt x="492" y="792" on="1"/>
        <pt x="451" y="856" on="1"/>
        <pt x="386" y="792" on="1"/>
      </contour>
      <contour>
        <pt x="217" y="706" on="1"/>
        <pt x="243" y="721" on="0"/>
        <pt x="294" y="732" on="0"/>
        <pt x="328" y="732" on="0"/>
        <pt x="577" y="725" on="0"/>
        <pt x="640" y="716" on="1"/>
        <pt x="622" y="600" on="1"/>
        <pt x="343" y="600" on="1"/>
        <pt x="295" y="600" on="0"/>
        <pt x="286" y="561" on="1"/>
        <pt x="284" y="554" on="0"/>
        <pt x="283" y="544" on="1"/>
        <pt x="265" y="432" on="1"/>
        <pt x="548" y="422" on="1"/>
        <pt x="529" y="307" on="1"/>
        <pt x="244" y="297" on="1"/>
        <pt x="225" y="181" on="1"/>
        <pt x="220" y="149" on="0"/>
        <pt x="232" y="140" on="1"/>
        <pt x="236" y="137" on="0"/>
        <pt x="240" y="133" on="0"/>
        <pt x="251" y="131" on="0"/>
        <pt x="256" y="129" on="0"/>
        <pt x="262" y="129" on="1"/>
        <pt x="270" y="129" on="0"/>
        <pt x="279" y="129" on="1"/>
        <pt x="548" y="129" on="1"/>
        <pt x="529" y="14" on="1"/>
        <pt x="474" y="7" on="0"/>
        <pt x="250" y="-2" on="1"/>
        <pt x="224" y="-3" on="1"/>
        <pt x="220" y="-3" on="0"/>
        <pt x="191" y="-3" on="0"/>
        <pt x="167" y="3" on="1"/>
        <pt x="77" y="25" on="0"/>
        <pt x="77" y="117" on="1"/>
        <pt x="77" y="133" on="0"/>
        <pt x="79" y="150" on="1"/>
        <pt x="148" y="586" on="1"/>
        <pt x="162" y="674" on="0"/>
      </contour>
    </TTGlyph>
    <TTGlyph name="Edieresis" xMin="76" yMin="-4" xMax="640" yMax="902">
      <contour>
        <pt x="285" y="901" on="0"/>
        <pt x="334" y="901" on="0"/>
        <pt x="360" y="871" on="0"/>
        <pt x="360" y="859" on="1"/>
        <pt x="360" y="823" on="0"/>
        <pt x="315" y="784" on="0"/>
        <pt x="267" y="784" on="0"/>
        <pt x="241" y="815" on="0"/>
        <pt x="241" y="826" on="1"/>
        <pt x="241" y="863" on="0"/>
      </contour>
      <contour>
        <pt x="540" y="901" on="0"/>
        <pt x="589" y="901" on="0"/>
        <pt x="615" y="871" on="0"/>
        <pt x="615" y="859" on="1"/>
        <pt x="615" y="823" on="0"/>
        <pt x="570" y="784" on="0"/>
        <pt x="522" y="784" on="0"/>
        <pt x="496" y="815" on="0"/>
        <pt x="496" y="826" on="1"/>
        <pt x="496" y="863" on="0"/>
      </contour>
      <contour>
        <pt x="217" y="706" on="1"/>
        <pt x="243" y="721" on="0"/>
        <pt x="294" y="732" on="0"/>
        <pt x="328" y="732" on="0"/>
        <pt x="577" y="725" on="0"/>
        <pt x="640" y="716" on="1"/>
        <pt x="622" y="600" on="1"/>
        <pt x="343" y="600" on="1"/>
        <pt x="295" y="600" on="0"/>
        <pt x="286" y="561" on="1"/>
        <pt x="284" y="554" on="0"/>
        <pt x="283" y="544" on="1"/>
        <pt x="265" y="432" on="1"/>
        <pt x="548" y="422" on="1"/>
        <pt x="529" y="307" on="1"/>
        <pt x="244" y="297" on="1"/>
        <pt x="225" y="181" on="1"/>
        <pt x="220" y="149" on="0"/>
        <pt x="232" y="140" on="1"/>
        <pt x="236" y="137" on="0"/>
        <pt x="240" y="133" on="0"/>
        <pt x="251" y="131" on="0"/>
        <pt x="256" y="129" on="0"/>
        <pt x="262" y="129" on="1"/>
        <pt x="270" y="129" on="0"/>
        <pt x="279" y="129" on="1"/>
        <pt x="548" y="129" on="1"/>
        <pt x="529" y="14" on="1"/>
        <pt x="474" y="7" on="0"/>
        <pt x="250" y="-2" on="1"/>
        <pt x="224" y="-3" on="1"/>
        <pt x="220" y="-3" on="0"/>
        <pt x="191" y="-3" on="0"/>
        <pt x="167" y="3" on="1"/>
        <pt x="77" y="25" on="0"/>
        <pt x="77" y="117" on="1"/>
        <pt x="77" y="133" on="0"/>
        <pt x="79" y="150" on="1"/>
        <pt x="148" y="586" on="1"/>
        <pt x="162" y="674" on="0"/>
      </contour>
    </TTGlyph>
    <TTGlyph name="Edotaccent" xMin="76" yMin="-4" xMax="640" yMax="921">
      <contour>
        <pt x="418" y="921" on="1"/>
        <pt x="490" y="921" on="1"/>
        <pt x="512" y="921" on="0"/>
        <pt x="509" y="896" on="1"/>
        <pt x="497" y="820" on="1"/>
        <pt x="493" y="797" on="0"/>
        <pt x="471" y="797" on="1"/>
        <pt x="399" y="797" on="1"/>
        <pt x="388" y="797" on="0"/>
        <pt x="376" y="810" on="0"/>
        <pt x="378" y="820" on="1"/>
        <pt x="390" y="896" on="1"/>
        <pt x="393" y="921" on="0"/>
      </contour>
      <contour>
        <pt x="217" y="706" on="1"/>
        <pt x="243" y="721" on="0"/>
        <pt x="294" y="732" on="0"/>
        <pt x="328" y="732" on="0"/>
        <pt x="577" y="725" on="0"/>
        <pt x="640" y="716" on="1"/>
        <pt x="622" y="600" on="1"/>
        <pt x="343" y="600" on="1"/>
        <pt x="295" y="600" on="0"/>
        <pt x="286" y="561" on="1"/>
        <pt x="284" y="554" on="0"/>
        <pt x="283" y="544" on="1"/>
        <pt x="265" y="432" on="1"/>
        <pt x="548" y="422" on="1"/>
        <pt x="529" y="307" on="1"/>
        <pt x="244" y="297" on="1"/>
        <pt x="225" y="181" on="1"/>
        <pt x="220" y="149" on="0"/>
        <pt x="232" y="140" on="1"/>
        <pt x="236" y="137" on="0"/>
        <pt x="240" y="133" on="0"/>
        <pt x="251" y="131" on="0"/>
        <pt x="256" y="129" on="0"/>
        <pt x="262" y="129" on="1"/>
        <pt x="270" y="129" on="0"/>
        <pt x="279" y="129" on="1"/>
        <pt x="548" y="129" on="1"/>
        <pt x="529" y="14" on="1"/>
        <pt x="474" y="7" on="0"/>
        <pt x="250" y="-2" on="1"/>
        <pt x="224" y="-3" on="1"/>
        <pt x="220" y="-3" on="0"/>
        <pt x="191" y="-3" on="0"/>
        <pt x="167" y="3" on="1"/>
        <pt x="77" y="25" on="0"/>
        <pt x="77" y="117" on="1"/>
        <pt x="77" y="133" on="0"/>
        <pt x="79" y="150" on="1"/>
        <pt x="148" y="586" on="1"/>
        <pt x="162" y="674" on="0"/>
      </contour>
    </TTGlyph>
    <TTGlyph name="Egrave" xMin="76" yMin="-4" xMax="640" yMax="931">
      <contour>
        <pt x="275" y="930" on="1"/>
        <pt x="394" y="930" on="1"/>
        <pt x="471" y="792" on="1"/>
        <pt x="380" y="792" on="1"/>
      </contour>
      <contour>
        <pt x="217" y="706" on="1"/>
        <pt x="243" y="721" on="0"/>
        <pt x="294" y="732" on="0"/>
        <pt x="328" y="732" on="0"/>
        <pt x="577" y="725" on="0"/>
        <pt x="640" y="716" on="1"/>
        <pt x="622" y="600" on="1"/>
        <pt x="343" y="600" on="1"/>
        <pt x="295" y="600" on="0"/>
        <pt x="286" y="561" on="1"/>
        <pt x="284" y="554" on="0"/>
        <pt x="283" y="544" on="1"/>
        <pt x="265" y="432" on="1"/>
        <pt x="548" y="422" on="1"/>
        <pt x="529" y="307" on="1"/>
        <pt x="244" y="297" on="1"/>
        <pt x="225" y="181" on="1"/>
        <pt x="220" y="149" on="0"/>
        <pt x="232" y="140" on="1"/>
        <pt x="236" y="137" on="0"/>
        <pt x="240" y="133" on="0"/>
        <pt x="251" y="131" on="0"/>
        <pt x="256" y="129" on="0"/>
        <pt x="262" y="129" on="1"/>
        <pt x="270" y="129" on="0"/>
        <pt x="279" y="129" on="1"/>
        <pt x="548" y="129" on="1"/>
        <pt x="529" y="14" on="1"/>
        <pt x="474" y="7" on="0"/>
        <pt x="250" y="-2" on="1"/>
        <pt x="224" y="-3" on="1"/>
        <pt x="220" y="-3" on="0"/>
        <pt x="191" y="-3" on="0"/>
        <pt x="167" y="3" on="1"/>
        <pt x="77" y="25" on="0"/>
        <pt x="77" y="117" on="1"/>
        <pt x="77" y="133" on="0"/>
        <pt x="79" y="150" on="1"/>
        <pt x="148" y="586" on="1"/>
        <pt x="162" y="674" on="0"/>
      </contour>
    </TTGlyph>
    <TTGlyph name="Emacron" xMin="76" yMin="-4" xMax="640" yMax="872">
      <contour>
        <pt x="276" y="792" on="1"/>
        <pt x="289" y="872" on="1"/>
        <pt x="581" y="872" on="1"/>
        <pt x="568" y="792" on="1"/>
      </contour>
      <contour>
        <pt x="217" y="706" on="1"/>
        <pt x="243" y="721" on="0"/>
        <pt x="294" y="732" on="0"/>
        <pt x="328" y="732" on="0"/>
        <pt x="577" y="725" on="0"/>
        <pt x="640" y="716" on="1"/>
        <pt x="622" y="600" on="1"/>
        <pt x="343" y="600" on="1"/>
        <pt x="295" y="600" on="0"/>
        <pt x="286" y="561" on="1"/>
        <pt x="284" y="554" on="0"/>
        <pt x="283" y="544" on="1"/>
        <pt x="265" y="432" on="1"/>
        <pt x="548" y="422" on="1"/>
        <pt x="529" y="307" on="1"/>
        <pt x="244" y="297" on="1"/>
        <pt x="225" y="181" on="1"/>
        <pt x="220" y="149" on="0"/>
        <pt x="232" y="140" on="1"/>
        <pt x="236" y="137" on="0"/>
        <pt x="240" y="133" on="0"/>
        <pt x="251" y="131" on="0"/>
        <pt x="256" y="129" on="0"/>
        <pt x="262" y="129" on="1"/>
        <pt x="270" y="129" on="0"/>
        <pt x="279" y="129" on="1"/>
        <pt x="548" y="129" on="1"/>
        <pt x="529" y="14" on="1"/>
        <pt x="474" y="7" on="0"/>
        <pt x="250" y="-2" on="1"/>
        <pt x="224" y="-3" on="1"/>
        <pt x="220" y="-3" on="0"/>
        <pt x="191" y="-3" on="0"/>
        <pt x="167" y="3" on="1"/>
        <pt x="77" y="25" on="0"/>
        <pt x="77" y="117" on="1"/>
        <pt x="77" y="133" on="0"/>
        <pt x="79" y="150" on="1"/>
        <pt x="148" y="586" on="1"/>
        <pt x="162" y="674" on="0"/>
      </contour>
    </TTGlyph>
    <TTGlyph name="Eng" xMin="60" yMin="-258" xMax="740" yMax="732">
      <contour>
        <pt x="507" y="-234" on="0"/>
        <pt x="438" y="-257" on="0"/>
        <pt x="391" y="-257" on="0"/>
        <pt x="355" y="-257" on="0"/>
        <pt x="330" y="-257" on="1"/>
        <pt x="346" y="-156" on="1"/>
        <pt x="352" y="-155" on="0"/>
        <pt x="378" y="-152" on="0"/>
        <pt x="389" y="-150" on="0"/>
        <pt x="412" y="-146" on="0"/>
        <pt x="424" y="-140" on="0"/>
        <pt x="442" y="-131" on="0"/>
        <pt x="452" y="-118" on="0"/>
        <pt x="458" y="-110" on="1"/>
        <pt x="469" y="-95" on="0"/>
        <pt x="473" y="-64" on="1"/>
        <pt x="484" y="3" on="1"/>
        <pt x="276" y="468" on="1"/>
        <pt x="202" y="0" on="1"/>
        <pt x="61" y="0" on="1"/>
        <pt x="177" y="732" on="1"/>
        <pt x="317" y="732" on="1"/>
        <pt x="525" y="259" on="1"/>
        <pt x="600" y="732" on="1"/>
        <pt x="740" y="732" on="1"/>
        <pt x="612" y="-73" on="1"/>
        <pt x="596" y="-174" on="0"/>
        <pt x="535" y="-215" on="1"/>
      </contour>
    </TTGlyph>
    <TTGlyph name="Eogonek" xMin="78" yMin="-176" xMax="643" yMax="733">
      <contour>
        <pt x="471" y="-61" on="1"/>
        <pt x="471" y="-100" on="0"/>
        <pt x="522" y="-96" on="1"/>
        <pt x="510" y="-172" on="1"/>
        <pt x="496" y="-176" on="0"/>
        <pt x="465" y="-176" on="0"/>
        <pt x="420" y="-160" on="0"/>
        <pt x="389" y="-113" on="0"/>
        <pt x="389" y="-61" on="0"/>
        <pt x="431" y="-6" on="0"/>
        <pt x="475" y="14" on="1"/>
        <pt x="531" y="14" on="1"/>
        <pt x="471" y="-26" on="0"/>
      </contour>
      <contour>
        <pt x="219" y="706" on="1"/>
        <pt x="245" y="721" on="0"/>
        <pt x="297" y="732" on="0"/>
        <pt x="330" y="732" on="0"/>
        <pt x="579" y="725" on="0"/>
        <pt x="642" y="716" on="1"/>
        <pt x="624" y="600" on="1"/>
        <pt x="345" y="600" on="1"/>
        <pt x="297" y="600" on="0"/>
        <pt x="288" y="561" on="1"/>
        <pt x="286" y="554" on="0"/>
        <pt x="285" y="544" on="1"/>
        <pt x="267" y="432" on="1"/>
        <pt x="550" y="422" on="1"/>
        <pt x="531" y="307" on="1"/>
        <pt x="246" y="297" on="1"/>
        <pt x="227" y="181" on="1"/>
        <pt x="222" y="149" on="0"/>
        <pt x="234" y="140" on="1"/>
        <pt x="238" y="137" on="0"/>
        <pt x="242" y="133" on="0"/>
        <pt x="253" y="131" on="0"/>
        <pt x="258" y="129" on="0"/>
        <pt x="264" y="129" on="1"/>
        <pt x="272" y="129" on="0"/>
        <pt x="282" y="129" on="1"/>
        <pt x="550" y="129" on="1"/>
        <pt x="531" y="14" on="1"/>
        <pt x="476" y="7" on="0"/>
        <pt x="252" y="-2" on="1"/>
        <pt x="227" y="-3" on="1"/>
        <pt x="222" y="-3" on="0"/>
        <pt x="193" y="-3" on="0"/>
        <pt x="169" y="3" on="1"/>
        <pt x="79" y="25" on="0"/>
        <pt x="79" y="117" on="1"/>
        <pt x="79" y="133" on="0"/>
        <pt x="82" y="150" on="1"/>
        <pt x="150" y="586" on="1"/>
        <pt x="165" y="674" on="0"/>
      </contour>
    </TTGlyph>
    <TTGlyph name="Eth" xMin="49" yMin="0" xMax="684" yMax="732">
      <contour>
        <pt x="477" y="732" on="1"/>
        <pt x="580" y="732" on="0"/>
        <pt x="628" y="669" on="1"/>
        <pt x="675" y="607" on="0"/>
        <pt x="681" y="521" on="1"/>
        <pt x="683" y="494" on="0"/>
        <pt x="683" y="473" on="1"/>
        <pt x="683" y="410" on="0"/>
        <pt x="673" y="346" on="1"/>
        <pt x="643" y="166" on="0"/>
        <pt x="502" y="0" on="0"/>
        <pt x="372" y="0" on="1"/>
        <pt x="60" y="0" on="1"/>
        <pt x="114" y="340" on="1"/>
        <pt x="49" y="340" on="1"/>
        <pt x="60" y="406" on="1"/>
        <pt x="125" y="406" on="1"/>
        <pt x="176" y="732" on="1"/>
        <pt x="176" y="732" on="0"/>
      </contour>
      <contour>
        <pt x="532" y="364" on="1"/>
        <pt x="544" y="429" on="0"/>
        <pt x="544" y="462" on="1"/>
        <pt x="544" y="557" on="0"/>
        <pt x="512" y="587" on="1"/>
        <pt x="489" y="608" on="0"/>
        <pt x="446" y="608" on="1"/>
        <pt x="297" y="608" on="1"/>
        <pt x="265" y="406" on="1"/>
        <pt x="376" y="406" on="1"/>
        <pt x="366" y="340" on="1"/>
        <pt x="254" y="340" on="1"/>
        <pt x="220" y="125" on="1"/>
        <pt x="370" y="125" on="1"/>
        <pt x="494" y="125" on="0"/>
      </contour>
    </TTGlyph>
    <TTGlyph name="Euro" xMin="56" yMin="-6" xMax="712" yMax="740">
      <contour>
        <pt x="348" y="726" on="0"/>
        <pt x="416" y="740" on="0"/>
        <pt x="484" y="740" on="0"/>
        <pt x="528" y="736" on="1"/>
        <pt x="642" y="726" on="0"/>
        <pt x="712" y="704" on="1"/>
        <pt x="696" y="602" on="1"/>
        <pt x="551" y="616" on="0"/>
        <pt x="441" y="616" on="0"/>
        <pt x="397" y="609" on="0"/>
        <pt x="366" y="598" on="0"/>
        <pt x="343" y="575" on="0"/>
        <pt x="329" y="556" on="0"/>
        <pt x="323" y="539" on="1"/>
        <pt x="316" y="515" on="0"/>
        <pt x="309" y="476" on="1"/>
        <pt x="542" y="468" on="1"/>
        <pt x="531" y="400" on="1"/>
        <pt x="296" y="394" on="1"/>
        <pt x="286" y="326" on="1"/>
        <pt x="518" y="318" on="1"/>
        <pt x="507" y="250" on="1"/>
        <pt x="368" y="247" on="0"/>
        <pt x="305" y="244" on="1"/>
        <pt x="272" y="242" on="1"/>
        <pt x="268" y="225" on="0"/>
        <pt x="268" y="204" on="0"/>
        <pt x="271" y="180" on="0"/>
        <pt x="277" y="152" on="0"/>
        <pt x="297" y="133" on="0"/>
        <pt x="316" y="121" on="0"/>
        <pt x="330" y="118" on="1"/>
        <pt x="356" y="112" on="0"/>
        <pt x="393" y="112" on="1"/>
        <pt x="470" y="112" on="0"/>
        <pt x="587" y="129" on="1"/>
        <pt x="626" y="134" on="1"/>
        <pt x="609" y="34" on="1"/>
        <pt x="509" y="-6" on="0"/>
        <pt x="338" y="-6" on="1"/>
        <pt x="281" y="-6" on="0"/>
        <pt x="227" y="14" on="0"/>
        <pt x="190" y="33" on="0"/>
        <pt x="165" y="59" on="0"/>
        <pt x="152" y="78" on="1"/>
        <pt x="133" y="105" on="0"/>
        <pt x="127" y="174" on="1"/>
        <pt x="127" y="182" on="0"/>
        <pt x="127" y="215" on="0"/>
        <pt x="132" y="242" on="1"/>
        <pt x="56" y="250" on="1"/>
        <pt x="67" y="318" on="1"/>
        <pt x="146" y="326" on="1"/>
        <pt x="156" y="394" on="1"/>
        <pt x="81" y="402" on="1"/>
        <pt x="91" y="466" on="1"/>
        <pt x="169" y="476" on="1"/>
        <pt x="179" y="539" on="0"/>
        <pt x="201" y="593" on="0"/>
        <pt x="225" y="637" on="0"/>
        <pt x="254" y="670" on="0"/>
        <pt x="297" y="704" on="0"/>
      </contour>
    </TTGlyph>
    <TTGlyph name="Euro.smcp" xMin="42" yMin="-5" xMax="578" yMax="577">
      <contour>
        <pt x="360" y="577" on="1"/>
        <pt x="397" y="577" on="0"/>
        <pt x="527" y="563" on="0"/>
        <pt x="578" y="554" on="1"/>
        <pt x="561" y="448" on="1"/>
        <pt x="436" y="459" on="0"/>
        <pt x="322" y="459" on="0"/>
        <pt x="276" y="414" on="0"/>
        <pt x="269" y="375" on="1"/>
        <pt x="443" y="369" on="1"/>
        <pt x="432" y="307" on="1"/>
        <pt x="257" y="302" on="1"/>
        <pt x="252" y="265" on="1"/>
        <pt x="425" y="260" on="1"/>
        <pt x="415" y="196" on="1"/>
        <pt x="238" y="192" on="0"/>
        <pt x="240" y="190" on="1"/>
        <pt x="235" y="172" on="0"/>
        <pt x="244" y="137" on="0"/>
        <pt x="258" y="126" on="0"/>
        <pt x="270" y="120" on="0"/>
        <pt x="280" y="118" on="1"/>
        <pt x="296" y="115" on="0"/>
        <pt x="328" y="115" on="0"/>
        <pt x="357" y="116" on="0"/>
        <pt x="386" y="118" on="0"/>
        <pt x="416" y="120" on="0"/>
        <pt x="444" y="122" on="0"/>
        <pt x="469" y="124" on="0"/>
        <pt x="479" y="125" on="1"/>
        <pt x="501" y="127" on="0"/>
        <pt x="513" y="129" on="1"/>
        <pt x="497" y="23" on="1"/>
        <pt x="419" y="-5" on="0"/>
        <pt x="272" y="-5" on="1"/>
        <pt x="212" y="-5" on="0"/>
        <pt x="143" y="30" on="0"/>
        <pt x="126" y="50" on="1"/>
        <pt x="96" y="86" on="0"/>
        <pt x="96" y="150" on="1"/>
        <pt x="96" y="169" on="0"/>
        <pt x="99" y="190" on="1"/>
        <pt x="43" y="196" on="1"/>
        <pt x="52" y="260" on="1"/>
        <pt x="111" y="265" on="1"/>
        <pt x="116" y="302" on="1"/>
        <pt x="60" y="308" on="1"/>
        <pt x="70" y="368" on="1"/>
        <pt x="128" y="375" on="1"/>
        <pt x="139" y="447" on="0"/>
        <pt x="163" y="486" on="1"/>
        <pt x="190" y="529" on="0"/>
        <pt x="232" y="550" on="1"/>
        <pt x="285" y="577" on="0"/>
      </contour>
    </TTGlyph>
    <TTGlyph name="F" xMin="58" yMin="0" xMax="642" yMax="733">
      <contour>
        <pt x="327" y="732" on="1"/>
        <pt x="330" y="732" on="0"/>
        <pt x="578" y="725" on="0"/>
        <pt x="641" y="716" on="1"/>
        <pt x="624" y="600" on="1"/>
        <pt x="345" y="600" on="1"/>
        <pt x="312" y="600" on="0"/>
        <pt x="288" y="571" on="0"/>
        <pt x="284" y="544" on="1"/>
        <pt x="266" y="430" on="1"/>
        <pt x="549" y="420" on="1"/>
        <pt x="532" y="304" on="1"/>
        <pt x="245" y="295" on="1"/>
        <pt x="198" y="0" on="1"/>
        <pt x="58" y="0" on="1"/>
        <pt x="149" y="574" on="1"/>
        <pt x="162" y="660" on="0"/>
        <pt x="261" y="732" on="0"/>
      </contour>
    </TTGlyph>
    <TTGlyph name="G" xMin="89" yMin="-7" xMax="674" yMax="740">
      <contour>
        <pt x="446" y="53" on="1"/>
        <pt x="388" y="-6" on="0"/>
        <pt x="278" y="-6" on="1"/>
        <pt x="187" y="-6" on="0"/>
        <pt x="143" y="52" on="1"/>
        <pt x="90" y="121" on="0"/>
        <pt x="90" y="247" on="1"/>
        <pt x="90" y="371" on="0"/>
        <pt x="133" y="517" on="1"/>
        <pt x="167" y="636" on="0"/>
        <pt x="226" y="685" on="1"/>
        <pt x="292" y="740" on="0"/>
        <pt x="406" y="740" on="1"/>
        <pt x="409" y="740" on="0"/>
        <pt x="449" y="740" on="1"/>
        <pt x="540" y="740" on="0"/>
        <pt x="674" y="705" on="1"/>
        <pt x="657" y="598" on="1"/>
        <pt x="519" y="616" on="0"/>
        <pt x="419" y="616" on="1"/>
        <pt x="348" y="616" on="0"/>
        <pt x="316" y="576" on="1"/>
        <pt x="283" y="535" on="0"/>
        <pt x="254" y="422" on="0"/>
        <pt x="233" y="300" on="0"/>
        <pt x="233" y="212" on="0"/>
        <pt x="242" y="184" on="1"/>
        <pt x="260" y="125" on="0"/>
        <pt x="333" y="125" on="1"/>
        <pt x="333" y="125" on="0"/>
        <pt x="333" y="125" on="1"/>
        <pt x="364" y="125" on="0"/>
        <pt x="429" y="150" on="0"/>
        <pt x="447" y="163" on="1"/>
        <pt x="464" y="175" on="1"/>
        <pt x="486" y="303" on="1"/>
        <pt x="383" y="303" on="1"/>
        <pt x="397" y="392" on="1"/>
        <pt x="460" y="417" on="0"/>
        <pt x="576" y="417" on="1"/>
        <pt x="608" y="417" on="0"/>
        <pt x="644" y="414" on="1"/>
        <pt x="578" y="0" on="1"/>
        <pt x="477" y="0" on="1"/>
      </contour>
    </TTGlyph>
    <TTGlyph name="Gbreve" xMin="89" yMin="-7" xMax="674" yMax="913">
      <contour>
        <pt x="398" y="912" on="1"/>
        <pt x="398" y="907" on="0"/>
        <pt x="398" y="883" on="0"/>
        <pt x="421" y="856" on="0"/>
        <pt x="446" y="856" on="1"/>
        <pt x="447" y="856" on="0"/>
        <pt x="447" y="856" on="1"/>
        <pt x="505" y="856" on="0"/>
        <pt x="512" y="912" on="1"/>
        <pt x="569" y="912" on="1"/>
        <pt x="563" y="858" on="0"/>
        <pt x="499" y="800" on="0"/>
        <pt x="397" y="800" on="0"/>
        <pt x="340" y="857" on="0"/>
        <pt x="340" y="900" on="1"/>
        <pt x="340" y="906" on="0"/>
        <pt x="341" y="912" on="1"/>
      </contour>
      <contour>
        <pt x="446" y="53" on="1"/>
        <pt x="388" y="-6" on="0"/>
        <pt x="278" y="-6" on="1"/>
        <pt x="226" y="-6" on="0"/>
        <pt x="187" y="16" on="1"/>
        <pt x="89" y="69" on="0"/>
        <pt x="89" y="250" on="1"/>
        <pt x="89" y="312" on="0"/>
        <pt x="117" y="465" on="0"/>
        <pt x="148" y="569" on="0"/>
        <pt x="195" y="658" on="0"/>
        <pt x="226" y="685" on="1"/>
        <pt x="292" y="740" on="0"/>
        <pt x="406" y="740" on="1"/>
        <pt x="409" y="740" on="0"/>
        <pt x="463" y="740" on="0"/>
        <pt x="504" y="736" on="1"/>
        <pt x="574" y="731" on="0"/>
        <pt x="674" y="705" on="1"/>
        <pt x="657" y="598" on="1"/>
        <pt x="519" y="616" on="0"/>
        <pt x="419" y="616" on="1"/>
        <pt x="348" y="616" on="0"/>
        <pt x="316" y="576" on="1"/>
        <pt x="283" y="535" on="0"/>
        <pt x="254" y="422" on="0"/>
        <pt x="233" y="300" on="0"/>
        <pt x="233" y="212" on="0"/>
        <pt x="242" y="184" on="1"/>
        <pt x="260" y="125" on="0"/>
        <pt x="333" y="125" on="1"/>
        <pt x="333" y="125" on="0"/>
        <pt x="333" y="125" on="1"/>
        <pt x="364" y="125" on="0"/>
        <pt x="429" y="150" on="0"/>
        <pt x="447" y="163" on="1"/>
        <pt x="464" y="175" on="1"/>
        <pt x="486" y="303" on="1"/>
        <pt x="383" y="303" on="1"/>
        <pt x="397" y="392" on="1"/>
        <pt x="460" y="416" on="0"/>
        <pt x="576" y="416" on="1"/>
        <pt x="608" y="416" on="0"/>
        <pt x="644" y="414" on="1"/>
        <pt x="578" y="0" on="1"/>
        <pt x="477" y="0" on="1"/>
      </contour>
    </TTGlyph>
    <TTGlyph name="Gcircumflex" xMin="89" yMin="-7" xMax="674" yMax="936">
      <contour>
        <pt x="284" y="800" on="1"/>
        <pt x="413" y="935" on="1"/>
        <pt x="517" y="935" on="1"/>
        <pt x="592" y="800" on="1"/>
        <pt x="502" y="800" on="1"/>
        <pt x="459" y="865" on="1"/>
        <pt x="387" y="800" on="1"/>
      </contour>
      <contour>
        <pt x="446" y="53" on="1"/>
        <pt x="388" y="-6" on="0"/>
        <pt x="278" y="-6" on="1"/>
        <pt x="226" y="-6" on="0"/>
        <pt x="187" y="16" on="1"/>
        <pt x="89" y="69" on="0"/>
        <pt x="89" y="250" on="1"/>
        <pt x="89" y="312" on="0"/>
        <pt x="117" y="465" on="0"/>
        <pt x="148" y="569" on="0"/>
        <pt x="195" y="658" on="0"/>
        <pt x="226" y="685" on="1"/>
        <pt x="292" y="740" on="0"/>
        <pt x="406" y="740" on="1"/>
        <pt x="409" y="740" on="0"/>
        <pt x="463" y="740" on="0"/>
        <pt x="504" y="736" on="1"/>
        <pt x="574" y="731" on="0"/>
        <pt x="674" y="705" on="1"/>
        <pt x="657" y="598" on="1"/>
        <pt x="519" y="616" on="0"/>
        <pt x="419" y="616" on="1"/>
        <pt x="348" y="616" on="0"/>
        <pt x="316" y="576" on="1"/>
        <pt x="283" y="535" on="0"/>
        <pt x="254" y="422" on="0"/>
        <pt x="233" y="300" on="0"/>
        <pt x="233" y="212" on="0"/>
        <pt x="242" y="184" on="1"/>
        <pt x="260" y="125" on="0"/>
        <pt x="333" y="125" on="1"/>
        <pt x="333" y="125" on="0"/>
        <pt x="333" y="125" on="1"/>
        <pt x="364" y="125" on="0"/>
        <pt x="429" y="150" on="0"/>
        <pt x="447" y="163" on="1"/>
        <pt x="464" y="175" on="1"/>
        <pt x="486" y="303" on="1"/>
        <pt x="383" y="303" on="1"/>
        <pt x="397" y="392" on="1"/>
        <pt x="460" y="416" on="0"/>
        <pt x="576" y="416" on="1"/>
        <pt x="608" y="416" on="0"/>
        <pt x="644" y="414" on="1"/>
        <pt x="578" y="0" on="1"/>
        <pt x="477" y="0" on="1"/>
      </contour>
    </TTGlyph>
    <TTGlyph name="Gcommaaccent" xMin="89" yMin="-276" xMax="674" yMax="740">
      <contour>
        <pt x="278" y="-192" on="1"/>
        <pt x="268" y="-192" on="0"/>
        <pt x="257" y="-180" on="0"/>
        <pt x="259" y="-170" on="1"/>
        <pt x="271" y="-91" on="1"/>
        <pt x="275" y="-67" on="0"/>
        <pt x="298" y="-67" on="1"/>
        <pt x="373" y="-67" on="1"/>
        <pt x="391" y="-67" on="0"/>
        <pt x="391" y="-85" on="1"/>
        <pt x="391" y="-88" on="0"/>
        <pt x="391" y="-91" on="1"/>
        <pt x="373" y="-202" on="1"/>
        <pt x="369" y="-230" on="0"/>
        <pt x="354" y="-247" on="1"/>
        <pt x="330" y="-276" on="0"/>
        <pt x="279" y="-276" on="1"/>
        <pt x="267" y="-276" on="0"/>
        <pt x="259" y="-274" on="1"/>
        <pt x="247" y="-271" on="1"/>
        <pt x="254" y="-228" on="1"/>
        <pt x="267" y="-228" on="0"/>
        <pt x="281" y="-219" on="0"/>
        <pt x="284" y="-211" on="0"/>
        <pt x="286" y="-205" on="1"/>
        <pt x="288" y="-192" on="1"/>
      </contour>
      <contour>
        <pt x="446" y="53" on="1"/>
        <pt x="388" y="-6" on="0"/>
        <pt x="278" y="-6" on="1"/>
        <pt x="226" y="-6" on="0"/>
        <pt x="187" y="16" on="1"/>
        <pt x="89" y="69" on="0"/>
        <pt x="89" y="250" on="1"/>
        <pt x="89" y="312" on="0"/>
        <pt x="117" y="465" on="0"/>
        <pt x="148" y="569" on="0"/>
        <pt x="195" y="658" on="0"/>
        <pt x="226" y="685" on="1"/>
        <pt x="292" y="740" on="0"/>
        <pt x="406" y="740" on="1"/>
        <pt x="409" y="740" on="0"/>
        <pt x="463" y="740" on="0"/>
        <pt x="504" y="736" on="1"/>
        <pt x="574" y="731" on="0"/>
        <pt x="674" y="705" on="1"/>
        <pt x="657" y="598" on="1"/>
        <pt x="519" y="616" on="0"/>
        <pt x="419" y="616" on="1"/>
        <pt x="348" y="616" on="0"/>
        <pt x="316" y="576" on="1"/>
        <pt x="283" y="535" on="0"/>
        <pt x="254" y="422" on="0"/>
        <pt x="233" y="300" on="0"/>
        <pt x="233" y="212" on="0"/>
        <pt x="242" y="184" on="1"/>
        <pt x="260" y="125" on="0"/>
        <pt x="333" y="125" on="1"/>
        <pt x="333" y="125" on="0"/>
        <pt x="333" y="125" on="1"/>
        <pt x="364" y="125" on="0"/>
        <pt x="429" y="150" on="0"/>
        <pt x="447" y="163" on="1"/>
        <pt x="464" y="175" on="1"/>
        <pt x="486" y="303" on="1"/>
        <pt x="383" y="303" on="1"/>
        <pt x="397" y="392" on="1"/>
        <pt x="460" y="416" on="0"/>
        <pt x="576" y="416" on="1"/>
        <pt x="608" y="416" on="0"/>
        <pt x="644" y="414" on="1"/>
        <pt x="578" y="0" on="1"/>
        <pt x="477" y="0" on="1"/>
      </contour>
    </TTGlyph>
    <TTGlyph name="Gdotaccent" xMin="89" yMin="-7" xMax="674" yMax="924">
      <contour>
        <pt x="426" y="924" on="1"/>
        <pt x="498" y="924" on="1"/>
        <pt x="521" y="924" on="0"/>
        <pt x="517" y="899" on="1"/>
        <pt x="505" y="823" on="1"/>
        <pt x="502" y="800" on="0"/>
        <pt x="479" y="800" on="1"/>
        <pt x="407" y="800" on="1"/>
        <pt x="396" y="800" on="0"/>
        <pt x="385" y="813" on="0"/>
        <pt x="386" y="823" on="1"/>
        <pt x="398" y="899" on="1"/>
        <pt x="402" y="924" on="0"/>
      </contour>
      <contour>
        <pt x="446" y="53" on="1"/>
        <pt x="388" y="-6" on="0"/>
        <pt x="278" y="-6" on="1"/>
        <pt x="226" y="-6" on="0"/>
        <pt x="187" y="16" on="1"/>
        <pt x="89" y="69" on="0"/>
        <pt x="89" y="250" on="1"/>
        <pt x="89" y="312" on="0"/>
        <pt x="117" y="465" on="0"/>
        <pt x="148" y="569" on="0"/>
        <pt x="195" y="658" on="0"/>
        <pt x="226" y="685" on="1"/>
        <pt x="292" y="740" on="0"/>
        <pt x="406" y="740" on="1"/>
        <pt x="409" y="740" on="0"/>
        <pt x="463" y="740" on="0"/>
        <pt x="504" y="736" on="1"/>
        <pt x="574" y="731" on="0"/>
        <pt x="674" y="705" on="1"/>
        <pt x="657" y="598" on="1"/>
        <pt x="519" y="616" on="0"/>
        <pt x="419" y="616" on="1"/>
        <pt x="348" y="616" on="0"/>
        <pt x="316" y="576" on="1"/>
        <pt x="283" y="535" on="0"/>
        <pt x="254" y="422" on="0"/>
        <pt x="233" y="300" on="0"/>
        <pt x="233" y="212" on="0"/>
        <pt x="242" y="184" on="1"/>
        <pt x="260" y="125" on="0"/>
        <pt x="333" y="125" on="1"/>
        <pt x="333" y="125" on="0"/>
        <pt x="333" y="125" on="1"/>
        <pt x="364" y="125" on="0"/>
        <pt x="429" y="150" on="0"/>
        <pt x="447" y="163" on="1"/>
        <pt x="464" y="175" on="1"/>
        <pt x="486" y="303" on="1"/>
        <pt x="383" y="303" on="1"/>
        <pt x="397" y="392" on="1"/>
        <pt x="460" y="416" on="0"/>
        <pt x="576" y="416" on="1"/>
        <pt x="608" y="416" on="0"/>
        <pt x="644" y="414" on="1"/>
        <pt x="578" y="0" on="1"/>
        <pt x="477" y="0" on="1"/>
      </contour>
    </TTGlyph>
    <TTGlyph name="H" xMin="63" yMin="0" xMax="710" yMax="732">
      <contour>
        <pt x="63" y="0" on="1"/>
        <pt x="179" y="732" on="1"/>
        <pt x="319" y="732" on="1"/>
        <pt x="269" y="418" on="1"/>
        <pt x="520" y="418" on="1"/>
        <pt x="570" y="732" on="1"/>
        <pt x="710" y="732" on="1"/>
        <pt x="594" y="0" on="1"/>
        <pt x="454" y="0" on="1"/>
        <pt x="500" y="290" on="1"/>
        <pt x="249" y="290" on="1"/>
        <pt x="203" y="0" on="1"/>
      </contour>
    </TTGlyph>
    <TTGlyph name="Hbar" xMin="63" yMin="0" xMax="749" yMax="732">
      <contour>
        <pt x="64" y="0" on="1"/>
        <pt x="146" y="516" on="1"/>
        <pt x="82" y="516" on="1"/>
        <pt x="92" y="582" on="1"/>
        <pt x="155" y="582" on="1"/>
        <pt x="180" y="732" on="1"/>
        <pt x="320" y="732" on="1"/>
        <pt x="295" y="582" on="1"/>
        <pt x="546" y="582" on="1"/>
        <pt x="571" y="732" on="1"/>
        <pt x="711" y="732" on="1"/>
        <pt x="686" y="582" on="1"/>
        <pt x="748" y="582" on="1"/>
        <pt x="739" y="516" on="1"/>
        <pt x="677" y="516" on="1"/>
        <pt x="595" y="0" on="1"/>
        <pt x="455" y="0" on="1"/>
        <pt x="501" y="290" on="1"/>
        <pt x="250" y="290" on="1"/>
        <pt x="204" y="0" on="1"/>
      </contour>
      <contour>
        <pt x="270" y="419" on="1"/>
        <pt x="521" y="419" on="1"/>
        <pt x="537" y="516" on="1"/>
        <pt x="286" y="516" on="1"/>
      </contour>
    </TTGlyph>
    <TTGlyph name="Hcircumflex" xMin="63" yMin="0" xMax="710" yMax="933">
      <contour>
        <pt x="300" y="797" on="1"/>
        <pt x="430" y="932" on="1"/>
        <pt x="534" y="932" on="1"/>
        <pt x="609" y="797" on="1"/>
        <pt x="519" y="797" on="1"/>
        <pt x="476" y="862" on="1"/>
        <pt x="404" y="797" on="1"/>
      </contour>
      <contour>
        <pt x="63" y="0" on="1"/>
        <pt x="179" y="732" on="1"/>
        <pt x="319" y="732" on="1"/>
        <pt x="269" y="418" on="1"/>
        <pt x="520" y="418" on="1"/>
        <pt x="570" y="732" on="1"/>
        <pt x="710" y="732" on="1"/>
        <pt x="594" y="0" on="1"/>
        <pt x="454" y="0" on="1"/>
        <pt x="500" y="290" on="1"/>
        <pt x="249" y="290" on="1"/>
        <pt x="203" y="0" on="1"/>
      </contour>
    </TTGlyph>
    <TTGlyph name="I" xMin="65" yMin="0" xMax="322" yMax="732">
      <contour>
        <pt x="65" y="0" on="1"/>
        <pt x="181" y="732" on="1"/>
        <pt x="321" y="732" on="1"/>
        <pt x="205" y="0" on="1"/>
      </contour>
    </TTGlyph>
    <TTGlyph name="Iacute" xMin="65" yMin="0" xMax="452" yMax="936">
      <contour>
        <pt x="216" y="797" on="1"/>
        <pt x="329" y="936" on="1"/>
        <pt x="451" y="936" on="1"/>
        <pt x="307" y="797" on="1"/>
      </contour>
      <contour>
        <pt x="65" y="0" on="1"/>
        <pt x="181" y="732" on="1"/>
        <pt x="321" y="732" on="1"/>
        <pt x="205" y="0" on="1"/>
      </contour>
    </TTGlyph>
    <TTGlyph name="Icircumflex" xMin="65" yMin="0" xMax="416" yMax="933">
      <contour>
        <pt x="107" y="797" on="1"/>
        <pt x="236" y="932" on="1"/>
        <pt x="340" y="932" on="1"/>
        <pt x="416" y="797" on="1"/>
        <pt x="325" y="797" on="1"/>
        <pt x="283" y="862" on="1"/>
        <pt x="210" y="797" on="1"/>
      </contour>
      <contour>
        <pt x="65" y="0" on="1"/>
        <pt x="181" y="732" on="1"/>
        <pt x="321" y="732" on="1"/>
        <pt x="205" y="0" on="1"/>
      </contour>
    </TTGlyph>
    <TTGlyph name="Idieresis" xMin="65" yMin="0" xMax="459" yMax="915">
      <contour>
        <pt x="129" y="914" on="0"/>
        <pt x="178" y="914" on="0"/>
        <pt x="203" y="884" on="0"/>
        <pt x="203" y="873" on="1"/>
        <pt x="203" y="836" on="0"/>
        <pt x="159" y="797" on="0"/>
        <pt x="119" y="797" on="0"/>
        <pt x="106" y="805" on="1"/>
        <pt x="80" y="822" on="0"/>
        <pt x="89" y="880" on="0"/>
      </contour>
      <contour>
        <pt x="384" y="914" on="0"/>
        <pt x="433" y="914" on="0"/>
        <pt x="458" y="884" on="0"/>
        <pt x="458" y="873" on="1"/>
        <pt x="458" y="836" on="0"/>
        <pt x="414" y="797" on="0"/>
        <pt x="374" y="797" on="0"/>
        <pt x="361" y="805" on="1"/>
        <pt x="335" y="822" on="0"/>
        <pt x="344" y="880" on="0"/>
      </contour>
      <contour>
        <pt x="65" y="0" on="1"/>
        <pt x="181" y="732" on="1"/>
        <pt x="321" y="732" on="1"/>
        <pt x="205" y="0" on="1"/>
      </contour>
    </TTGlyph>
    <TTGlyph name="Idotaccent" xMin="65" yMin="0" xMax="338" yMax="921">
      <contour>
        <pt x="318" y="921" on="1"/>
        <pt x="337" y="921" on="0"/>
        <pt x="337" y="901" on="1"/>
        <pt x="337" y="899" on="0"/>
        <pt x="337" y="896" on="1"/>
        <pt x="324" y="820" on="1"/>
        <pt x="321" y="797" on="0"/>
        <pt x="298" y="797" on="1"/>
        <pt x="226" y="797" on="1"/>
        <pt x="216" y="797" on="0"/>
        <pt x="204" y="810" on="0"/>
        <pt x="205" y="820" on="1"/>
        <pt x="218" y="896" on="1"/>
        <pt x="221" y="921" on="0"/>
        <pt x="246" y="921" on="1"/>
      </contour>
      <contour>
        <pt x="65" y="0" on="1"/>
        <pt x="181" y="732" on="1"/>
        <pt x="321" y="732" on="1"/>
        <pt x="205" y="0" on="1"/>
      </contour>
    </TTGlyph>
    <TTGlyph name="Idotaccent.smcp" xMin="42" yMin="0" xMax="288" yMax="745">
      <contour>
        <pt x="43" y="0" on="1"/>
        <pt x="133" y="570" on="1"/>
        <pt x="273" y="570" on="1"/>
        <pt x="183" y="0" on="1"/>
      </contour>
      <contour>
        <pt x="268" y="745" on="1"/>
        <pt x="287" y="745" on="0"/>
        <pt x="287" y="725" on="1"/>
        <pt x="287" y="723" on="0"/>
        <pt x="287" y="720" on="1"/>
        <pt x="274" y="644" on="1"/>
        <pt x="271" y="621" on="0"/>
        <pt x="248" y="621" on="1"/>
        <pt x="176" y="621" on="1"/>
        <pt x="166" y="621" on="0"/>
        <pt x="154" y="634" on="0"/>
        <pt x="155" y="644" on="1"/>
        <pt x="168" y="720" on="1"/>
        <pt x="171" y="745" on="0"/>
        <pt x="196" y="745" on="1"/>
      </contour>
    </TTGlyph>
    <TTGlyph name="Igrave" xMin="65" yMin="0" xMax="322" yMax="936">
      <contour>
        <pt x="111" y="936" on="1"/>
        <pt x="230" y="936" on="1"/>
        <pt x="307" y="797" on="1"/>
        <pt x="216" y="797" on="1"/>
      </contour>
      <contour>
        <pt x="65" y="0" on="1"/>
        <pt x="181" y="732" on="1"/>
        <pt x="321" y="732" on="1"/>
        <pt x="205" y="0" on="1"/>
      </contour>
    </TTGlyph>
    <TTGlyph name="Imacron" xMin="43" yMin="0" xMax="394" yMax="875">
      <contour>
        <pt x="89" y="795" on="1"/>
        <pt x="101" y="874" on="1"/>
        <pt x="393" y="874" on="1"/>
        <pt x="381" y="795" on="1"/>
      </contour>
      <contour>
        <pt x="44" y="0" on="1"/>
        <pt x="160" y="732" on="1"/>
        <pt x="300" y="732" on="1"/>
        <pt x="184" y="0" on="1"/>
      </contour>
    </TTGlyph>
    <TTGlyph name="Iogonek" xMin="27" yMin="-190" xMax="322" yMax="732">
      <contour>
        <pt x="109" y="-75" on="1"/>
        <pt x="109" y="-114" on="0"/>
        <pt x="159" y="-109" on="1"/>
        <pt x="147" y="-186" on="1"/>
        <pt x="133" y="-189" on="0"/>
        <pt x="103" y="-189" on="0"/>
        <pt x="58" y="-174" on="0"/>
        <pt x="27" y="-127" on="0"/>
        <pt x="27" y="-75" on="0"/>
        <pt x="69" y="-20" on="0"/>
        <pt x="113" y="1" on="1"/>
        <pt x="168" y="1" on="1"/>
        <pt x="109" y="-40" on="0"/>
      </contour>
      <contour>
        <pt x="65" y="0" on="1"/>
        <pt x="181" y="732" on="1"/>
        <pt x="321" y="732" on="1"/>
        <pt x="205" y="0" on="1"/>
      </contour>
    </TTGlyph>
    <TTGlyph name="Itilde" xMin="65" yMin="0" xMax="445" yMax="925">
      <contour>
        <pt x="330" y="887" on="1"/>
        <pt x="332" y="887" on="0"/>
        <pt x="355" y="887" on="0"/>
        <pt x="415" y="912" on="0"/>
        <pt x="430" y="925" on="1"/>
        <pt x="445" y="865" on="1"/>
        <pt x="421" y="844" on="0"/>
        <pt x="392" y="821" on="0"/>
        <pt x="342" y="797" on="0"/>
        <pt x="331" y="797" on="1"/>
        <pt x="295" y="797" on="0"/>
        <pt x="231" y="832" on="0"/>
        <pt x="199" y="832" on="0"/>
        <pt x="174" y="827" on="0"/>
        <pt x="160" y="821" on="1"/>
        <pt x="142" y="813" on="0"/>
        <pt x="114" y="797" on="1"/>
        <pt x="98" y="852" on="1"/>
        <pt x="173" y="922" on="0"/>
        <pt x="230" y="922" on="1"/>
        <pt x="255" y="921" on="0"/>
        <pt x="314" y="887" on="0"/>
      </contour>
      <contour>
        <pt x="65" y="0" on="1"/>
        <pt x="181" y="732" on="1"/>
        <pt x="321" y="732" on="1"/>
        <pt x="205" y="0" on="1"/>
      </contour>
    </TTGlyph>
    <TTGlyph name="J" xMin="29" yMin="-6" xMax="428" yMax="732">
      <contour>
        <pt x="49" y="132" on="1"/>
        <pt x="80" y="130" on="0"/>
        <pt x="116" y="130" on="0"/>
        <pt x="126" y="130" on="1"/>
        <pt x="193" y="133" on="0"/>
        <pt x="207" y="226" on="1"/>
        <pt x="287" y="732" on="1"/>
        <pt x="427" y="732" on="1"/>
        <pt x="337" y="165" on="1"/>
        <pt x="320" y="53" on="0"/>
        <pt x="261" y="18" on="1"/>
        <pt x="221" y="-5" on="0"/>
        <pt x="153" y="-5" on="1"/>
        <pt x="69" y="-5" on="0"/>
        <pt x="30" y="23" on="1"/>
      </contour>
    </TTGlyph>
    <TTGlyph name="Jcircumflex" xMin="29" yMin="-6" xMax="522" yMax="933">
      <contour>
        <pt x="213" y="797" on="1"/>
        <pt x="342" y="932" on="1"/>
        <pt x="446" y="932" on="1"/>
        <pt x="522" y="797" on="1"/>
        <pt x="431" y="797" on="1"/>
        <pt x="389" y="862" on="1"/>
        <pt x="316" y="797" on="1"/>
      </contour>
      <contour>
        <pt x="49" y="132" on="1"/>
        <pt x="80" y="130" on="0"/>
        <pt x="116" y="130" on="0"/>
        <pt x="126" y="130" on="1"/>
        <pt x="193" y="133" on="0"/>
        <pt x="207" y="226" on="1"/>
        <pt x="287" y="732" on="1"/>
        <pt x="427" y="732" on="1"/>
        <pt x="337" y="165" on="1"/>
        <pt x="320" y="53" on="0"/>
        <pt x="261" y="18" on="1"/>
        <pt x="221" y="-5" on="0"/>
        <pt x="153" y="-5" on="1"/>
        <pt x="69" y="-5" on="0"/>
        <pt x="30" y="23" on="1"/>
      </contour>
    </TTGlyph>
    <TTGlyph name="K" xMin="60" yMin="0" xMax="719" yMax="732">
      <contour>
        <pt x="61" y="0" on="1"/>
        <pt x="177" y="732" on="1"/>
        <pt x="311" y="732" on="1"/>
        <pt x="263" y="426" on="1"/>
        <pt x="318" y="426" on="1"/>
        <pt x="549" y="732" on="1"/>
        <pt x="719" y="732" on="1"/>
        <pt x="440" y="355" on="1"/>
        <pt x="603" y="0" on="1"/>
        <pt x="443" y="0" on="1"/>
        <pt x="312" y="302" on="1"/>
        <pt x="244" y="302" on="1"/>
        <pt x="196" y="0" on="1"/>
      </contour>
    </TTGlyph>
    <TTGlyph name="Kcommaaccent" xMin="60" yMin="-271" xMax="719" yMax="732">
      <contour>
        <pt x="255" y="-187" on="1"/>
        <pt x="245" y="-187" on="0"/>
        <pt x="234" y="-175" on="0"/>
        <pt x="236" y="-164" on="1"/>
        <pt x="248" y="-86" on="1"/>
        <pt x="252" y="-62" on="0"/>
        <pt x="275" y="-62" on="1"/>
        <pt x="350" y="-62" on="1"/>
        <pt x="368" y="-62" on="0"/>
        <pt x="368" y="-80" on="1"/>
        <pt x="368" y="-83" on="0"/>
        <pt x="368" y="-86" on="1"/>
        <pt x="350" y="-197" on="1"/>
        <pt x="346" y="-225" on="0"/>
        <pt x="331" y="-242" on="1"/>
        <pt x="307" y="-271" on="0"/>
        <pt x="256" y="-271" on="1"/>
        <pt x="244" y="-271" on="0"/>
        <pt x="236" y="-269" on="1"/>
        <pt x="224" y="-266" on="1"/>
        <pt x="231" y="-223" on="1"/>
        <pt x="244" y="-223" on="0"/>
        <pt x="258" y="-214" on="0"/>
        <pt x="261" y="-206" on="0"/>
        <pt x="263" y="-200" on="1"/>
        <pt x="265" y="-187" on="1"/>
      </contour>
      <contour>
        <pt x="61" y="0" on="1"/>
        <pt x="177" y="732" on="1"/>
        <pt x="311" y="732" on="1"/>
        <pt x="263" y="426" on="1"/>
        <pt x="318" y="426" on="1"/>
        <pt x="549" y="732" on="1"/>
        <pt x="719" y="732" on="1"/>
        <pt x="440" y="355" on="1"/>
        <pt x="603" y="0" on="1"/>
        <pt x="443" y="0" on="1"/>
        <pt x="312" y="302" on="1"/>
        <pt x="244" y="302" on="1"/>
        <pt x="196" y="0" on="1"/>
      </contour>
    </TTGlyph>
    <TTGlyph name="L" xMin="79" yMin="0" xMax="534" yMax="732">
      <contour>
        <pt x="283" y="129" on="1"/>
        <pt x="534" y="129" on="1"/>
        <pt x="514" y="0" on="1"/>
        <pt x="212" y="0" on="1"/>
        <pt x="146" y="0" on="0"/>
        <pt x="80" y="61" on="0"/>
        <pt x="80" y="110" on="1"/>
        <pt x="80" y="125" on="0"/>
        <pt x="82" y="142" on="1"/>
        <pt x="177" y="732" on="1"/>
        <pt x="316" y="732" on="1"/>
        <pt x="229" y="181" on="1"/>
        <pt x="223" y="143" on="0"/>
        <pt x="243" y="135" on="1"/>
        <pt x="257" y="129" on="0"/>
      </contour>
    </TTGlyph>
    <TTGlyph name="Lacute" xMin="29" yMin="0" xMax="484" yMax="931">
      <contour>
        <pt x="156" y="792" on="1"/>
        <pt x="269" y="930" on="1"/>
        <pt x="391" y="930" on="1"/>
        <pt x="247" y="792" on="1"/>
      </contour>
      <contour>
        <pt x="233" y="129" on="1"/>
        <pt x="484" y="129" on="1"/>
        <pt x="463" y="0" on="1"/>
        <pt x="162" y="0" on="1"/>
        <pt x="95" y="0" on="0"/>
        <pt x="29" y="61" on="0"/>
        <pt x="29" y="110" on="1"/>
        <pt x="29" y="125" on="0"/>
        <pt x="32" y="142" on="1"/>
        <pt x="126" y="732" on="1"/>
        <pt x="266" y="732" on="1"/>
        <pt x="178" y="181" on="1"/>
        <pt x="172" y="143" on="0"/>
        <pt x="192" y="135" on="1"/>
        <pt x="207" y="129" on="0"/>
      </contour>
    </TTGlyph>
    <TTGlyph name="Lcaron" xMin="79" yMin="0" xMax="534" yMax="772">
      <contour>
        <pt x="283" y="129" on="1"/>
        <pt x="534" y="129" on="1"/>
        <pt x="514" y="0" on="1"/>
        <pt x="212" y="0" on="1"/>
        <pt x="146" y="0" on="0"/>
        <pt x="80" y="61" on="0"/>
        <pt x="80" y="110" on="1"/>
        <pt x="80" y="125" on="0"/>
        <pt x="82" y="142" on="1"/>
        <pt x="177" y="732" on="1"/>
        <pt x="316" y="732" on="1"/>
        <pt x="229" y="181" on="1"/>
        <pt x="223" y="143" on="0"/>
        <pt x="243" y="135" on="1"/>
        <pt x="257" y="129" on="0"/>
      </contour>
      <contour>
        <pt x="362" y="571" on="1"/>
        <pt x="372" y="705" on="1"/>
        <pt x="382" y="772" on="1"/>
        <pt x="478" y="772" on="1"/>
        <pt x="468" y="705" on="1"/>
        <pt x="437" y="571" on="1"/>
      </contour>
    </TTGlyph>
    <TTGlyph name="Lcommaaccent" xMin="79" yMin="-271" xMax="534" yMax="732">
      <contour>
        <pt x="236" y="-187" on="1"/>
        <pt x="226" y="-187" on="0"/>
        <pt x="215" y="-175" on="0"/>
        <pt x="217" y="-164" on="1"/>
        <pt x="229" y="-86" on="1"/>
        <pt x="233" y="-62" on="0"/>
        <pt x="255" y="-62" on="1"/>
        <pt x="331" y="-62" on="1"/>
        <pt x="349" y="-62" on="0"/>
        <pt x="349" y="-80" on="1"/>
        <pt x="349" y="-83" on="0"/>
        <pt x="349" y="-86" on="1"/>
        <pt x="331" y="-197" on="1"/>
        <pt x="327" y="-225" on="0"/>
        <pt x="312" y="-242" on="1"/>
        <pt x="288" y="-271" on="0"/>
        <pt x="237" y="-271" on="1"/>
        <pt x="225" y="-271" on="0"/>
        <pt x="217" y="-269" on="1"/>
        <pt x="205" y="-266" on="1"/>
        <pt x="212" y="-223" on="1"/>
        <pt x="231" y="-223" on="0"/>
        <pt x="236" y="-217" on="1"/>
        <pt x="242" y="-208" on="0"/>
        <pt x="244" y="-200" on="1"/>
        <pt x="246" y="-187" on="1"/>
      </contour>
      <contour>
        <pt x="283" y="129" on="1"/>
        <pt x="534" y="129" on="1"/>
        <pt x="514" y="0" on="1"/>
        <pt x="212" y="0" on="1"/>
        <pt x="146" y="0" on="0"/>
        <pt x="80" y="61" on="0"/>
        <pt x="80" y="110" on="1"/>
        <pt x="80" y="125" on="0"/>
        <pt x="82" y="142" on="1"/>
        <pt x="177" y="732" on="1"/>
        <pt x="316" y="732" on="1"/>
        <pt x="229" y="181" on="1"/>
        <pt x="223" y="143" on="0"/>
        <pt x="243" y="135" on="1"/>
        <pt x="257" y="129" on="0"/>
      </contour>
    </TTGlyph>
    <TTGlyph name="Lslash" xMin="29" yMin="0" xMax="534" yMax="733">
      <contour>
        <pt x="282" y="129" on="1"/>
        <pt x="534" y="129" on="1"/>
        <pt x="513" y="0" on="1"/>
        <pt x="212" y="0" on="1"/>
        <pt x="146" y="0" on="0"/>
        <pt x="79" y="61" on="0"/>
        <pt x="79" y="110" on="1"/>
        <pt x="79" y="125" on="0"/>
        <pt x="82" y="143" on="1"/>
        <pt x="114" y="339" on="1"/>
        <pt x="30" y="305" on="1"/>
        <pt x="41" y="377" on="1"/>
        <pt x="125" y="410" on="1"/>
        <pt x="176" y="732" on="1"/>
        <pt x="315" y="732" on="1"/>
        <pt x="274" y="470" on="1"/>
        <pt x="394" y="518" on="1"/>
        <pt x="382" y="447" on="1"/>
        <pt x="263" y="399" on="1"/>
        <pt x="228" y="181" on="1"/>
        <pt x="222" y="143" on="0"/>
        <pt x="242" y="135" on="1"/>
        <pt x="257" y="129" on="0"/>
      </contour>
    </TTGlyph>
    <TTGlyph name="M" xMin="49" yMin="0" xMax="862" yMax="732">
      <contour>
        <pt x="49" y="0" on="1"/>
        <pt x="229" y="732" on="1"/>
        <pt x="421" y="732" on="1"/>
        <pt x="465" y="232" on="1"/>
        <pt x="664" y="732" on="1"/>
        <pt x="861" y="732" on="1"/>
        <pt x="814" y="0" on="1"/>
        <pt x="675" y="0" on="1"/>
        <pt x="710" y="489" on="1"/>
        <pt x="512" y="0" on="1"/>
        <pt x="353" y="0" on="1"/>
        <pt x="308" y="489" on="1"/>
        <pt x="190" y="0" on="1"/>
      </contour>
    </TTGlyph>
    <TTGlyph name="M.salt" xMin="41" yMin="0" xMax="877" yMax="738">
      <contour>
        <pt x="215" y="694" on="1"/>
        <pt x="259" y="733" on="0"/>
        <pt x="328" y="733" on="1"/>
        <pt x="399" y="733" on="0"/>
        <pt x="433" y="692" on="1"/>
        <pt x="456" y="664" on="0"/>
        <pt x="456" y="624" on="1"/>
        <pt x="456" y="619" on="0"/>
        <pt x="456" y="615" on="1"/>
        <pt x="461" y="309" on="1"/>
        <pt x="461" y="299" on="0"/>
        <pt x="473" y="293" on="0"/>
        <pt x="487" y="301" on="0"/>
        <pt x="489" y="309" on="1"/>
        <pt x="587" y="627" on="1"/>
        <pt x="604" y="698" on="0"/>
        <pt x="678" y="725" on="1"/>
        <pt x="714" y="738" on="0"/>
        <pt x="784" y="738" on="0"/>
        <pt x="817" y="723" on="1"/>
        <pt x="876" y="697" on="0"/>
        <pt x="876" y="639" on="1"/>
        <pt x="876" y="634" on="0"/>
        <pt x="876" y="628" on="1"/>
        <pt x="818" y="0" on="1"/>
        <pt x="676" y="0" on="1"/>
        <pt x="733" y="565" on="1"/>
        <pt x="735" y="577" on="0"/>
        <pt x="710" y="577" on="0"/>
        <pt x="706" y="564" on="1"/>
        <pt x="608" y="258" on="1"/>
        <pt x="597" y="223" on="0"/>
        <pt x="533" y="174" on="0"/>
        <pt x="476" y="166" on="0"/>
        <pt x="438" y="166" on="0"/>
        <pt x="381" y="175" on="0"/>
        <pt x="332" y="228" on="0"/>
        <pt x="332" y="268" on="1"/>
        <pt x="324" y="568" on="1"/>
        <pt x="324" y="580" on="0"/>
        <pt x="312" y="579" on="1"/>
        <pt x="300" y="576" on="0"/>
        <pt x="297" y="563" on="1"/>
        <pt x="181" y="0" on="1"/>
        <pt x="42" y="0" on="1"/>
        <pt x="174" y="623" on="1"/>
        <pt x="182" y="665" on="0"/>
      </contour>
    </TTGlyph>
    <TTGlyph name="N" xMin="60" yMin="0" xMax="740" yMax="732">
      <contour>
        <pt x="61" y="0" on="1"/>
        <pt x="177" y="732" on="1"/>
        <pt x="317" y="732" on="1"/>
        <pt x="525" y="256" on="1"/>
        <pt x="600" y="732" on="1"/>
        <pt x="740" y="732" on="1"/>
        <pt x="624" y="0" on="1"/>
        <pt x="486" y="0" on="1"/>
        <pt x="276" y="470" on="1"/>
        <pt x="202" y="0" on="1"/>
      </contour>
    </TTGlyph>
    <TTGlyph name="N.salt" xMin="60" yMin="-6" xMax="783" yMax="740">
      <contour>
        <pt x="199" y="702" on="0"/>
        <pt x="253" y="730" on="0"/>
        <pt x="300" y="740" on="0"/>
        <pt x="331" y="740" on="0"/>
        <pt x="375" y="731" on="0"/>
        <pt x="425" y="705" on="0"/>
        <pt x="457" y="657" on="0"/>
        <pt x="458" y="627" on="1"/>
        <pt x="525" y="139" on="1"/>
        <pt x="525" y="130" on="0"/>
        <pt x="536" y="124" on="0"/>
        <pt x="548" y="133" on="0"/>
        <pt x="549" y="142" on="1"/>
        <pt x="643" y="732" on="1"/>
        <pt x="783" y="732" on="1"/>
        <pt x="688" y="121" on="1"/>
        <pt x="682" y="82" on="0"/>
        <pt x="658" y="52" on="1"/>
        <pt x="610" y="-6" on="0"/>
        <pt x="528" y="-6" on="1"/>
        <pt x="450" y="-6" on="0"/>
        <pt x="410" y="50" on="1"/>
        <pt x="389" y="80" on="0"/>
        <pt x="387" y="121" on="1"/>
        <pt x="322" y="606" on="1"/>
        <pt x="321" y="619" on="0"/>
        <pt x="298" y="611" on="0"/>
        <pt x="296" y="599" on="1"/>
        <pt x="201" y="0" on="1"/>
        <pt x="61" y="0" on="1"/>
        <pt x="156" y="612" on="1"/>
        <pt x="161" y="647" on="0"/>
      </contour>
    </TTGlyph>
    <TTGlyph name="Nacute" xMin="60" yMin="0" xMax="740" yMax="936">
      <contour>
        <pt x="423" y="797" on="1"/>
        <pt x="536" y="936" on="1"/>
        <pt x="658" y="936" on="1"/>
        <pt x="514" y="797" on="1"/>
      </contour>
      <contour>
        <pt x="61" y="0" on="1"/>
        <pt x="177" y="732" on="1"/>
        <pt x="317" y="732" on="1"/>
        <pt x="525" y="256" on="1"/>
        <pt x="600" y="732" on="1"/>
        <pt x="740" y="732" on="1"/>
        <pt x="624" y="0" on="1"/>
        <pt x="486" y="0" on="1"/>
        <pt x="276" y="470" on="1"/>
        <pt x="202" y="0" on="1"/>
      </contour>
    </TTGlyph>
    <TTGlyph name="Nacute.salt" xMin="60" yMin="-6" xMax="783" yMax="938">
      <contour>
        <pt x="468" y="799" on="1"/>
        <pt x="580" y="938" on="1"/>
        <pt x="703" y="938" on="1"/>
        <pt x="559" y="799" on="1"/>
      </contour>
      <contour>
        <pt x="199" y="702" on="0"/>
        <pt x="253" y="730" on="0"/>
        <pt x="300" y="740" on="0"/>
        <pt x="331" y="740" on="0"/>
        <pt x="375" y="731" on="0"/>
        <pt x="425" y="705" on="0"/>
        <pt x="457" y="657" on="0"/>
        <pt x="458" y="627" on="1"/>
        <pt x="525" y="139" on="1"/>
        <pt x="526" y="122" on="0"/>
        <pt x="540" y="127" on="1"/>
        <pt x="547" y="130" on="0"/>
        <pt x="549" y="142" on="1"/>
        <pt x="643" y="732" on="1"/>
        <pt x="783" y="732" on="1"/>
        <pt x="688" y="121" on="1"/>
        <pt x="682" y="82" on="0"/>
        <pt x="658" y="52" on="1"/>
        <pt x="610" y="-6" on="0"/>
        <pt x="528" y="-6" on="1"/>
        <pt x="450" y="-6" on="0"/>
        <pt x="410" y="50" on="1"/>
        <pt x="389" y="80" on="0"/>
        <pt x="387" y="121" on="1"/>
        <pt x="322" y="606" on="1"/>
        <pt x="321" y="619" on="0"/>
        <pt x="298" y="611" on="0"/>
        <pt x="296" y="599" on="1"/>
        <pt x="201" y="0" on="1"/>
        <pt x="61" y="0" on="1"/>
        <pt x="156" y="612" on="1"/>
        <pt x="161" y="647" on="0"/>
      </contour>
    </TTGlyph>
    <TTGlyph name="Ncaron" xMin="60" yMin="0" xMax="740" yMax="933">
      <contour>
        <pt x="336" y="932" on="1"/>
        <pt x="426" y="932" on="1"/>
        <pt x="471" y="867" on="1"/>
        <pt x="541" y="932" on="1"/>
        <pt x="644" y="932" on="1"/>
        <pt x="515" y="797" on="1"/>
        <pt x="414" y="797" on="1"/>
      </contour>
      <contour>
        <pt x="61" y="0" on="1"/>
        <pt x="177" y="732" on="1"/>
        <pt x="317" y="732" on="1"/>
        <pt x="525" y="256" on="1"/>
        <pt x="600" y="732" on="1"/>
        <pt x="740" y="732" on="1"/>
        <pt x="624" y="0" on="1"/>
        <pt x="486" y="0" on="1"/>
        <pt x="276" y="470" on="1"/>
        <pt x="202" y="0" on="1"/>
      </contour>
    </TTGlyph>
    <TTGlyph name="Ncaron.salt" xMin="60" yMin="-6" xMax="783" yMax="935">
      <contour>
        <pt x="367" y="935" on="1"/>
        <pt x="457" y="935" on="1"/>
        <pt x="502" y="869" on="1"/>
        <pt x="572" y="935" on="1"/>
        <pt x="675" y="935" on="1"/>
        <pt x="546" y="799" on="1"/>
        <pt x="445" y="799" on="1"/>
      </contour>
      <contour>
        <pt x="199" y="702" on="0"/>
        <pt x="253" y="730" on="0"/>
        <pt x="300" y="740" on="0"/>
        <pt x="331" y="740" on="0"/>
        <pt x="375" y="731" on="0"/>
        <pt x="425" y="705" on="0"/>
        <pt x="457" y="657" on="0"/>
        <pt x="458" y="627" on="1"/>
        <pt x="525" y="139" on="1"/>
        <pt x="526" y="122" on="0"/>
        <pt x="540" y="127" on="1"/>
        <pt x="547" y="130" on="0"/>
        <pt x="549" y="142" on="1"/>
        <pt x="643" y="732" on="1"/>
        <pt x="783" y="732" on="1"/>
        <pt x="688" y="121" on="1"/>
        <pt x="682" y="82" on="0"/>
        <pt x="658" y="52" on="1"/>
        <pt x="610" y="-6" on="0"/>
        <pt x="528" y="-6" on="1"/>
        <pt x="450" y="-6" on="0"/>
        <pt x="410" y="50" on="1"/>
        <pt x="389" y="80" on="0"/>
        <pt x="387" y="121" on="1"/>
        <pt x="322" y="606" on="1"/>
        <pt x="321" y="619" on="0"/>
        <pt x="298" y="611" on="0"/>
        <pt x="296" y="599" on="1"/>
        <pt x="201" y="0" on="1"/>
        <pt x="61" y="0" on="1"/>
        <pt x="156" y="612" on="1"/>
        <pt x="161" y="647" on="0"/>
      </contour>
    </TTGlyph>
    <TTGlyph name="Ncommaaccent" xMin="60" yMin="-271" xMax="740" yMax="732">
      <contour>
        <pt x="289" y="-187" on="1"/>
        <pt x="279" y="-187" on="0"/>
        <pt x="269" y="-175" on="0"/>
        <pt x="270" y="-164" on="1"/>
        <pt x="283" y="-86" on="1"/>
        <pt x="287" y="-62" on="0"/>
        <pt x="309" y="-62" on="1"/>
        <pt x="385" y="-62" on="1"/>
        <pt x="403" y="-62" on="0"/>
        <pt x="403" y="-80" on="1"/>
        <pt x="403" y="-83" on="0"/>
        <pt x="402" y="-86" on="1"/>
        <pt x="385" y="-197" on="1"/>
        <pt x="380" y="-225" on="0"/>
        <pt x="366" y="-242" on="1"/>
        <pt x="342" y="-271" on="0"/>
        <pt x="290" y="-271" on="1"/>
        <pt x="279" y="-271" on="0"/>
        <pt x="270" y="-269" on="1"/>
        <pt x="259" y="-266" on="1"/>
        <pt x="266" y="-223" on="1"/>
        <pt x="291" y="-223" on="0"/>
        <pt x="296" y="-206" on="1"/>
        <pt x="296" y="-204" on="0"/>
        <pt x="297" y="-200" on="1"/>
        <pt x="299" y="-187" on="1"/>
      </contour>
      <contour>
        <pt x="61" y="0" on="1"/>
        <pt x="177" y="732" on="1"/>
        <pt x="317" y="732" on="1"/>
        <pt x="525" y="256" on="1"/>
        <pt x="600" y="732" on="1"/>
        <pt x="740" y="732" on="1"/>
        <pt x="624" y="0" on="1"/>
        <pt x="486" y="0" on="1"/>
        <pt x="276" y="470" on="1"/>
        <pt x="202" y="0" on="1"/>
      </contour>
    </TTGlyph>
    <TTGlyph name="Ncommaaccent.salt" xMin="60" yMin="-294" xMax="783" yMax="740">
      <contour>
        <pt x="309" y="-204" on="1"/>
        <pt x="298" y="-204" on="0"/>
        <pt x="286" y="-192" on="0"/>
        <pt x="289" y="-181" on="1"/>
        <pt x="301" y="-97" on="1"/>
        <pt x="306" y="-72" on="0"/>
        <pt x="330" y="-72" on="1"/>
        <pt x="410" y="-72" on="1"/>
        <pt x="429" y="-72" on="0"/>
        <pt x="429" y="-91" on="1"/>
        <pt x="429" y="-94" on="0"/>
        <pt x="428" y="-97" on="1"/>
        <pt x="410" y="-215" on="1"/>
        <pt x="405" y="-245" on="0"/>
        <pt x="374" y="-282" on="0"/>
        <pt x="355" y="-287" on="1"/>
        <pt x="332" y="-293" on="0"/>
        <pt x="297" y="-293" on="0"/>
        <pt x="288" y="-291" on="1"/>
        <pt x="276" y="-288" on="1"/>
        <pt x="283" y="-242" on="1"/>
        <pt x="304" y="-243" on="0"/>
        <pt x="309" y="-236" on="1"/>
        <pt x="315" y="-227" on="0"/>
        <pt x="317" y="-218" on="1"/>
        <pt x="319" y="-204" on="1"/>
      </contour>
      <contour>
        <pt x="199" y="702" on="0"/>
        <pt x="253" y="730" on="0"/>
        <pt x="300" y="740" on="0"/>
        <pt x="331" y="740" on="0"/>
        <pt x="375" y="731" on="0"/>
        <pt x="425" y="705" on="0"/>
        <pt x="457" y="657" on="0"/>
        <pt x="458" y="627" on="1"/>
        <pt x="525" y="139" on="1"/>
        <pt x="526" y="122" on="0"/>
        <pt x="540" y="127" on="1"/>
        <pt x="547" y="130" on="0"/>
        <pt x="549" y="142" on="1"/>
        <pt x="643" y="732" on="1"/>
        <pt x="783" y="732" on="1"/>
        <pt x="688" y="121" on="1"/>
        <pt x="682" y="82" on="0"/>
        <pt x="658" y="52" on="1"/>
        <pt x="610" y="-6" on="0"/>
        <pt x="528" y="-6" on="1"/>
        <pt x="450" y="-6" on="0"/>
        <pt x="410" y="50" on="1"/>
        <pt x="389" y="80" on="0"/>
        <pt x="387" y="121" on="1"/>
        <pt x="322" y="606" on="1"/>
        <pt x="321" y="619" on="0"/>
        <pt x="298" y="611" on="0"/>
        <pt x="296" y="599" on="1"/>
        <pt x="201" y="0" on="1"/>
        <pt x="61" y="0" on="1"/>
        <pt x="156" y="612" on="1"/>
        <pt x="161" y="647" on="0"/>
      </contour>
    </TTGlyph>
    <TTGlyph name="Ntilde" xMin="60" yMin="0" xMax="740" yMax="923">
      <contour>
        <pt x="534" y="885" on="1"/>
        <pt x="536" y="885" on="0"/>
        <pt x="559" y="885" on="0"/>
        <pt x="619" y="910" on="0"/>
        <pt x="634" y="922" on="1"/>
        <pt x="648" y="863" on="1"/>
        <pt x="625" y="842" on="0"/>
        <pt x="596" y="819" on="0"/>
        <pt x="546" y="795" on="0"/>
        <pt x="535" y="795" on="1"/>
        <pt x="498" y="795" on="0"/>
        <pt x="435" y="830" on="0"/>
        <pt x="398" y="830" on="0"/>
        <pt x="380" y="824" on="1"/>
        <pt x="356" y="817" on="0"/>
        <pt x="318" y="795" on="1"/>
        <pt x="302" y="850" on="1"/>
        <pt x="377" y="920" on="0"/>
        <pt x="434" y="920" on="1"/>
        <pt x="459" y="919" on="0"/>
        <pt x="518" y="885" on="0"/>
      </contour>
      <contour>
        <pt x="61" y="0" on="1"/>
        <pt x="177" y="732" on="1"/>
        <pt x="317" y="732" on="1"/>
        <pt x="525" y="256" on="1"/>
        <pt x="600" y="732" on="1"/>
        <pt x="740" y="732" on="1"/>
        <pt x="624" y="0" on="1"/>
        <pt x="486" y="0" on="1"/>
        <pt x="276" y="470" on="1"/>
        <pt x="202" y="0" on="1"/>
      </contour>
    </TTGlyph>
    <TTGlyph name="Ntilde.salt" xMin="60" yMin="-6" xMax="783" yMax="925">
      <contour>
        <pt x="536" y="887" on="1"/>
        <pt x="537" y="887" on="0"/>
        <pt x="561" y="887" on="0"/>
        <pt x="621" y="912" on="0"/>
        <pt x="636" y="925" on="1"/>
        <pt x="650" y="865" on="1"/>
        <pt x="627" y="844" on="0"/>
        <pt x="598" y="821" on="0"/>
        <pt x="548" y="797" on="0"/>
        <pt x="537" y="797" on="1"/>
        <pt x="500" y="797" on="0"/>
        <pt x="437" y="832" on="0"/>
        <pt x="400" y="832" on="0"/>
        <pt x="381" y="826" on="1"/>
        <pt x="358" y="819" on="0"/>
        <pt x="319" y="797" on="1"/>
        <pt x="304" y="852" on="1"/>
        <pt x="379" y="922" on="0"/>
        <pt x="436" y="922" on="1"/>
        <pt x="460" y="921" on="0"/>
        <pt x="520" y="887" on="0"/>
      </contour>
      <contour>
        <pt x="199" y="702" on="0"/>
        <pt x="253" y="730" on="0"/>
        <pt x="300" y="740" on="0"/>
        <pt x="331" y="740" on="0"/>
        <pt x="375" y="731" on="0"/>
        <pt x="425" y="705" on="0"/>
        <pt x="457" y="657" on="0"/>
        <pt x="458" y="627" on="1"/>
        <pt x="525" y="139" on="1"/>
        <pt x="526" y="122" on="0"/>
        <pt x="540" y="127" on="1"/>
        <pt x="547" y="130" on="0"/>
        <pt x="549" y="142" on="1"/>
        <pt x="643" y="732" on="1"/>
        <pt x="783" y="732" on="1"/>
        <pt x="688" y="121" on="1"/>
        <pt x="682" y="82" on="0"/>
        <pt x="658" y="52" on="1"/>
        <pt x="610" y="-6" on="0"/>
        <pt x="528" y="-6" on="1"/>
        <pt x="450" y="-6" on="0"/>
        <pt x="410" y="50" on="1"/>
        <pt x="389" y="80" on="0"/>
        <pt x="387" y="121" on="1"/>
        <pt x="322" y="606" on="1"/>
        <pt x="321" y="619" on="0"/>
        <pt x="298" y="611" on="0"/>
        <pt x="296" y="599" on="1"/>
        <pt x="201" y="0" on="1"/>
        <pt x="61" y="0" on="1"/>
        <pt x="156" y="612" on="1"/>
        <pt x="161" y="647" on="0"/>
      </contour>
    </TTGlyph>
    <TTGlyph name="O" xMin="91" yMin="-4" xMax="704" yMax="737">
      <contour>
        <pt x="374" y="735" on="0"/>
        <pt x="420" y="737" on="0"/>
        <pt x="492" y="737" on="0"/>
        <pt x="554" y="729" on="0"/>
        <pt x="615" y="708" on="0"/>
        <pt x="636" y="690" on="1"/>
        <pt x="684" y="649" on="0"/>
        <pt x="697" y="572" on="1"/>
        <pt x="704" y="537" on="0"/>
        <pt x="704" y="482" on="0"/>
        <pt x="702" y="418" on="0"/>
        <pt x="681" y="279" on="0"/>
        <pt x="650" y="173" on="0"/>
        <pt x="614" y="99" on="0"/>
        <pt x="564" y="48" on="0"/>
        <pt x="515" y="17" on="0"/>
        <pt x="481" y="9" on="1"/>
        <pt x="426" y="-4" on="0"/>
        <pt x="304" y="-4" on="0"/>
        <pt x="243" y="3" on="0"/>
        <pt x="181" y="23" on="0"/>
        <pt x="160" y="40" on="1"/>
        <pt x="111" y="80" on="0"/>
        <pt x="98" y="154" on="1"/>
        <pt x="91" y="189" on="0"/>
        <pt x="91" y="242" on="0"/>
        <pt x="92" y="305" on="0"/>
        <pt x="112" y="431" on="0"/>
        <pt x="136" y="524" on="0"/>
        <pt x="162" y="594" on="0"/>
        <pt x="198" y="648" on="0"/>
        <pt x="231" y="686" on="0"/>
        <pt x="278" y="712" on="0"/>
        <pt x="318" y="727" on="0"/>
      </contour>
      <contour>
        <pt x="232" y="231" on="1"/>
        <pt x="232" y="172" on="0"/>
        <pt x="257" y="150" on="1"/>
        <pt x="288" y="125" on="0"/>
        <pt x="360" y="125" on="1"/>
        <pt x="427" y="125" on="0"/>
        <pt x="466" y="151" on="1"/>
        <pt x="524" y="191" on="0"/>
        <pt x="551" y="361" on="1"/>
        <pt x="563" y="435" on="0"/>
        <pt x="563" y="523" on="0"/>
        <pt x="551" y="573" on="0"/>
        <pt x="514" y="600" on="0"/>
        <pt x="473" y="608" on="0"/>
        <pt x="410" y="608" on="0"/>
        <pt x="377" y="605" on="0"/>
        <pt x="339" y="595" on="0"/>
        <pt x="314" y="574" on="0"/>
        <pt x="301" y="556" on="1"/>
        <pt x="279" y="527" on="0"/>
        <pt x="232" y="329" on="0"/>
      </contour>
    </TTGlyph>
    <TTGlyph name="OE" xMin="74" yMin="-4" xMax="1068" yMax="737">
      <contour>
        <pt x="643" y="-3" on="1"/>
        <pt x="570" y="-3" on="0"/>
        <pt x="536" y="44" on="1"/>
        <pt x="497" y="16" on="0"/>
        <pt x="398" y="-4" on="0"/>
        <pt x="287" y="-4" on="0"/>
        <pt x="227" y="3" on="0"/>
        <pt x="165" y="23" on="0"/>
        <pt x="144" y="40" on="1"/>
        <pt x="95" y="80" on="0"/>
        <pt x="81" y="154" on="1"/>
        <pt x="75" y="189" on="0"/>
        <pt x="75" y="242" on="0"/>
        <pt x="76" y="305" on="0"/>
        <pt x="96" y="431" on="0"/>
        <pt x="120" y="524" on="0"/>
        <pt x="146" y="594" on="0"/>
        <pt x="181" y="648" on="0"/>
        <pt x="215" y="686" on="0"/>
        <pt x="261" y="712" on="0"/>
        <pt x="301" y="727" on="0"/>
        <pt x="329" y="731" on="1"/>
        <pt x="373" y="737" on="0"/>
        <pt x="501" y="737" on="0"/>
        <pt x="593" y="713" on="0"/>
        <pt x="622" y="681" on="1"/>
        <pt x="661" y="732" on="0"/>
        <pt x="743" y="732" on="1"/>
        <pt x="751" y="732" on="0"/>
        <pt x="1005" y="725" on="0"/>
        <pt x="1068" y="716" on="1"/>
        <pt x="1050" y="600" on="1"/>
        <pt x="771" y="600" on="1"/>
        <pt x="738" y="600" on="0"/>
        <pt x="714" y="571" on="0"/>
        <pt x="710" y="544" on="1"/>
        <pt x="693" y="432" on="1"/>
        <pt x="975" y="422" on="1"/>
        <pt x="958" y="307" on="1"/>
        <pt x="672" y="297" on="1"/>
        <pt x="653" y="181" on="1"/>
        <pt x="648" y="149" on="0"/>
        <pt x="660" y="140" on="1"/>
        <pt x="664" y="137" on="0"/>
        <pt x="668" y="133" on="0"/>
        <pt x="678" y="131" on="0"/>
        <pt x="683" y="129" on="0"/>
        <pt x="689" y="129" on="1"/>
        <pt x="697" y="129" on="0"/>
        <pt x="707" y="129" on="1"/>
        <pt x="975" y="129" on="1"/>
        <pt x="957" y="14" on="1"/>
        <pt x="901" y="7" on="0"/>
        <pt x="667" y="-2" on="1"/>
        <pt x="653" y="-3" on="1"/>
        <pt x="648" y="-3" on="0"/>
      </contour>
      <contour>
        <pt x="215" y="231" on="1"/>
        <pt x="215" y="172" on="0"/>
        <pt x="241" y="150" on="1"/>
        <pt x="271" y="125" on="0"/>
        <pt x="343" y="125" on="1"/>
        <pt x="411" y="125" on="0"/>
        <pt x="449" y="151" on="1"/>
        <pt x="508" y="191" on="0"/>
        <pt x="535" y="361" on="1"/>
        <pt x="547" y="435" on="0"/>
        <pt x="547" y="523" on="0"/>
        <pt x="535" y="573" on="0"/>
        <pt x="497" y="600" on="0"/>
        <pt x="456" y="608" on="0"/>
        <pt x="394" y="608" on="0"/>
        <pt x="360" y="605" on="0"/>
        <pt x="322" y="595" on="0"/>
        <pt x="298" y="574" on="0"/>
        <pt x="285" y="556" on="1"/>
        <pt x="263" y="527" on="0"/>
        <pt x="215" y="329" on="0"/>
      </contour>
    </TTGlyph>
    <TTGlyph name="Oacute" xMin="91" yMin="-4" xMax="704" yMax="936">
      <contour>
        <pt x="416" y="797" on="1"/>
        <pt x="529" y="936" on="1"/>
        <pt x="652" y="936" on="1"/>
        <pt x="507" y="797" on="1"/>
      </contour>
      <contour>
        <pt x="374" y="735" on="0"/>
        <pt x="420" y="737" on="0"/>
        <pt x="492" y="737" on="0"/>
        <pt x="554" y="729" on="0"/>
        <pt x="615" y="708" on="0"/>
        <pt x="636" y="690" on="1"/>
        <pt x="684" y="649" on="0"/>
        <pt x="697" y="572" on="1"/>
        <pt x="704" y="537" on="0"/>
        <pt x="704" y="482" on="0"/>
        <pt x="702" y="418" on="0"/>
        <pt x="681" y="279" on="0"/>
        <pt x="650" y="173" on="0"/>
        <pt x="614" y="99" on="0"/>
        <pt x="564" y="48" on="0"/>
        <pt x="515" y="17" on="0"/>
        <pt x="481" y="9" on="1"/>
        <pt x="426" y="-4" on="0"/>
        <pt x="304" y="-4" on="0"/>
        <pt x="243" y="3" on="0"/>
        <pt x="181" y="23" on="0"/>
        <pt x="160" y="40" on="1"/>
        <pt x="111" y="80" on="0"/>
        <pt x="98" y="154" on="1"/>
        <pt x="91" y="189" on="0"/>
        <pt x="91" y="242" on="0"/>
        <pt x="92" y="305" on="0"/>
        <pt x="112" y="431" on="0"/>
        <pt x="136" y="524" on="0"/>
        <pt x="162" y="594" on="0"/>
        <pt x="198" y="648" on="0"/>
        <pt x="231" y="686" on="0"/>
        <pt x="278" y="712" on="0"/>
        <pt x="318" y="727" on="0"/>
      </contour>
      <contour>
        <pt x="232" y="231" on="1"/>
        <pt x="232" y="172" on="0"/>
        <pt x="257" y="150" on="1"/>
        <pt x="288" y="125" on="0"/>
        <pt x="360" y="125" on="1"/>
        <pt x="427" y="125" on="0"/>
        <pt x="466" y="151" on="1"/>
        <pt x="524" y="191" on="0"/>
        <pt x="551" y="361" on="1"/>
        <pt x="563" y="435" on="0"/>
        <pt x="563" y="523" on="0"/>
        <pt x="551" y="573" on="0"/>
        <pt x="514" y="600" on="0"/>
        <pt x="473" y="608" on="0"/>
        <pt x="410" y="608" on="0"/>
        <pt x="377" y="605" on="0"/>
        <pt x="339" y="595" on="0"/>
        <pt x="314" y="574" on="0"/>
        <pt x="301" y="556" on="1"/>
        <pt x="279" y="527" on="0"/>
        <pt x="232" y="329" on="0"/>
      </contour>
    </TTGlyph>
    <TTGlyph name="Ocircumflex" xMin="91" yMin="-4" xMax="704" yMax="933">
      <contour>
        <pt x="308" y="797" on="1"/>
        <pt x="437" y="932" on="1"/>
        <pt x="541" y="932" on="1"/>
        <pt x="616" y="797" on="1"/>
        <pt x="526" y="797" on="1"/>
        <pt x="484" y="862" on="1"/>
        <pt x="411" y="797" on="1"/>
      </contour>
      <contour>
        <pt x="374" y="735" on="0"/>
        <pt x="420" y="737" on="0"/>
        <pt x="492" y="737" on="0"/>
        <pt x="554" y="729" on="0"/>
        <pt x="615" y="708" on="0"/>
        <pt x="636" y="690" on="1"/>
        <pt x="684" y="649" on="0"/>
        <pt x="697" y="572" on="1"/>
        <pt x="704" y="537" on="0"/>
        <pt x="704" y="482" on="0"/>
        <pt x="702" y="418" on="0"/>
        <pt x="681" y="279" on="0"/>
        <pt x="650" y="173" on="0"/>
        <pt x="614" y="99" on="0"/>
        <pt x="564" y="48" on="0"/>
        <pt x="515" y="17" on="0"/>
        <pt x="481" y="9" on="1"/>
        <pt x="426" y="-4" on="0"/>
        <pt x="304" y="-4" on="0"/>
        <pt x="243" y="3" on="0"/>
        <pt x="181" y="23" on="0"/>
        <pt x="160" y="40" on="1"/>
        <pt x="111" y="80" on="0"/>
        <pt x="98" y="154" on="1"/>
        <pt x="91" y="189" on="0"/>
        <pt x="91" y="242" on="0"/>
        <pt x="92" y="305" on="0"/>
        <pt x="112" y="431" on="0"/>
        <pt x="136" y="524" on="0"/>
        <pt x="162" y="594" on="0"/>
        <pt x="198" y="648" on="0"/>
        <pt x="231" y="686" on="0"/>
        <pt x="278" y="712" on="0"/>
        <pt x="318" y="727" on="0"/>
      </contour>
      <contour>
        <pt x="232" y="231" on="1"/>
        <pt x="232" y="172" on="0"/>
        <pt x="257" y="150" on="1"/>
        <pt x="288" y="125" on="0"/>
        <pt x="360" y="125" on="1"/>
        <pt x="427" y="125" on="0"/>
        <pt x="466" y="151" on="1"/>
        <pt x="524" y="191" on="0"/>
        <pt x="551" y="361" on="1"/>
        <pt x="563" y="435" on="0"/>
        <pt x="563" y="523" on="0"/>
        <pt x="551" y="573" on="0"/>
        <pt x="514" y="600" on="0"/>
        <pt x="473" y="608" on="0"/>
        <pt x="410" y="608" on="0"/>
        <pt x="377" y="605" on="0"/>
        <pt x="339" y="595" on="0"/>
        <pt x="314" y="574" on="0"/>
        <pt x="301" y="556" on="1"/>
        <pt x="279" y="527" on="0"/>
        <pt x="232" y="329" on="0"/>
      </contour>
    </TTGlyph>
    <TTGlyph name="Odieresis" xMin="91" yMin="-4" xMax="704" yMax="915">
      <contour>
        <pt x="330" y="914" on="0"/>
        <pt x="378" y="914" on="0"/>
        <pt x="404" y="884" on="0"/>
        <pt x="404" y="873" on="1"/>
        <pt x="404" y="836" on="0"/>
        <pt x="360" y="797" on="0"/>
        <pt x="311" y="797" on="0"/>
        <pt x="285" y="828" on="0"/>
        <pt x="285" y="840" on="1"/>
        <pt x="285" y="877" on="0"/>
      </contour>
      <contour>
        <pt x="585" y="914" on="0"/>
        <pt x="633" y="914" on="0"/>
        <pt x="659" y="884" on="0"/>
        <pt x="659" y="873" on="1"/>
        <pt x="659" y="836" on="0"/>
        <pt x="615" y="797" on="0"/>
        <pt x="566" y="797" on="0"/>
        <pt x="540" y="828" on="0"/>
        <pt x="540" y="840" on="1"/>
        <pt x="540" y="877" on="0"/>
      </contour>
      <contour>
        <pt x="374" y="735" on="0"/>
        <pt x="420" y="737" on="0"/>
        <pt x="492" y="737" on="0"/>
        <pt x="554" y="729" on="0"/>
        <pt x="615" y="708" on="0"/>
        <pt x="636" y="690" on="1"/>
        <pt x="684" y="649" on="0"/>
        <pt x="697" y="572" on="1"/>
        <pt x="704" y="537" on="0"/>
        <pt x="704" y="482" on="0"/>
        <pt x="702" y="418" on="0"/>
        <pt x="681" y="279" on="0"/>
        <pt x="650" y="173" on="0"/>
        <pt x="614" y="99" on="0"/>
        <pt x="564" y="48" on="0"/>
        <pt x="515" y="17" on="0"/>
        <pt x="481" y="9" on="1"/>
        <pt x="426" y="-4" on="0"/>
        <pt x="304" y="-4" on="0"/>
        <pt x="243" y="3" on="0"/>
        <pt x="181" y="23" on="0"/>
        <pt x="160" y="40" on="1"/>
        <pt x="111" y="80" on="0"/>
        <pt x="98" y="154" on="1"/>
        <pt x="91" y="189" on="0"/>
        <pt x="91" y="242" on="0"/>
        <pt x="92" y="305" on="0"/>
        <pt x="112" y="431" on="0"/>
        <pt x="136" y="524" on="0"/>
        <pt x="162" y="594" on="0"/>
        <pt x="198" y="648" on="0"/>
        <pt x="231" y="686" on="0"/>
        <pt x="278" y="712" on="0"/>
        <pt x="318" y="727" on="0"/>
      </contour>
      <contour>
        <pt x="232" y="231" on="1"/>
        <pt x="232" y="172" on="0"/>
        <pt x="257" y="150" on="1"/>
        <pt x="288" y="125" on="0"/>
        <pt x="360" y="125" on="1"/>
        <pt x="427" y="125" on="0"/>
        <pt x="466" y="151" on="1"/>
        <pt x="524" y="191" on="0"/>
        <pt x="551" y="361" on="1"/>
        <pt x="563" y="435" on="0"/>
        <pt x="563" y="523" on="0"/>
        <pt x="551" y="573" on="0"/>
        <pt x="514" y="600" on="0"/>
        <pt x="473" y="608" on="0"/>
        <pt x="410" y="608" on="0"/>
        <pt x="377" y="605" on="0"/>
        <pt x="339" y="595" on="0"/>
        <pt x="314" y="574" on="0"/>
        <pt x="301" y="556" on="1"/>
        <pt x="279" y="527" on="0"/>
        <pt x="232" y="329" on="0"/>
      </contour>
    </TTGlyph>
    <TTGlyph name="Ograve" xMin="91" yMin="-4" xMax="704" yMax="936">
      <contour>
        <pt x="311" y="936" on="1"/>
        <pt x="430" y="936" on="1"/>
        <pt x="507" y="797" on="1"/>
        <pt x="416" y="797" on="1"/>
      </contour>
      <contour>
        <pt x="374" y="735" on="0"/>
        <pt x="420" y="737" on="0"/>
        <pt x="492" y="737" on="0"/>
        <pt x="554" y="729" on="0"/>
        <pt x="615" y="708" on="0"/>
        <pt x="636" y="690" on="1"/>
        <pt x="684" y="649" on="0"/>
        <pt x="697" y="572" on="1"/>
        <pt x="704" y="537" on="0"/>
        <pt x="704" y="482" on="0"/>
        <pt x="702" y="418" on="0"/>
        <pt x="681" y="279" on="0"/>
        <pt x="650" y="173" on="0"/>
        <pt x="614" y="99" on="0"/>
        <pt x="564" y="48" on="0"/>
        <pt x="515" y="17" on="0"/>
        <pt x="481" y="9" on="1"/>
        <pt x="426" y="-4" on="0"/>
        <pt x="304" y="-4" on="0"/>
        <pt x="243" y="3" on="0"/>
        <pt x="181" y="23" on="0"/>
        <pt x="160" y="40" on="1"/>
        <pt x="111" y="80" on="0"/>
        <pt x="98" y="154" on="1"/>
        <pt x="91" y="189" on="0"/>
        <pt x="91" y="242" on="0"/>
        <pt x="92" y="305" on="0"/>
        <pt x="112" y="431" on="0"/>
        <pt x="136" y="524" on="0"/>
        <pt x="162" y="594" on="0"/>
        <pt x="198" y="648" on="0"/>
        <pt x="231" y="686" on="0"/>
        <pt x="278" y="712" on="0"/>
        <pt x="318" y="727" on="0"/>
      </contour>
      <contour>
        <pt x="232" y="231" on="1"/>
        <pt x="232" y="172" on="0"/>
        <pt x="257" y="150" on="1"/>
        <pt x="288" y="125" on="0"/>
        <pt x="360" y="125" on="1"/>
        <pt x="427" y="125" on="0"/>
        <pt x="466" y="151" on="1"/>
        <pt x="524" y="191" on="0"/>
        <pt x="551" y="361" on="1"/>
        <pt x="563" y="435" on="0"/>
        <pt x="563" y="523" on="0"/>
        <pt x="551" y="573" on="0"/>
        <pt x="514" y="600" on="0"/>
        <pt x="473" y="608" on="0"/>
        <pt x="410" y="608" on="0"/>
        <pt x="377" y="605" on="0"/>
        <pt x="339" y="595" on="0"/>
        <pt x="314" y="574" on="0"/>
        <pt x="301" y="556" on="1"/>
        <pt x="279" y="527" on="0"/>
        <pt x="232" y="329" on="0"/>
      </contour>
    </TTGlyph>
    <TTGlyph name="Ohungarumlaut" xMin="91" yMin="-4" xMax="730" yMax="936">
      <contour>
        <pt x="339" y="797" on="1"/>
        <pt x="451" y="936" on="1"/>
        <pt x="574" y="936" on="1"/>
        <pt x="430" y="797" on="1"/>
      </contour>
      <contour>
        <pt x="495" y="797" on="1"/>
        <pt x="607" y="936" on="1"/>
        <pt x="730" y="936" on="1"/>
        <pt x="586" y="797" on="1"/>
      </contour>
      <contour>
        <pt x="374" y="735" on="0"/>
        <pt x="420" y="737" on="0"/>
        <pt x="492" y="737" on="0"/>
        <pt x="554" y="729" on="0"/>
        <pt x="615" y="708" on="0"/>
        <pt x="636" y="690" on="1"/>
        <pt x="684" y="649" on="0"/>
        <pt x="697" y="572" on="1"/>
        <pt x="704" y="537" on="0"/>
        <pt x="704" y="482" on="0"/>
        <pt x="702" y="418" on="0"/>
        <pt x="681" y="279" on="0"/>
        <pt x="650" y="173" on="0"/>
        <pt x="614" y="99" on="0"/>
        <pt x="564" y="48" on="0"/>
        <pt x="515" y="17" on="0"/>
        <pt x="481" y="9" on="1"/>
        <pt x="426" y="-4" on="0"/>
        <pt x="304" y="-4" on="0"/>
        <pt x="243" y="3" on="0"/>
        <pt x="181" y="23" on="0"/>
        <pt x="160" y="40" on="1"/>
        <pt x="111" y="80" on="0"/>
        <pt x="98" y="154" on="1"/>
        <pt x="91" y="189" on="0"/>
        <pt x="91" y="242" on="0"/>
        <pt x="92" y="305" on="0"/>
        <pt x="112" y="431" on="0"/>
        <pt x="136" y="524" on="0"/>
        <pt x="162" y="594" on="0"/>
        <pt x="198" y="648" on="0"/>
        <pt x="231" y="686" on="0"/>
        <pt x="278" y="712" on="0"/>
        <pt x="318" y="727" on="0"/>
      </contour>
      <contour>
        <pt x="232" y="231" on="1"/>
        <pt x="232" y="172" on="0"/>
        <pt x="257" y="150" on="1"/>
        <pt x="288" y="125" on="0"/>
        <pt x="360" y="125" on="1"/>
        <pt x="427" y="125" on="0"/>
        <pt x="466" y="151" on="1"/>
        <pt x="524" y="191" on="0"/>
        <pt x="551" y="361" on="1"/>
        <pt x="563" y="435" on="0"/>
        <pt x="563" y="523" on="0"/>
        <pt x="551" y="573" on="0"/>
        <pt x="514" y="600" on="0"/>
        <pt x="473" y="608" on="0"/>
        <pt x="410" y="608" on="0"/>
        <pt x="377" y="605" on="0"/>
        <pt x="339" y="595" on="0"/>
        <pt x="314" y="574" on="0"/>
        <pt x="301" y="556" on="1"/>
        <pt x="279" y="527" on="0"/>
        <pt x="232" y="329" on="0"/>
      </contour>
    </TTGlyph>
    <TTGlyph name="Omacron" xMin="91" yMin="-4" xMax="704" yMax="875">
      <contour>
        <pt x="320" y="795" on="1"/>
        <pt x="332" y="874" on="1"/>
        <pt x="624" y="874" on="1"/>
        <pt x="612" y="795" on="1"/>
      </contour>
      <contour>
        <pt x="374" y="735" on="0"/>
        <pt x="420" y="737" on="0"/>
        <pt x="492" y="737" on="0"/>
        <pt x="554" y="729" on="0"/>
        <pt x="615" y="708" on="0"/>
        <pt x="636" y="690" on="1"/>
        <pt x="684" y="649" on="0"/>
        <pt x="697" y="572" on="1"/>
        <pt x="704" y="537" on="0"/>
        <pt x="704" y="482" on="0"/>
        <pt x="702" y="418" on="0"/>
        <pt x="681" y="279" on="0"/>
        <pt x="650" y="173" on="0"/>
        <pt x="614" y="99" on="0"/>
        <pt x="564" y="48" on="0"/>
        <pt x="515" y="17" on="0"/>
        <pt x="481" y="9" on="1"/>
        <pt x="426" y="-4" on="0"/>
        <pt x="304" y="-4" on="0"/>
        <pt x="243" y="3" on="0"/>
        <pt x="181" y="23" on="0"/>
        <pt x="160" y="40" on="1"/>
        <pt x="111" y="80" on="0"/>
        <pt x="98" y="154" on="1"/>
        <pt x="91" y="189" on="0"/>
        <pt x="91" y="242" on="0"/>
        <pt x="92" y="305" on="0"/>
        <pt x="112" y="431" on="0"/>
        <pt x="136" y="524" on="0"/>
        <pt x="162" y="594" on="0"/>
        <pt x="198" y="648" on="0"/>
        <pt x="231" y="686" on="0"/>
        <pt x="278" y="712" on="0"/>
        <pt x="318" y="727" on="0"/>
      </contour>
      <contour>
        <pt x="232" y="231" on="1"/>
        <pt x="232" y="172" on="0"/>
        <pt x="257" y="150" on="1"/>
        <pt x="288" y="125" on="0"/>
        <pt x="360" y="125" on="1"/>
        <pt x="427" y="125" on="0"/>
        <pt x="466" y="151" on="1"/>
        <pt x="524" y="191" on="0"/>
        <pt x="551" y="361" on="1"/>
        <pt x="563" y="435" on="0"/>
        <pt x="563" y="523" on="0"/>
        <pt x="551" y="573" on="0"/>
        <pt x="514" y="600" on="0"/>
        <pt x="473" y="608" on="0"/>
        <pt x="410" y="608" on="0"/>
        <pt x="377" y="605" on="0"/>
        <pt x="339" y="595" on="0"/>
        <pt x="314" y="574" on="0"/>
        <pt x="301" y="556" on="1"/>
        <pt x="279" y="527" on="0"/>
        <pt x="232" y="329" on="0"/>
      </contour>
    </TTGlyph>
    <TTGlyph name="Omega" xMin="55" yMin="0" xMax="777" yMax="740">
      <contour>
        <pt x="240" y="284" on="1"/>
        <pt x="240" y="205" on="0"/>
        <pt x="318" y="128" on="1"/>
        <pt x="297" y="0" on="1"/>
        <pt x="55" y="0" on="1"/>
        <pt x="74" y="118" on="1"/>
        <pt x="187" y="128" on="1"/>
        <pt x="104" y="192" on="0"/>
        <pt x="104" y="324" on="1"/>
        <pt x="104" y="482" on="0"/>
        <pt x="183" y="595" on="1"/>
        <pt x="213" y="639" on="0"/>
        <pt x="295" y="701" on="0"/>
        <pt x="418" y="739" on="0"/>
        <pt x="563" y="739" on="0"/>
        <pt x="671" y="701" on="0"/>
        <pt x="703" y="668" on="1"/>
        <pt x="777" y="592" on="0"/>
        <pt x="777" y="474" on="1"/>
        <pt x="777" y="432" on="0"/>
        <pt x="771" y="389" on="1"/>
        <pt x="756" y="297" on="0"/>
        <pt x="694" y="177" on="0"/>
        <pt x="628" y="127" on="1"/>
        <pt x="733" y="117" on="1"/>
        <pt x="715" y="0" on="1"/>
        <pt x="465" y="0" on="1"/>
        <pt x="485" y="128" on="1"/>
        <pt x="562" y="180" on="0"/>
        <pt x="592" y="244" on="1"/>
        <pt x="617" y="298" on="0"/>
        <pt x="636" y="420" on="0"/>
        <pt x="636" y="478" on="0"/>
        <pt x="621" y="538" on="0"/>
        <pt x="588" y="582" on="0"/>
        <pt x="523" y="610" on="0"/>
        <pt x="433" y="610" on="0"/>
        <pt x="359" y="582" on="0"/>
        <pt x="310" y="537" on="0"/>
        <pt x="292" y="506" on="1"/>
        <pt x="260" y="452" on="0"/>
        <pt x="240" y="323" on="0"/>
      </contour>
    </TTGlyph>
    <TTGlyph name="Oslash" xMin="42" yMin="-4" xMax="734" yMax="737">
      <contour>
        <pt x="116" y="86" on="1"/>
        <pt x="89" y="138" on="0"/>
        <pt x="89" y="296" on="0"/>
        <pt x="110" y="434" on="0"/>
        <pt x="134" y="526" on="0"/>
        <pt x="161" y="596" on="0"/>
        <pt x="196" y="650" on="0"/>
        <pt x="229" y="687" on="0"/>
        <pt x="276" y="713" on="0"/>
        <pt x="316" y="727" on="0"/>
        <pt x="344" y="731" on="1"/>
        <pt x="388" y="737" on="0"/>
        <pt x="451" y="737" on="1"/>
        <pt x="577" y="737" on="0"/>
        <pt x="630" y="698" on="1"/>
        <pt x="659" y="732" on="1"/>
        <pt x="734" y="732" on="1"/>
        <pt x="670" y="656" on="1"/>
        <pt x="703" y="601" on="0"/>
        <pt x="703" y="496" on="1"/>
        <pt x="703" y="430" on="0"/>
        <pt x="679" y="276" on="0"/>
        <pt x="648" y="171" on="0"/>
        <pt x="612" y="97" on="0"/>
        <pt x="562" y="46" on="0"/>
        <pt x="514" y="17" on="0"/>
        <pt x="479" y="9" on="1"/>
        <pt x="425" y="-4" on="0"/>
        <pt x="275" y="-4" on="0"/>
        <pt x="183" y="14" on="0"/>
        <pt x="151" y="40" on="1"/>
        <pt x="117" y="0" on="1"/>
        <pt x="43" y="0" on="1"/>
      </contour>
      <contour>
        <pt x="267" y="485" on="0"/>
        <pt x="249" y="411" on="0"/>
        <pt x="232" y="302" on="0"/>
        <pt x="232" y="242" on="0"/>
        <pt x="235" y="226" on="1"/>
        <pt x="534" y="586" on="1"/>
        <pt x="509" y="608" on="0"/>
        <pt x="435" y="608" on="1"/>
        <pt x="352" y="608" on="0"/>
        <pt x="324" y="584" on="1"/>
        <pt x="292" y="556" on="0"/>
      </contour>
      <contour>
        <pt x="358" y="125" on="1"/>
        <pt x="403" y="125" on="0"/>
        <pt x="460" y="143" on="0"/>
        <pt x="483" y="169" on="1"/>
        <pt x="527" y="216" on="0"/>
        <pt x="550" y="361" on="1"/>
        <pt x="560" y="432" on="0"/>
        <pt x="560" y="506" on="0"/>
        <pt x="557" y="525" on="1"/>
        <pt x="251" y="157" on="1"/>
        <pt x="276" y="125" on="0"/>
      </contour>
    </TTGlyph>
    <TTGlyph name="Otilde" xMin="91" yMin="-4" xMax="704" yMax="925">
      <contour>
        <pt x="530" y="887" on="1"/>
        <pt x="532" y="887" on="0"/>
        <pt x="555" y="887" on="0"/>
        <pt x="616" y="912" on="0"/>
        <pt x="630" y="925" on="1"/>
        <pt x="645" y="865" on="1"/>
        <pt x="621" y="844" on="0"/>
        <pt x="592" y="821" on="0"/>
        <pt x="543" y="797" on="0"/>
        <pt x="520" y="797" on="0"/>
        <pt x="504" y="798" on="0"/>
        <pt x="473" y="809" on="0"/>
        <pt x="463" y="815" on="1"/>
        <pt x="436" y="832" on="0"/>
        <pt x="394" y="832" on="0"/>
        <pt x="376" y="826" on="1"/>
        <pt x="353" y="819" on="0"/>
        <pt x="314" y="797" on="1"/>
        <pt x="299" y="852" on="1"/>
        <pt x="373" y="922" on="0"/>
        <pt x="430" y="922" on="1"/>
        <pt x="455" y="921" on="0"/>
        <pt x="514" y="887" on="0"/>
      </contour>
      <contour>
        <pt x="374" y="735" on="0"/>
        <pt x="420" y="737" on="0"/>
        <pt x="492" y="737" on="0"/>
        <pt x="554" y="729" on="0"/>
        <pt x="615" y="708" on="0"/>
        <pt x="636" y="690" on="1"/>
        <pt x="684" y="649" on="0"/>
        <pt x="697" y="572" on="1"/>
        <pt x="704" y="537" on="0"/>
        <pt x="704" y="482" on="0"/>
        <pt x="702" y="418" on="0"/>
        <pt x="681" y="279" on="0"/>
        <pt x="650" y="173" on="0"/>
        <pt x="614" y="99" on="0"/>
        <pt x="564" y="48" on="0"/>
        <pt x="515" y="17" on="0"/>
        <pt x="481" y="9" on="1"/>
        <pt x="426" y="-4" on="0"/>
        <pt x="304" y="-4" on="0"/>
        <pt x="243" y="3" on="0"/>
        <pt x="181" y="23" on="0"/>
        <pt x="160" y="40" on="1"/>
        <pt x="111" y="80" on="0"/>
        <pt x="98" y="154" on="1"/>
        <pt x="91" y="189" on="0"/>
        <pt x="91" y="242" on="0"/>
        <pt x="92" y="305" on="0"/>
        <pt x="112" y="431" on="0"/>
        <pt x="136" y="524" on="0"/>
        <pt x="162" y="594" on="0"/>
        <pt x="198" y="648" on="0"/>
        <pt x="231" y="686" on="0"/>
        <pt x="278" y="712" on="0"/>
        <pt x="318" y="727" on="0"/>
      </contour>
      <contour>
        <pt x="232" y="231" on="1"/>
        <pt x="232" y="172" on="0"/>
        <pt x="257" y="150" on="1"/>
        <pt x="288" y="125" on="0"/>
        <pt x="360" y="125" on="1"/>
        <pt x="427" y="125" on="0"/>
        <pt x="466" y="151" on="1"/>
        <pt x="524" y="191" on="0"/>
        <pt x="551" y="361" on="1"/>
        <pt x="563" y="435" on="0"/>
        <pt x="563" y="523" on="0"/>
        <pt x="551" y="573" on="0"/>
        <pt x="514" y="600" on="0"/>
        <pt x="473" y="608" on="0"/>
        <pt x="410" y="608" on="0"/>
        <pt x="377" y="605" on="0"/>
        <pt x="339" y="595" on="0"/>
        <pt x="314" y="574" on="0"/>
        <pt x="301" y="556" on="1"/>
        <pt x="279" y="527" on="0"/>
        <pt x="232" y="329" on="0"/>
      </contour>
    </TTGlyph>
    <TTGlyph name="P" xMin="57" yMin="0" xMax="653" yMax="732">
      <contour>
        <pt x="480" y="732" on="1"/>
        <pt x="556" y="732" on="0"/>
        <pt x="608" y="683" on="1"/>
        <pt x="652" y="641" on="0"/>
        <pt x="652" y="551" on="1"/>
        <pt x="652" y="469" on="0"/>
        <pt x="623" y="393" on="1"/>
        <pt x="597" y="325" on="0"/>
        <pt x="546" y="292" on="1"/>
        <pt x="522" y="277" on="0"/>
        <pt x="499" y="274" on="1"/>
        <pt x="453" y="269" on="0"/>
        <pt x="419" y="269" on="0"/>
        <pt x="378" y="272" on="0"/>
        <pt x="248" y="287" on="0"/>
        <pt x="244" y="289" on="1"/>
        <pt x="198" y="0" on="1"/>
        <pt x="58" y="0" on="1"/>
        <pt x="174" y="732" on="1"/>
      </contour>
      <contour>
        <pt x="509" y="541" on="1"/>
        <pt x="509" y="608" on="0"/>
        <pt x="449" y="608" on="1"/>
        <pt x="294" y="608" on="1"/>
        <pt x="260" y="394" on="1"/>
        <pt x="415" y="394" on="1"/>
        <pt x="451" y="394" on="0"/>
        <pt x="496" y="443" on="0"/>
        <pt x="506" y="505" on="1"/>
        <pt x="509" y="525" on="0"/>
      </contour>
    </TTGlyph>
    <TTGlyph name="Q" xMin="93" yMin="-181" xMax="706" yMax="737">
      <contour>
        <pt x="340" y="731" on="0"/>
        <pt x="403" y="737" on="0"/>
        <pt x="494" y="737" on="0"/>
        <pt x="556" y="729" on="0"/>
        <pt x="617" y="707" on="0"/>
        <pt x="638" y="689" on="1"/>
        <pt x="705" y="630" on="0"/>
        <pt x="705" y="487" on="1"/>
        <pt x="705" y="371" on="0"/>
        <pt x="674" y="248" on="1"/>
        <pt x="651" y="157" on="0"/>
        <pt x="603" y="85" on="0"/>
        <pt x="569" y="48" on="0"/>
        <pt x="524" y="23" on="0"/>
        <pt x="483" y="7" on="0"/>
        <pt x="455" y="3" on="1"/>
        <pt x="363" y="-11" on="0"/>
        <pt x="275" y="0" on="1"/>
        <pt x="202" y="8" on="0"/>
        <pt x="162" y="41" on="1"/>
        <pt x="113" y="82" on="0"/>
        <pt x="99" y="156" on="1"/>
        <pt x="93" y="191" on="0"/>
        <pt x="93" y="245" on="0"/>
        <pt x="94" y="307" on="0"/>
        <pt x="118" y="461" on="0"/>
        <pt x="156" y="585" on="0"/>
        <pt x="209" y="662" on="0"/>
        <pt x="261" y="709" on="0"/>
      </contour>
      <contour>
        <pt x="233" y="231" on="1"/>
        <pt x="233" y="172" on="0"/>
        <pt x="259" y="150" on="1"/>
        <pt x="289" y="125" on="0"/>
        <pt x="361" y="125" on="1"/>
        <pt x="429" y="125" on="0"/>
        <pt x="468" y="151" on="1"/>
        <pt x="526" y="191" on="0"/>
        <pt x="553" y="361" on="1"/>
        <pt x="565" y="435" on="0"/>
        <pt x="565" y="523" on="0"/>
        <pt x="553" y="573" on="0"/>
        <pt x="516" y="600" on="0"/>
        <pt x="474" y="608" on="0"/>
        <pt x="412" y="608" on="0"/>
        <pt x="379" y="605" on="0"/>
        <pt x="340" y="595" on="0"/>
        <pt x="316" y="574" on="0"/>
        <pt x="303" y="556" on="1"/>
        <pt x="281" y="527" on="0"/>
        <pt x="233" y="329" on="0"/>
      </contour>
      <contour>
        <pt x="451" y="-73" on="1"/>
        <pt x="484" y="-73" on="0"/>
        <pt x="531" y="-61" on="1"/>
        <pt x="513" y="-174" on="1"/>
        <pt x="476" y="-180" on="0"/>
        <pt x="415" y="-180" on="0"/>
        <pt x="386" y="-171" on="1"/>
        <pt x="292" y="-139" on="0"/>
        <pt x="292" y="-50" on="1"/>
        <pt x="292" y="-42" on="0"/>
        <pt x="293" y="-33" on="1"/>
        <pt x="373" y="-33" on="1"/>
        <pt x="390" y="-73" on="0"/>
      </contour>
    </TTGlyph>
    <TTGlyph name="R" xMin="57" yMin="0" xMax="651" yMax="732">
      <contour>
        <pt x="483" y="732" on="1"/>
        <pt x="572" y="732" on="0"/>
        <pt x="617" y="673" on="1"/>
        <pt x="651" y="630" on="0"/>
        <pt x="651" y="552" on="1"/>
        <pt x="651" y="467" on="0"/>
        <pt x="624" y="400" on="1"/>
        <pt x="609" y="361" on="0"/>
        <pt x="579" y="322" on="0"/>
        <pt x="535" y="296" on="0"/>
        <pt x="512" y="291" on="0"/>
        <pt x="496" y="288" on="1"/>
        <pt x="600" y="0" on="1"/>
        <pt x="442" y="0" on="1"/>
        <pt x="356" y="280" on="1"/>
        <pt x="244" y="289" on="1"/>
        <pt x="198" y="0" on="1"/>
        <pt x="58" y="0" on="1"/>
        <pt x="174" y="732" on="1"/>
      </contour>
      <contour>
        <pt x="414" y="398" on="1"/>
        <pt x="455" y="398" on="0"/>
        <pt x="477" y="423" on="1"/>
        <pt x="508" y="456" on="0"/>
        <pt x="508" y="540" on="1"/>
        <pt x="508" y="572" on="0"/>
        <pt x="499" y="586" on="1"/>
        <pt x="487" y="607" on="0"/>
        <pt x="450" y="607" on="1"/>
        <pt x="295" y="607" on="1"/>
        <pt x="262" y="398" on="1"/>
      </contour>
    </TTGlyph>
    <TTGlyph name="Racute" xMin="51" yMin="0" xMax="645" yMax="933">
      <contour>
        <pt x="366" y="794" on="1"/>
        <pt x="479" y="933" on="1"/>
        <pt x="601" y="933" on="1"/>
        <pt x="457" y="794" on="1"/>
      </contour>
      <contour>
        <pt x="477" y="732" on="1"/>
        <pt x="565" y="732" on="0"/>
        <pt x="611" y="673" on="1"/>
        <pt x="644" y="630" on="0"/>
        <pt x="644" y="552" on="1"/>
        <pt x="644" y="467" on="0"/>
        <pt x="618" y="400" on="1"/>
        <pt x="603" y="361" on="0"/>
        <pt x="572" y="322" on="0"/>
        <pt x="529" y="296" on="0"/>
        <pt x="506" y="291" on="0"/>
        <pt x="490" y="288" on="1"/>
        <pt x="593" y="0" on="1"/>
        <pt x="435" y="0" on="1"/>
        <pt x="350" y="280" on="1"/>
        <pt x="237" y="289" on="1"/>
        <pt x="191" y="0" on="1"/>
        <pt x="51" y="0" on="1"/>
        <pt x="167" y="732" on="1"/>
      </contour>
      <contour>
        <pt x="407" y="398" on="1"/>
        <pt x="448" y="398" on="0"/>
        <pt x="470" y="423" on="1"/>
        <pt x="501" y="456" on="0"/>
        <pt x="501" y="540" on="1"/>
        <pt x="501" y="572" on="0"/>
        <pt x="493" y="586" on="1"/>
        <pt x="480" y="608" on="0"/>
        <pt x="443" y="608" on="1"/>
        <pt x="289" y="608" on="1"/>
        <pt x="255" y="398" on="1"/>
      </contour>
    </TTGlyph>
    <TTGlyph name="Rcaron" xMin="57" yMin="0" xMax="651" yMax="933">
      <contour>
        <pt x="292" y="932" on="1"/>
        <pt x="382" y="932" on="1"/>
        <pt x="427" y="867" on="1"/>
        <pt x="497" y="932" on="1"/>
        <pt x="600" y="932" on="1"/>
        <pt x="471" y="797" on="1"/>
        <pt x="370" y="797" on="1"/>
      </contour>
      <contour>
        <pt x="483" y="732" on="1"/>
        <pt x="572" y="732" on="0"/>
        <pt x="617" y="673" on="1"/>
        <pt x="651" y="630" on="0"/>
        <pt x="651" y="552" on="1"/>
        <pt x="651" y="467" on="0"/>
        <pt x="624" y="400" on="1"/>
        <pt x="609" y="361" on="0"/>
        <pt x="579" y="322" on="0"/>
        <pt x="535" y="296" on="0"/>
        <pt x="512" y="291" on="0"/>
        <pt x="496" y="288" on="1"/>
        <pt x="600" y="0" on="1"/>
        <pt x="442" y="0" on="1"/>
        <pt x="356" y="280" on="1"/>
        <pt x="244" y="289" on="1"/>
        <pt x="198" y="0" on="1"/>
        <pt x="58" y="0" on="1"/>
        <pt x="174" y="732" on="1"/>
      </contour>
      <contour>
        <pt x="414" y="398" on="1"/>
        <pt x="455" y="398" on="0"/>
        <pt x="477" y="423" on="1"/>
        <pt x="508" y="456" on="0"/>
        <pt x="508" y="540" on="1"/>
        <pt x="508" y="572" on="0"/>
        <pt x="499" y="586" on="1"/>
        <pt x="487" y="608" on="0"/>
        <pt x="450" y="608" on="1"/>
        <pt x="295" y="608" on="1"/>
        <pt x="262" y="398" on="1"/>
      </contour>
    </TTGlyph>
    <TTGlyph name="Rcommaaccent" xMin="57" yMin="-271" xMax="651" yMax="732">
      <contour>
        <pt x="259" y="-187" on="1"/>
        <pt x="249" y="-187" on="0"/>
        <pt x="238" y="-175" on="0"/>
        <pt x="240" y="-164" on="1"/>
        <pt x="252" y="-86" on="1"/>
        <pt x="256" y="-62" on="0"/>
        <pt x="279" y="-62" on="1"/>
        <pt x="354" y="-62" on="1"/>
        <pt x="372" y="-62" on="0"/>
        <pt x="372" y="-80" on="1"/>
        <pt x="372" y="-83" on="0"/>
        <pt x="372" y="-86" on="1"/>
        <pt x="354" y="-197" on="1"/>
        <pt x="350" y="-225" on="0"/>
        <pt x="335" y="-242" on="1"/>
        <pt x="311" y="-271" on="0"/>
        <pt x="260" y="-271" on="1"/>
        <pt x="248" y="-271" on="0"/>
        <pt x="240" y="-269" on="1"/>
        <pt x="228" y="-266" on="1"/>
        <pt x="235" y="-223" on="1"/>
        <pt x="248" y="-223" on="0"/>
        <pt x="262" y="-214" on="0"/>
        <pt x="265" y="-206" on="0"/>
        <pt x="267" y="-200" on="1"/>
        <pt x="269" y="-187" on="1"/>
      </contour>
      <contour>
        <pt x="483" y="732" on="1"/>
        <pt x="572" y="732" on="0"/>
        <pt x="617" y="673" on="1"/>
        <pt x="651" y="630" on="0"/>
        <pt x="651" y="552" on="1"/>
        <pt x="651" y="467" on="0"/>
        <pt x="624" y="400" on="1"/>
        <pt x="609" y="361" on="0"/>
        <pt x="579" y="322" on="0"/>
        <pt x="535" y="296" on="0"/>
        <pt x="512" y="291" on="0"/>
        <pt x="496" y="288" on="1"/>
        <pt x="600" y="0" on="1"/>
        <pt x="442" y="0" on="1"/>
        <pt x="356" y="280" on="1"/>
        <pt x="244" y="289" on="1"/>
        <pt x="198" y="0" on="1"/>
        <pt x="58" y="0" on="1"/>
        <pt x="174" y="732" on="1"/>
      </contour>
      <contour>
        <pt x="414" y="398" on="1"/>
        <pt x="455" y="398" on="0"/>
        <pt x="477" y="423" on="1"/>
        <pt x="508" y="456" on="0"/>
        <pt x="508" y="540" on="1"/>
        <pt x="508" y="572" on="0"/>
        <pt x="499" y="586" on="1"/>
        <pt x="487" y="608" on="0"/>
        <pt x="450" y="608" on="1"/>
        <pt x="295" y="608" on="1"/>
        <pt x="262" y="398" on="1"/>
      </contour>
    </TTGlyph>
    <TTGlyph name="S" xMin="70" yMin="-8" xMax="632" yMax="739">
      <contour>
        <pt x="335" y="121" on="1"/>
        <pt x="426" y="121" on="0"/>
        <pt x="436" y="184" on="1"/>
        <pt x="442" y="223" on="1"/>
        <pt x="444" y="237" on="0"/>
        <pt x="444" y="255" on="0"/>
        <pt x="442" y="275" on="0"/>
        <pt x="414" y="292" on="0"/>
        <pt x="386" y="292" on="1"/>
        <pt x="285" y="292" on="1"/>
        <pt x="199" y="292" on="0"/>
        <pt x="162" y="330" on="1"/>
        <pt x="125" y="368" on="0"/>
        <pt x="120" y="411" on="1"/>
        <pt x="117" y="433" on="0"/>
        <pt x="117" y="469" on="0"/>
        <pt x="120" y="488" on="1"/>
        <pt x="130" y="564" on="1"/>
        <pt x="149" y="686" on="0"/>
        <pt x="238" y="720" on="1"/>
        <pt x="286" y="738" on="0"/>
        <pt x="358" y="738" on="1"/>
        <pt x="359" y="738" on="1"/>
        <pt x="370" y="738" on="0"/>
        <pt x="380" y="738" on="1"/>
        <pt x="533" y="738" on="0"/>
        <pt x="632" y="709" on="1"/>
        <pt x="614" y="599" on="1"/>
        <pt x="473" y="609" on="0"/>
        <pt x="371" y="609" on="0"/>
        <pt x="366" y="609" on="1"/>
        <pt x="321" y="609" on="0"/>
        <pt x="277" y="585" on="0"/>
        <pt x="269" y="538" on="1"/>
        <pt x="264" y="502" on="1"/>
        <pt x="263" y="486" on="0"/>
        <pt x="260" y="463" on="0"/>
        <pt x="270" y="447" on="0"/>
        <pt x="278" y="438" on="0"/>
        <pt x="289" y="436" on="1"/>
        <pt x="305" y="432" on="0"/>
        <pt x="332" y="432" on="1"/>
        <pt x="436" y="432" on="1"/>
        <pt x="503" y="432" on="0"/>
        <pt x="538" y="399" on="1"/>
        <pt x="573" y="367" on="0"/>
        <pt x="580" y="324" on="1"/>
        <pt x="585" y="292" on="0"/>
        <pt x="585" y="253" on="0"/>
        <pt x="582" y="238" on="1"/>
        <pt x="576" y="172" on="1"/>
        <pt x="563" y="20" on="0"/>
        <pt x="421" y="-2" on="1"/>
        <pt x="385" y="-8" on="0"/>
        <pt x="337" y="-8" on="1"/>
        <pt x="163" y="-8" on="0"/>
        <pt x="71" y="22" on="1"/>
        <pt x="88" y="132" on="1"/>
        <pt x="176" y="121" on="0"/>
      </contour>
    </TTGlyph>
    <TTGlyph name="Sacute" xMin="65" yMin="-8" xMax="627" yMax="938">
      <contour>
        <pt x="362" y="799" on="1"/>
        <pt x="474" y="937" on="1"/>
        <pt x="597" y="937" on="1"/>
        <pt x="453" y="799" on="1"/>
      </contour>
      <contour>
        <pt x="330" y="121" on="1"/>
        <pt x="420" y="121" on="0"/>
        <pt x="430" y="184" on="1"/>
        <pt x="436" y="223" on="1"/>
        <pt x="438" y="237" on="0"/>
        <pt x="438" y="255" on="0"/>
        <pt x="436" y="275" on="0"/>
        <pt x="408" y="292" on="0"/>
        <pt x="380" y="292" on="1"/>
        <pt x="279" y="292" on="1"/>
        <pt x="194" y="292" on="0"/>
        <pt x="156" y="330" on="1"/>
        <pt x="119" y="368" on="0"/>
        <pt x="114" y="411" on="1"/>
        <pt x="112" y="433" on="0"/>
        <pt x="112" y="469" on="0"/>
        <pt x="114" y="488" on="1"/>
        <pt x="125" y="564" on="1"/>
        <pt x="143" y="686" on="0"/>
        <pt x="232" y="720" on="1"/>
        <pt x="280" y="738" on="0"/>
        <pt x="353" y="738" on="1"/>
        <pt x="354" y="738" on="1"/>
        <pt x="364" y="738" on="0"/>
        <pt x="374" y="738" on="1"/>
        <pt x="527" y="738" on="0"/>
        <pt x="626" y="709" on="1"/>
        <pt x="609" y="599" on="1"/>
        <pt x="467" y="609" on="0"/>
        <pt x="366" y="609" on="0"/>
        <pt x="361" y="609" on="1"/>
        <pt x="316" y="609" on="0"/>
        <pt x="271" y="585" on="0"/>
        <pt x="264" y="538" on="1"/>
        <pt x="258" y="502" on="1"/>
        <pt x="256" y="488" on="0"/>
        <pt x="256" y="453" on="0"/>
        <pt x="282" y="432" on="0"/>
        <pt x="327" y="432" on="1"/>
        <pt x="430" y="432" on="1"/>
        <pt x="498" y="432" on="0"/>
        <pt x="533" y="399" on="1"/>
        <pt x="568" y="367" on="0"/>
        <pt x="575" y="324" on="1"/>
        <pt x="580" y="292" on="0"/>
        <pt x="580" y="253" on="0"/>
        <pt x="577" y="238" on="1"/>
        <pt x="571" y="172" on="1"/>
        <pt x="558" y="20" on="0"/>
        <pt x="416" y="-2" on="1"/>
        <pt x="379" y="-8" on="0"/>
        <pt x="331" y="-8" on="1"/>
        <pt x="157" y="-8" on="0"/>
        <pt x="65" y="22" on="1"/>
        <pt x="83" y="132" on="1"/>
        <pt x="170" y="121" on="0"/>
      </contour>
    </TTGlyph>
    <TTGlyph name="Scaron" xMin="70" yMin="-8" xMax="632" yMax="935">
      <contour>
        <pt x="284" y="934" on="1"/>
        <pt x="374" y="934" on="1"/>
        <pt x="419" y="869" on="1"/>
        <pt x="489" y="934" on="1"/>
        <pt x="592" y="934" on="1"/>
        <pt x="463" y="799" on="1"/>
        <pt x="362" y="799" on="1"/>
      </contour>
      <contour>
        <pt x="335" y="121" on="1"/>
        <pt x="426" y="121" on="0"/>
        <pt x="436" y="184" on="1"/>
        <pt x="442" y="223" on="1"/>
        <pt x="444" y="237" on="0"/>
        <pt x="444" y="255" on="0"/>
        <pt x="442" y="275" on="0"/>
        <pt x="414" y="292" on="0"/>
        <pt x="386" y="292" on="1"/>
        <pt x="285" y="292" on="1"/>
        <pt x="199" y="292" on="0"/>
        <pt x="162" y="330" on="1"/>
        <pt x="125" y="368" on="0"/>
        <pt x="120" y="411" on="1"/>
        <pt x="117" y="433" on="0"/>
        <pt x="117" y="469" on="0"/>
        <pt x="120" y="488" on="1"/>
        <pt x="130" y="564" on="1"/>
        <pt x="149" y="686" on="0"/>
        <pt x="238" y="720" on="1"/>
        <pt x="286" y="738" on="0"/>
        <pt x="358" y="738" on="1"/>
        <pt x="359" y="738" on="1"/>
        <pt x="370" y="738" on="0"/>
        <pt x="380" y="738" on="1"/>
        <pt x="533" y="738" on="0"/>
        <pt x="632" y="709" on="1"/>
        <pt x="614" y="599" on="1"/>
        <pt x="473" y="609" on="0"/>
        <pt x="371" y="609" on="0"/>
        <pt x="366" y="609" on="1"/>
        <pt x="321" y="609" on="0"/>
        <pt x="277" y="585" on="0"/>
        <pt x="269" y="538" on="1"/>
        <pt x="264" y="502" on="1"/>
        <pt x="261" y="488" on="0"/>
        <pt x="261" y="453" on="0"/>
        <pt x="288" y="432" on="0"/>
        <pt x="332" y="432" on="1"/>
        <pt x="436" y="432" on="1"/>
        <pt x="503" y="432" on="0"/>
        <pt x="538" y="399" on="1"/>
        <pt x="573" y="367" on="0"/>
        <pt x="580" y="324" on="1"/>
        <pt x="585" y="292" on="0"/>
        <pt x="585" y="253" on="0"/>
        <pt x="582" y="238" on="1"/>
        <pt x="576" y="172" on="1"/>
        <pt x="563" y="20" on="0"/>
        <pt x="421" y="-2" on="1"/>
        <pt x="385" y="-8" on="0"/>
        <pt x="337" y="-8" on="1"/>
        <pt x="163" y="-8" on="0"/>
        <pt x="71" y="22" on="1"/>
        <pt x="88" y="132" on="1"/>
        <pt x="176" y="121" on="0"/>
      </contour>
    </TTGlyph>
    <TTGlyph name="Scedilla" xMin="70" yMin="-187" xMax="632" yMax="739">
      <contour>
        <pt x="237" y="-186" on="1"/>
        <pt x="180" y="-186" on="1"/>
        <pt x="190" y="-126" on="1"/>
        <pt x="236" y="-111" on="1"/>
        <pt x="263" y="-101" on="0"/>
        <pt x="270" y="-77" on="1"/>
        <pt x="273" y="-67" on="0"/>
        <pt x="277" y="-45" on="1"/>
        <pt x="371" y="-45" on="1"/>
        <pt x="359" y="-123" on="0"/>
        <pt x="301" y="-186" on="0"/>
      </contour>
      <contour>
        <pt x="335" y="121" on="1"/>
        <pt x="426" y="121" on="0"/>
        <pt x="436" y="184" on="1"/>
        <pt x="442" y="223" on="1"/>
        <pt x="444" y="237" on="0"/>
        <pt x="444" y="255" on="0"/>
        <pt x="442" y="275" on="0"/>
        <pt x="414" y="292" on="0"/>
        <pt x="386" y="292" on="1"/>
        <pt x="285" y="292" on="1"/>
        <pt x="199" y="292" on="0"/>
        <pt x="162" y="330" on="1"/>
        <pt x="125" y="368" on="0"/>
        <pt x="120" y="411" on="1"/>
        <pt x="117" y="433" on="0"/>
        <pt x="117" y="469" on="0"/>
        <pt x="120" y="488" on="1"/>
        <pt x="130" y="564" on="1"/>
        <pt x="149" y="686" on="0"/>
        <pt x="238" y="720" on="1"/>
        <pt x="286" y="738" on="0"/>
        <pt x="358" y="738" on="1"/>
        <pt x="359" y="738" on="1"/>
        <pt x="370" y="738" on="0"/>
        <pt x="380" y="738" on="1"/>
        <pt x="533" y="738" on="0"/>
        <pt x="632" y="709" on="1"/>
        <pt x="614" y="599" on="1"/>
        <pt x="473" y="609" on="0"/>
        <pt x="371" y="609" on="0"/>
        <pt x="366" y="609" on="1"/>
        <pt x="321" y="609" on="0"/>
        <pt x="277" y="585" on="0"/>
        <pt x="269" y="538" on="1"/>
        <pt x="264" y="502" on="1"/>
        <pt x="261" y="488" on="0"/>
        <pt x="261" y="453" on="0"/>
        <pt x="288" y="432" on="0"/>
        <pt x="332" y="432" on="1"/>
        <pt x="436" y="432" on="1"/>
        <pt x="503" y="432" on="0"/>
        <pt x="538" y="399" on="1"/>
        <pt x="573" y="367" on="0"/>
        <pt x="580" y="324" on="1"/>
        <pt x="585" y="292" on="0"/>
        <pt x="585" y="253" on="0"/>
        <pt x="582" y="238" on="1"/>
        <pt x="576" y="172" on="1"/>
        <pt x="563" y="20" on="0"/>
        <pt x="421" y="-2" on="1"/>
        <pt x="385" y="-8" on="0"/>
        <pt x="337" y="-8" on="1"/>
        <pt x="163" y="-8" on="0"/>
        <pt x="71" y="22" on="1"/>
        <pt x="88" y="132" on="1"/>
        <pt x="176" y="121" on="0"/>
      </contour>
    </TTGlyph>
    <TTGlyph name="Scircumflex" xMin="70" yMin="-8" xMax="632" yMax="935">
      <contour>
        <pt x="255" y="799" on="1"/>
        <pt x="385" y="934" on="1"/>
        <pt x="489" y="934" on="1"/>
        <pt x="564" y="799" on="1"/>
        <pt x="474" y="799" on="1"/>
        <pt x="431" y="864" on="1"/>
        <pt x="359" y="799" on="1"/>
      </contour>
      <contour>
        <pt x="335" y="121" on="1"/>
        <pt x="426" y="121" on="0"/>
        <pt x="436" y="184" on="1"/>
        <pt x="442" y="223" on="1"/>
        <pt x="444" y="237" on="0"/>
        <pt x="444" y="255" on="0"/>
        <pt x="442" y="275" on="0"/>
        <pt x="414" y="292" on="0"/>
        <pt x="386" y="292" on="1"/>
        <pt x="285" y="292" on="1"/>
        <pt x="199" y="292" on="0"/>
        <pt x="162" y="330" on="1"/>
        <pt x="125" y="368" on="0"/>
        <pt x="120" y="411" on="1"/>
        <pt x="117" y="433" on="0"/>
        <pt x="117" y="469" on="0"/>
        <pt x="120" y="488" on="1"/>
        <pt x="130" y="564" on="1"/>
        <pt x="149" y="686" on="0"/>
        <pt x="238" y="720" on="1"/>
        <pt x="286" y="738" on="0"/>
        <pt x="358" y="738" on="1"/>
        <pt x="359" y="738" on="1"/>
        <pt x="370" y="738" on="0"/>
        <pt x="380" y="738" on="1"/>
        <pt x="533" y="738" on="0"/>
        <pt x="632" y="709" on="1"/>
        <pt x="614" y="599" on="1"/>
        <pt x="473" y="609" on="0"/>
        <pt x="371" y="609" on="0"/>
        <pt x="366" y="609" on="1"/>
        <pt x="321" y="609" on="0"/>
        <pt x="277" y="585" on="0"/>
        <pt x="269" y="538" on="1"/>
        <pt x="264" y="502" on="1"/>
        <pt x="261" y="488" on="0"/>
        <pt x="261" y="453" on="0"/>
        <pt x="288" y="432" on="0"/>
        <pt x="332" y="432" on="1"/>
        <pt x="436" y="432" on="1"/>
        <pt x="503" y="432" on="0"/>
        <pt x="538" y="399" on="1"/>
        <pt x="573" y="367" on="0"/>
        <pt x="580" y="324" on="1"/>
        <pt x="585" y="292" on="0"/>
        <pt x="585" y="253" on="0"/>
        <pt x="582" y="238" on="1"/>
        <pt x="576" y="172" on="1"/>
        <pt x="563" y="20" on="0"/>
        <pt x="421" y="-2" on="1"/>
        <pt x="385" y="-8" on="0"/>
        <pt x="337" y="-8" on="1"/>
        <pt x="163" y="-8" on="0"/>
        <pt x="71" y="22" on="1"/>
        <pt x="88" y="132" on="1"/>
        <pt x="176" y="121" on="0"/>
      </contour>
    </TTGlyph>
    <TTGlyph name="T" xMin="121" yMin="0" xMax="684" yMax="732">
      <contour>
        <pt x="122" y="603" on="1"/>
        <pt x="143" y="732" on="1"/>
        <pt x="684" y="732" on="1"/>
        <pt x="663" y="603" on="1"/>
        <pt x="459" y="603" on="1"/>
        <pt x="364" y="0" on="1"/>
        <pt x="224" y="0" on="1"/>
        <pt x="319" y="603" on="1"/>
      </contour>
    </TTGlyph>
    <TTGlyph name="Tbar" xMin="121" yMin="0" xMax="684" yMax="732">
      <contour>
        <pt x="122" y="603" on="1"/>
        <pt x="143" y="732" on="1"/>
        <pt x="684" y="732" on="1"/>
        <pt x="663" y="603" on="1"/>
        <pt x="459" y="603" on="1"/>
        <pt x="433" y="433" on="1"/>
        <pt x="531" y="433" on="1"/>
        <pt x="520" y="368" on="1"/>
        <pt x="422" y="368" on="1"/>
        <pt x="364" y="0" on="1"/>
        <pt x="224" y="0" on="1"/>
        <pt x="282" y="368" on="1"/>
        <pt x="184" y="368" on="1"/>
        <pt x="195" y="433" on="1"/>
        <pt x="293" y="433" on="1"/>
        <pt x="319" y="603" on="1"/>
      </contour>
    </TTGlyph>
    <TTGlyph name="Tcaron" xMin="121" yMin="0" xMax="684" yMax="933">
      <contour>
        <pt x="291" y="932" on="1"/>
        <pt x="381" y="932" on="1"/>
        <pt x="426" y="867" on="1"/>
        <pt x="496" y="932" on="1"/>
        <pt x="599" y="932" on="1"/>
        <pt x="470" y="797" on="1"/>
        <pt x="369" y="797" on="1"/>
      </contour>
      <contour>
        <pt x="122" y="603" on="1"/>
        <pt x="143" y="732" on="1"/>
        <pt x="684" y="732" on="1"/>
        <pt x="663" y="603" on="1"/>
        <pt x="459" y="603" on="1"/>
        <pt x="364" y="0" on="1"/>
        <pt x="224" y="0" on="1"/>
        <pt x="319" y="603" on="1"/>
      </contour>
    </TTGlyph>
    <TTGlyph name="Tcommaaccent" xMin="100" yMin="-183" xMax="663" yMax="732">
      <contour>
        <pt x="179" y="-183" on="1"/>
        <pt x="123" y="-183" on="1"/>
        <pt x="133" y="-123" on="1"/>
        <pt x="179" y="-108" on="1"/>
        <pt x="200" y="-99" on="0"/>
        <pt x="214" y="-73" on="0"/>
        <pt x="219" y="-41" on="1"/>
        <pt x="314" y="-41" on="1"/>
        <pt x="302" y="-119" on="0"/>
        <pt x="243" y="-183" on="0"/>
      </contour>
      <contour>
        <pt x="100" y="603" on="1"/>
        <pt x="121" y="732" on="1"/>
        <pt x="662" y="732" on="1"/>
        <pt x="641" y="603" on="1"/>
        <pt x="438" y="603" on="1"/>
        <pt x="343" y="0" on="1"/>
        <pt x="203" y="0" on="1"/>
        <pt x="298" y="603" on="1"/>
      </contour>
    </TTGlyph>
    <TTGlyph name="Thorn" xMin="45" yMin="0" xMax="574" yMax="730">
      <contour>
        <pt x="46" y="0" on="1"/>
        <pt x="46" y="0" on="0"/>
        <pt x="161" y="729" on="1"/>
        <pt x="301" y="729" on="1"/>
        <pt x="279" y="588" on="1"/>
        <pt x="426" y="588" on="1"/>
        <pt x="474" y="588" on="0"/>
        <pt x="514" y="562" on="1"/>
        <pt x="556" y="535" on="0"/>
        <pt x="570" y="460" on="1"/>
        <pt x="573" y="443" on="0"/>
        <pt x="573" y="397" on="0"/>
        <pt x="563" y="330" on="0"/>
        <pt x="546" y="269" on="0"/>
        <pt x="523" y="225" on="0"/>
        <pt x="499" y="193" on="0"/>
        <pt x="466" y="173" on="0"/>
        <pt x="440" y="160" on="0"/>
        <pt x="421" y="157" on="1"/>
        <pt x="386" y="151" on="0"/>
        <pt x="260" y="151" on="0"/>
        <pt x="213" y="171" on="1"/>
        <pt x="186" y="0" on="1"/>
      </contour>
      <contour>
        <pt x="333" y="275" on="1"/>
        <pt x="356" y="275" on="0"/>
        <pt x="383" y="281" on="0"/>
        <pt x="395" y="291" on="1"/>
        <pt x="416" y="308" on="0"/>
        <pt x="427" y="374" on="1"/>
        <pt x="430" y="387" on="0"/>
        <pt x="430" y="402" on="0"/>
        <pt x="427" y="420" on="0"/>
        <pt x="425" y="440" on="0"/>
        <pt x="411" y="453" on="0"/>
        <pt x="402" y="460" on="0"/>
        <pt x="393" y="461" on="1"/>
        <pt x="380" y="464" on="0"/>
        <pt x="362" y="464" on="1"/>
        <pt x="259" y="464" on="1"/>
        <pt x="229" y="275" on="1"/>
      </contour>
    </TTGlyph>
    <TTGlyph name="U" xMin="100" yMin="-5" xMax="725" yMax="733">
      <contour>
        <pt x="249" y="312" on="1"/>
        <pt x="241" y="266" on="0"/>
        <pt x="241" y="188" on="0"/>
        <pt x="253" y="165" on="1"/>
        <pt x="275" y="124" on="0"/>
        <pt x="431" y="124" on="0"/>
        <pt x="501" y="211" on="0"/>
        <pt x="517" y="312" on="1"/>
        <pt x="584" y="732" on="1"/>
        <pt x="725" y="732" on="1"/>
        <pt x="661" y="295" on="1"/>
        <pt x="633" y="119" on="0"/>
        <pt x="549" y="54" on="1"/>
        <pt x="506" y="21" on="0"/>
        <pt x="405" y="-5" on="0"/>
        <pt x="305" y="-5" on="0"/>
        <pt x="256" y="1" on="0"/>
        <pt x="206" y="14" on="0"/>
        <pt x="167" y="38" on="0"/>
        <pt x="150" y="56" on="1"/>
        <pt x="118" y="88" on="0"/>
        <pt x="105" y="157" on="1"/>
        <pt x="100" y="184" on="0"/>
        <pt x="100" y="205" on="1"/>
        <pt x="100" y="268" on="0"/>
        <pt x="110" y="328" on="1"/>
        <pt x="175" y="732" on="1"/>
        <pt x="315" y="732" on="1"/>
      </contour>
    </TTGlyph>
    <TTGlyph name="Uacute" xMin="100" yMin="-5" xMax="725" yMax="936">
      <contour>
        <pt x="414" y="797" on="1"/>
        <pt x="527" y="936" on="1"/>
        <pt x="649" y="936" on="1"/>
        <pt x="505" y="797" on="1"/>
      </contour>
      <contour>
        <pt x="249" y="312" on="1"/>
        <pt x="241" y="266" on="0"/>
        <pt x="241" y="188" on="0"/>
        <pt x="253" y="165" on="1"/>
        <pt x="275" y="124" on="0"/>
        <pt x="431" y="124" on="0"/>
        <pt x="501" y="211" on="0"/>
        <pt x="517" y="312" on="1"/>
        <pt x="584" y="732" on="1"/>
        <pt x="725" y="732" on="1"/>
        <pt x="661" y="295" on="1"/>
        <pt x="642" y="175" on="0"/>
        <pt x="598" y="110" on="1"/>
        <pt x="554" y="44" on="0"/>
        <pt x="489" y="19" on="1"/>
        <pt x="425" y="-5" on="0"/>
        <pt x="335" y="-5" on="1"/>
        <pt x="224" y="-5" on="0"/>
        <pt x="170" y="37" on="1"/>
        <pt x="101" y="91" on="0"/>
        <pt x="101" y="222" on="1"/>
        <pt x="101" y="270" on="0"/>
        <pt x="110" y="328" on="1"/>
        <pt x="175" y="732" on="1"/>
        <pt x="315" y="732" on="1"/>
      </contour>
    </TTGlyph>
    <TTGlyph name="Ubreve" xMin="100" yMin="-5" xMax="725" yMax="910">
      <contour>
        <pt x="471" y="853" on="1"/>
        <pt x="528" y="853" on="0"/>
        <pt x="535" y="910" on="1"/>
        <pt x="592" y="910" on="1"/>
        <pt x="586" y="855" on="0"/>
        <pt x="522" y="797" on="0"/>
        <pt x="421" y="797" on="0"/>
        <pt x="363" y="855" on="0"/>
        <pt x="363" y="897" on="1"/>
        <pt x="363" y="903" on="0"/>
        <pt x="364" y="910" on="1"/>
        <pt x="421" y="910" on="1"/>
        <pt x="417" y="874" on="0"/>
        <pt x="441" y="860" on="1"/>
        <pt x="453" y="853" on="0"/>
      </contour>
      <contour>
        <pt x="249" y="312" on="1"/>
        <pt x="241" y="266" on="0"/>
        <pt x="241" y="188" on="0"/>
        <pt x="253" y="165" on="1"/>
        <pt x="275" y="124" on="0"/>
        <pt x="431" y="124" on="0"/>
        <pt x="501" y="211" on="0"/>
        <pt x="517" y="312" on="1"/>
        <pt x="584" y="732" on="1"/>
        <pt x="725" y="732" on="1"/>
        <pt x="661" y="295" on="1"/>
        <pt x="642" y="175" on="0"/>
        <pt x="598" y="110" on="1"/>
        <pt x="554" y="44" on="0"/>
        <pt x="489" y="19" on="1"/>
        <pt x="425" y="-5" on="0"/>
        <pt x="335" y="-5" on="1"/>
        <pt x="224" y="-5" on="0"/>
        <pt x="170" y="37" on="1"/>
        <pt x="101" y="91" on="0"/>
        <pt x="101" y="222" on="1"/>
        <pt x="101" y="270" on="0"/>
        <pt x="110" y="328" on="1"/>
        <pt x="175" y="732" on="1"/>
        <pt x="315" y="732" on="1"/>
      </contour>
    </TTGlyph>
    <TTGlyph name="Ucircumflex" xMin="100" yMin="-5" xMax="725" yMax="933">
      <contour>
        <pt x="306" y="797" on="1"/>
        <pt x="435" y="932" on="1"/>
        <pt x="539" y="932" on="1"/>
        <pt x="614" y="797" on="1"/>
        <pt x="524" y="797" on="1"/>
        <pt x="481" y="862" on="1"/>
        <pt x="409" y="797" on="1"/>
      </contour>
      <contour>
        <pt x="249" y="312" on="1"/>
        <pt x="241" y="266" on="0"/>
        <pt x="241" y="188" on="0"/>
        <pt x="253" y="165" on="1"/>
        <pt x="275" y="124" on="0"/>
        <pt x="431" y="124" on="0"/>
        <pt x="501" y="211" on="0"/>
        <pt x="517" y="312" on="1"/>
        <pt x="584" y="732" on="1"/>
        <pt x="725" y="732" on="1"/>
        <pt x="661" y="295" on="1"/>
        <pt x="642" y="175" on="0"/>
        <pt x="598" y="110" on="1"/>
        <pt x="554" y="44" on="0"/>
        <pt x="489" y="19" on="1"/>
        <pt x="425" y="-5" on="0"/>
        <pt x="335" y="-5" on="1"/>
        <pt x="224" y="-5" on="0"/>
        <pt x="170" y="37" on="1"/>
        <pt x="101" y="91" on="0"/>
        <pt x="101" y="222" on="1"/>
        <pt x="101" y="270" on="0"/>
        <pt x="110" y="328" on="1"/>
        <pt x="175" y="732" on="1"/>
        <pt x="315" y="732" on="1"/>
      </contour>
    </TTGlyph>
    <TTGlyph name="Udieresis" xMin="100" yMin="-5" xMax="725" yMax="915">
      <contour>
        <pt x="328" y="914" on="0"/>
        <pt x="376" y="914" on="0"/>
        <pt x="402" y="884" on="0"/>
        <pt x="402" y="873" on="1"/>
        <pt x="402" y="836" on="0"/>
        <pt x="357" y="797" on="0"/>
        <pt x="309" y="797" on="0"/>
        <pt x="283" y="828" on="0"/>
        <pt x="283" y="840" on="1"/>
        <pt x="283" y="877" on="0"/>
      </contour>
      <contour>
        <pt x="583" y="914" on="0"/>
        <pt x="631" y="914" on="0"/>
        <pt x="657" y="884" on="0"/>
        <pt x="657" y="873" on="1"/>
        <pt x="657" y="836" on="0"/>
        <pt x="612" y="797" on="0"/>
        <pt x="564" y="797" on="0"/>
        <pt x="538" y="828" on="0"/>
        <pt x="538" y="840" on="1"/>
        <pt x="538" y="877" on="0"/>
      </contour>
      <contour>
        <pt x="249" y="312" on="1"/>
        <pt x="241" y="266" on="0"/>
        <pt x="241" y="188" on="0"/>
        <pt x="253" y="165" on="1"/>
        <pt x="275" y="124" on="0"/>
        <pt x="431" y="124" on="0"/>
        <pt x="501" y="211" on="0"/>
        <pt x="517" y="312" on="1"/>
        <pt x="584" y="732" on="1"/>
        <pt x="725" y="732" on="1"/>
        <pt x="661" y="295" on="1"/>
        <pt x="642" y="175" on="0"/>
        <pt x="598" y="110" on="1"/>
        <pt x="554" y="44" on="0"/>
        <pt x="489" y="19" on="1"/>
        <pt x="425" y="-5" on="0"/>
        <pt x="335" y="-5" on="1"/>
        <pt x="224" y="-5" on="0"/>
        <pt x="170" y="37" on="1"/>
        <pt x="101" y="91" on="0"/>
        <pt x="101" y="222" on="1"/>
        <pt x="101" y="270" on="0"/>
        <pt x="110" y="328" on="1"/>
        <pt x="175" y="732" on="1"/>
        <pt x="315" y="732" on="1"/>
      </contour>
    </TTGlyph>
    <TTGlyph name="Ugrave" xMin="100" yMin="-5" xMax="725" yMax="936">
      <contour>
        <pt x="309" y="936" on="1"/>
        <pt x="428" y="936" on="1"/>
        <pt x="505" y="797" on="1"/>
        <pt x="414" y="797" on="1"/>
      </contour>
      <contour>
        <pt x="249" y="312" on="1"/>
        <pt x="241" y="266" on="0"/>
        <pt x="241" y="188" on="0"/>
        <pt x="253" y="165" on="1"/>
        <pt x="275" y="124" on="0"/>
        <pt x="431" y="124" on="0"/>
        <pt x="501" y="211" on="0"/>
        <pt x="517" y="312" on="1"/>
        <pt x="584" y="732" on="1"/>
        <pt x="725" y="732" on="1"/>
        <pt x="661" y="295" on="1"/>
        <pt x="642" y="175" on="0"/>
        <pt x="598" y="110" on="1"/>
        <pt x="554" y="44" on="0"/>
        <pt x="489" y="19" on="1"/>
        <pt x="425" y="-5" on="0"/>
        <pt x="335" y="-5" on="1"/>
        <pt x="224" y="-5" on="0"/>
        <pt x="170" y="37" on="1"/>
        <pt x="101" y="91" on="0"/>
        <pt x="101" y="222" on="1"/>
        <pt x="101" y="270" on="0"/>
        <pt x="110" y="328" on="1"/>
        <pt x="175" y="732" on="1"/>
        <pt x="315" y="732" on="1"/>
      </contour>
    </TTGlyph>
    <TTGlyph name="Uhungarumlaut" xMin="100" yMin="-5" xMax="728" yMax="936">
      <contour>
        <pt x="337" y="797" on="1"/>
        <pt x="449" y="936" on="1"/>
        <pt x="572" y="936" on="1"/>
        <pt x="428" y="797" on="1"/>
      </contour>
      <contour>
        <pt x="493" y="797" on="1"/>
        <pt x="605" y="936" on="1"/>
        <pt x="728" y="936" on="1"/>
        <pt x="584" y="797" on="1"/>
      </contour>
      <contour>
        <pt x="249" y="312" on="1"/>
        <pt x="241" y="266" on="0"/>
        <pt x="241" y="188" on="0"/>
        <pt x="253" y="165" on="1"/>
        <pt x="275" y="124" on="0"/>
        <pt x="431" y="124" on="0"/>
        <pt x="501" y="211" on="0"/>
        <pt x="517" y="312" on="1"/>
        <pt x="584" y="732" on="1"/>
        <pt x="725" y="732" on="1"/>
        <pt x="661" y="295" on="1"/>
        <pt x="642" y="175" on="0"/>
        <pt x="598" y="110" on="1"/>
        <pt x="554" y="44" on="0"/>
        <pt x="489" y="19" on="1"/>
        <pt x="425" y="-5" on="0"/>
        <pt x="335" y="-5" on="1"/>
        <pt x="224" y="-5" on="0"/>
        <pt x="170" y="37" on="1"/>
        <pt x="101" y="91" on="0"/>
        <pt x="101" y="222" on="1"/>
        <pt x="101" y="270" on="0"/>
        <pt x="110" y="328" on="1"/>
        <pt x="175" y="732" on="1"/>
        <pt x="315" y="732" on="1"/>
      </contour>
    </TTGlyph>
    <TTGlyph name="Umacron" xMin="100" yMin="-5" xMax="725" yMax="877">
      <contour>
        <pt x="314" y="797" on="1"/>
        <pt x="327" y="876" on="1"/>
        <pt x="619" y="876" on="1"/>
        <pt x="606" y="797" on="1"/>
      </contour>
      <contour>
        <pt x="249" y="312" on="1"/>
        <pt x="241" y="266" on="0"/>
        <pt x="241" y="188" on="0"/>
        <pt x="253" y="165" on="1"/>
        <pt x="275" y="124" on="0"/>
        <pt x="431" y="124" on="0"/>
        <pt x="501" y="211" on="0"/>
        <pt x="517" y="312" on="1"/>
        <pt x="584" y="732" on="1"/>
        <pt x="725" y="732" on="1"/>
        <pt x="661" y="295" on="1"/>
        <pt x="642" y="175" on="0"/>
        <pt x="598" y="110" on="1"/>
        <pt x="554" y="44" on="0"/>
        <pt x="489" y="19" on="1"/>
        <pt x="425" y="-5" on="0"/>
        <pt x="335" y="-5" on="1"/>
        <pt x="224" y="-5" on="0"/>
        <pt x="170" y="37" on="1"/>
        <pt x="101" y="91" on="0"/>
        <pt x="101" y="222" on="1"/>
        <pt x="101" y="270" on="0"/>
        <pt x="110" y="328" on="1"/>
        <pt x="175" y="732" on="1"/>
        <pt x="315" y="732" on="1"/>
      </contour>
    </TTGlyph>
    <TTGlyph name="Uogonek" xMin="100" yMin="-189" xMax="725" yMax="732">
      <contour>
        <pt x="309" y="-74" on="1"/>
        <pt x="309" y="-113" on="0"/>
        <pt x="360" y="-109" on="1"/>
        <pt x="348" y="-186" on="1"/>
        <pt x="334" y="-189" on="0"/>
        <pt x="304" y="-189" on="0"/>
        <pt x="258" y="-173" on="0"/>
        <pt x="227" y="-126" on="0"/>
        <pt x="227" y="-74" on="0"/>
        <pt x="270" y="-19" on="0"/>
        <pt x="314" y="1" on="1"/>
        <pt x="369" y="1" on="1"/>
        <pt x="309" y="-39" on="0"/>
      </contour>
      <contour>
        <pt x="249" y="312" on="1"/>
        <pt x="241" y="266" on="0"/>
        <pt x="241" y="188" on="0"/>
        <pt x="253" y="165" on="1"/>
        <pt x="275" y="124" on="0"/>
        <pt x="431" y="124" on="0"/>
        <pt x="501" y="211" on="0"/>
        <pt x="517" y="312" on="1"/>
        <pt x="584" y="732" on="1"/>
        <pt x="725" y="732" on="1"/>
        <pt x="661" y="295" on="1"/>
        <pt x="642" y="175" on="0"/>
        <pt x="598" y="110" on="1"/>
        <pt x="554" y="44" on="0"/>
        <pt x="489" y="19" on="1"/>
        <pt x="425" y="-5" on="0"/>
        <pt x="335" y="-5" on="1"/>
        <pt x="224" y="-5" on="0"/>
        <pt x="170" y="37" on="1"/>
        <pt x="101" y="91" on="0"/>
        <pt x="101" y="222" on="1"/>
        <pt x="101" y="270" on="0"/>
        <pt x="110" y="328" on="1"/>
        <pt x="175" y="732" on="1"/>
        <pt x="315" y="732" on="1"/>
      </contour>
    </TTGlyph>
    <TTGlyph name="Uring" xMin="100" yMin="-5" xMax="725" yMax="1000">
      <contour>
        <pt x="442" y="999" on="0"/>
        <pt x="527" y="999" on="0"/>
        <pt x="578" y="944" on="0"/>
        <pt x="578" y="908" on="1"/>
        <pt x="578" y="859" on="0"/>
        <pt x="511" y="797" on="0"/>
        <pt x="427" y="797" on="0"/>
        <pt x="374" y="852" on="0"/>
        <pt x="374" y="888" on="1"/>
        <pt x="374" y="937" on="0"/>
      </contour>
      <contour>
        <pt x="504" y="934" on="0"/>
        <pt x="489" y="941" on="0"/>
        <pt x="462" y="941" on="0"/>
        <pt x="433" y="914" on="0"/>
        <pt x="433" y="878" on="0"/>
        <pt x="455" y="855" on="0"/>
        <pt x="491" y="855" on="0"/>
        <pt x="517" y="880" on="0"/>
        <pt x="520" y="907" on="0"/>
        <pt x="515" y="923" on="0"/>
      </contour>
      <contour>
        <pt x="249" y="312" on="1"/>
        <pt x="241" y="266" on="0"/>
        <pt x="241" y="188" on="0"/>
        <pt x="253" y="165" on="1"/>
        <pt x="275" y="124" on="0"/>
        <pt x="431" y="124" on="0"/>
        <pt x="501" y="211" on="0"/>
        <pt x="517" y="312" on="1"/>
        <pt x="584" y="732" on="1"/>
        <pt x="725" y="732" on="1"/>
        <pt x="661" y="295" on="1"/>
        <pt x="642" y="175" on="0"/>
        <pt x="598" y="110" on="1"/>
        <pt x="554" y="44" on="0"/>
        <pt x="489" y="19" on="1"/>
        <pt x="425" y="-5" on="0"/>
        <pt x="335" y="-5" on="1"/>
        <pt x="224" y="-5" on="0"/>
        <pt x="170" y="37" on="1"/>
        <pt x="101" y="91" on="0"/>
        <pt x="101" y="222" on="1"/>
        <pt x="101" y="270" on="0"/>
        <pt x="110" y="328" on="1"/>
        <pt x="175" y="732" on="1"/>
        <pt x="315" y="732" on="1"/>
      </contour>
    </TTGlyph>
    <TTGlyph name="Utilde" xMin="100" yMin="-5" xMax="725" yMax="925">
      <contour>
        <pt x="528" y="887" on="1"/>
        <pt x="530" y="887" on="0"/>
        <pt x="553" y="887" on="0"/>
        <pt x="613" y="912" on="0"/>
        <pt x="628" y="925" on="1"/>
        <pt x="643" y="865" on="1"/>
        <pt x="619" y="844" on="0"/>
        <pt x="590" y="821" on="0"/>
        <pt x="540" y="797" on="0"/>
        <pt x="529" y="797" on="1"/>
        <pt x="493" y="797" on="0"/>
        <pt x="430" y="832" on="0"/>
        <pt x="393" y="832" on="0"/>
        <pt x="374" y="826" on="1"/>
        <pt x="351" y="819" on="0"/>
        <pt x="312" y="797" on="1"/>
        <pt x="296" y="852" on="1"/>
        <pt x="371" y="922" on="0"/>
        <pt x="428" y="922" on="1"/>
        <pt x="453" y="921" on="0"/>
        <pt x="512" y="887" on="0"/>
      </contour>
      <contour>
        <pt x="249" y="312" on="1"/>
        <pt x="241" y="266" on="0"/>
        <pt x="241" y="188" on="0"/>
        <pt x="253" y="165" on="1"/>
        <pt x="275" y="124" on="0"/>
        <pt x="431" y="124" on="0"/>
        <pt x="501" y="211" on="0"/>
        <pt x="517" y="312" on="1"/>
        <pt x="584" y="732" on="1"/>
        <pt x="725" y="732" on="1"/>
        <pt x="661" y="295" on="1"/>
        <pt x="642" y="175" on="0"/>
        <pt x="598" y="110" on="1"/>
        <pt x="554" y="44" on="0"/>
        <pt x="489" y="19" on="1"/>
        <pt x="425" y="-5" on="0"/>
        <pt x="335" y="-5" on="1"/>
        <pt x="224" y="-5" on="0"/>
        <pt x="170" y="37" on="1"/>
        <pt x="101" y="91" on="0"/>
        <pt x="101" y="222" on="1"/>
        <pt x="101" y="270" on="0"/>
        <pt x="110" y="328" on="1"/>
        <pt x="175" y="732" on="1"/>
        <pt x="315" y="732" on="1"/>
      </contour>
    </TTGlyph>
    <TTGlyph name="V" xMin="139" yMin="0" xMax="772" yMax="732">
      <contour>
        <pt x="139" y="732" on="1"/>
        <pt x="286" y="732" on="1"/>
        <pt x="360" y="184" on="1"/>
        <pt x="616" y="732" on="1"/>
        <pt x="772" y="732" on="1"/>
        <pt x="414" y="0" on="1"/>
        <pt x="252" y="0" on="1"/>
      </contour>
    </TTGlyph>
    <TTGlyph name="W" xMin="139" yMin="0" xMax="1098" yMax="732">
      <contour>
        <pt x="139" y="732" on="1"/>
        <pt x="285" y="732" on="1"/>
        <pt x="360" y="191" on="1"/>
        <pt x="600" y="732" on="1"/>
        <pt x="750" y="732" on="1"/>
        <pt x="656" y="530" on="1"/>
        <pt x="707" y="188" on="1"/>
        <pt x="949" y="732" on="1"/>
        <pt x="1097" y="732" on="1"/>
        <pt x="762" y="0" on="1"/>
        <pt x="604" y="0" on="1"/>
        <pt x="558" y="301" on="1"/>
        <pt x="418" y="0" on="1"/>
        <pt x="252" y="0" on="1"/>
      </contour>
    </TTGlyph>
    <TTGlyph name="Wacute" xMin="139" yMin="0" xMax="1098" yMax="936">
      <contour>
        <pt x="583" y="797" on="1"/>
        <pt x="696" y="936" on="1"/>
        <pt x="818" y="936" on="1"/>
        <pt x="674" y="797" on="1"/>
      </contour>
      <contour>
        <pt x="139" y="732" on="1"/>
        <pt x="285" y="732" on="1"/>
        <pt x="360" y="191" on="1"/>
        <pt x="600" y="732" on="1"/>
        <pt x="750" y="732" on="1"/>
        <pt x="656" y="530" on="1"/>
        <pt x="707" y="188" on="1"/>
        <pt x="949" y="732" on="1"/>
        <pt x="1097" y="732" on="1"/>
        <pt x="762" y="0" on="1"/>
        <pt x="604" y="0" on="1"/>
        <pt x="558" y="301" on="1"/>
        <pt x="418" y="0" on="1"/>
        <pt x="252" y="0" on="1"/>
      </contour>
    </TTGlyph>
    <TTGlyph name="Wcircumflex" xMin="139" yMin="0" xMax="1098" yMax="933">
      <contour>
        <pt x="451" y="797" on="1"/>
        <pt x="580" y="932" on="1"/>
        <pt x="684" y="932" on="1"/>
        <pt x="760" y="797" on="1"/>
        <pt x="669" y="797" on="1"/>
        <pt x="627" y="862" on="1"/>
        <pt x="554" y="797" on="1"/>
      </contour>
      <contour>
        <pt x="139" y="732" on="1"/>
        <pt x="285" y="732" on="1"/>
        <pt x="360" y="191" on="1"/>
        <pt x="600" y="732" on="1"/>
        <pt x="750" y="732" on="1"/>
        <pt x="656" y="530" on="1"/>
        <pt x="707" y="188" on="1"/>
        <pt x="949" y="732" on="1"/>
        <pt x="1097" y="732" on="1"/>
        <pt x="762" y="0" on="1"/>
        <pt x="604" y="0" on="1"/>
        <pt x="558" y="301" on="1"/>
        <pt x="418" y="0" on="1"/>
        <pt x="252" y="0" on="1"/>
      </contour>
    </TTGlyph>
    <TTGlyph name="Wdieresis" xMin="139" yMin="0" xMax="1098" yMax="915">
      <contour>
        <pt x="501" y="914" on="0"/>
        <pt x="550" y="914" on="0"/>
        <pt x="576" y="884" on="0"/>
        <pt x="576" y="861" on="0"/>
        <pt x="572" y="840" on="0"/>
        <pt x="562" y="827" on="1"/>
        <pt x="541" y="797" on="0"/>
        <pt x="483" y="797" on="0"/>
        <pt x="457" y="828" on="0"/>
        <pt x="457" y="840" on="1"/>
        <pt x="457" y="877" on="0"/>
      </contour>
      <contour>
        <pt x="756" y="914" on="0"/>
        <pt x="805" y="914" on="0"/>
        <pt x="831" y="884" on="0"/>
        <pt x="831" y="873" on="1"/>
        <pt x="831" y="836" on="0"/>
        <pt x="786" y="797" on="0"/>
        <pt x="738" y="797" on="0"/>
        <pt x="712" y="828" on="0"/>
        <pt x="712" y="840" on="1"/>
        <pt x="712" y="877" on="0"/>
      </contour>
      <contour>
        <pt x="139" y="732" on="1"/>
        <pt x="285" y="732" on="1"/>
        <pt x="360" y="191" on="1"/>
        <pt x="600" y="732" on="1"/>
        <pt x="750" y="732" on="1"/>
        <pt x="656" y="530" on="1"/>
        <pt x="707" y="188" on="1"/>
        <pt x="949" y="732" on="1"/>
        <pt x="1097" y="732" on="1"/>
        <pt x="762" y="0" on="1"/>
        <pt x="604" y="0" on="1"/>
        <pt x="558" y="301" on="1"/>
        <pt x="418" y="0" on="1"/>
        <pt x="252" y="0" on="1"/>
      </contour>
    </TTGlyph>
    <TTGlyph name="Wgrave" xMin="139" yMin="0" xMax="1098" yMax="936">
      <contour>
        <pt x="478" y="936" on="1"/>
        <pt x="597" y="936" on="1"/>
        <pt x="674" y="797" on="1"/>
        <pt x="583" y="797" on="1"/>
      </contour>
      <contour>
        <pt x="139" y="732" on="1"/>
        <pt x="285" y="732" on="1"/>
        <pt x="360" y="191" on="1"/>
        <pt x="600" y="732" on="1"/>
        <pt x="750" y="732" on="1"/>
        <pt x="656" y="530" on="1"/>
        <pt x="707" y="188" on="1"/>
        <pt x="949" y="732" on="1"/>
        <pt x="1097" y="732" on="1"/>
        <pt x="762" y="0" on="1"/>
        <pt x="604" y="0" on="1"/>
        <pt x="558" y="301" on="1"/>
        <pt x="418" y="0" on="1"/>
        <pt x="252" y="0" on="1"/>
      </contour>
    </TTGlyph>
    <TTGlyph name="X" xMin="32" yMin="0" xMax="736" yMax="732">
      <contour>
        <pt x="32" y="0" on="1"/>
        <pt x="303" y="374" on="1"/>
        <pt x="145" y="732" on="1"/>
        <pt x="299" y="732" on="1"/>
        <pt x="399" y="484" on="1"/>
        <pt x="578" y="732" on="1"/>
        <pt x="736" y="732" on="1"/>
        <pt x="458" y="348" on="1"/>
        <pt x="612" y="0" on="1"/>
        <pt x="458" y="0" on="1"/>
        <pt x="362" y="238" on="1"/>
        <pt x="191" y="0" on="1"/>
      </contour>
    </TTGlyph>
    <TTGlyph name="X.salt" xMin="15" yMin="0" xMax="758" yMax="732">
      <contour>
        <pt x="247" y="385" on="1"/>
        <pt x="247" y="390" on="0"/>
        <pt x="247" y="422" on="0"/>
        <pt x="233" y="462" on="1"/>
        <pt x="131" y="732" on="1"/>
        <pt x="282" y="732" on="1"/>
        <pt x="371" y="482" on="1"/>
        <pt x="377" y="468" on="0"/>
        <pt x="377" y="408" on="0"/>
        <pt x="374" y="373" on="1"/>
        <pt x="367" y="288" on="0"/>
        <pt x="350" y="266" on="1"/>
        <pt x="176" y="0" on="1"/>
        <pt x="15" y="0" on="1"/>
        <pt x="214" y="310" on="1"/>
        <pt x="243" y="357" on="0"/>
      </contour>
      <contour>
        <pt x="396" y="266" on="1"/>
        <pt x="392" y="275" on="0"/>
        <pt x="392" y="321" on="0"/>
        <pt x="417" y="459" on="0"/>
        <pt x="434" y="482" on="1"/>
        <pt x="602" y="732" on="1"/>
        <pt x="758" y="732" on="1"/>
        <pt x="568" y="452" on="1"/>
        <pt x="528" y="391" on="0"/>
        <pt x="528" y="334" on="0"/>
        <pt x="539" y="300" on="1"/>
        <pt x="642" y="0" on="1"/>
        <pt x="491" y="0" on="1"/>
      </contour>
    </TTGlyph>
    <TTGlyph name="Y" xMin="139" yMin="0" xMax="743" yMax="732">
      <contour>
        <pt x="139" y="732" on="1"/>
        <pt x="290" y="732" on="1"/>
        <pt x="374" y="382" on="1"/>
        <pt x="583" y="732" on="1"/>
        <pt x="743" y="732" on="1"/>
        <pt x="422" y="227" on="1"/>
        <pt x="386" y="0" on="1"/>
        <pt x="246" y="0" on="1"/>
        <pt x="282" y="227" on="1"/>
      </contour>
    </TTGlyph>
    <TTGlyph name="Yacute" xMin="139" yMin="0" xMax="743" yMax="936">
      <contour>
        <pt x="406" y="797" on="1"/>
        <pt x="519" y="936" on="1"/>
        <pt x="641" y="936" on="1"/>
        <pt x="497" y="797" on="1"/>
      </contour>
      <contour>
        <pt x="139" y="732" on="1"/>
        <pt x="290" y="732" on="1"/>
        <pt x="374" y="382" on="1"/>
        <pt x="583" y="732" on="1"/>
        <pt x="743" y="732" on="1"/>
        <pt x="422" y="227" on="1"/>
        <pt x="386" y="0" on="1"/>
        <pt x="246" y="0" on="1"/>
        <pt x="282" y="227" on="1"/>
      </contour>
    </TTGlyph>
    <TTGlyph name="Ycircumflex" xMin="139" yMin="0" xMax="743" yMax="933">
      <contour>
        <pt x="297" y="797" on="1"/>
        <pt x="426" y="932" on="1"/>
        <pt x="530" y="932" on="1"/>
        <pt x="605" y="797" on="1"/>
        <pt x="515" y="797" on="1"/>
        <pt x="472" y="862" on="1"/>
        <pt x="400" y="797" on="1"/>
      </contour>
      <contour>
        <pt x="139" y="732" on="1"/>
        <pt x="290" y="732" on="1"/>
        <pt x="374" y="382" on="1"/>
        <pt x="583" y="732" on="1"/>
        <pt x="743" y="732" on="1"/>
        <pt x="422" y="227" on="1"/>
        <pt x="386" y="0" on="1"/>
        <pt x="246" y="0" on="1"/>
        <pt x="282" y="227" on="1"/>
      </contour>
    </TTGlyph>
    <TTGlyph name="Ydieresis" xMin="119" yMin="0" xMax="724" yMax="913">
      <contour>
        <pt x="299" y="912" on="0"/>
        <pt x="348" y="912" on="0"/>
        <pt x="373" y="882" on="0"/>
        <pt x="373" y="870" on="1"/>
        <pt x="373" y="834" on="0"/>
        <pt x="329" y="795" on="0"/>
        <pt x="280" y="795" on="0"/>
        <pt x="254" y="826" on="0"/>
        <pt x="254" y="837" on="1"/>
        <pt x="254" y="874" on="0"/>
      </contour>
      <contour>
        <pt x="554" y="912" on="0"/>
        <pt x="603" y="912" on="0"/>
        <pt x="628" y="882" on="0"/>
        <pt x="628" y="870" on="1"/>
        <pt x="628" y="834" on="0"/>
        <pt x="584" y="795" on="0"/>
        <pt x="535" y="795" on="0"/>
        <pt x="509" y="826" on="0"/>
        <pt x="509" y="837" on="1"/>
        <pt x="509" y="874" on="0"/>
      </contour>
      <contour>
        <pt x="120" y="732" on="1"/>
        <pt x="271" y="732" on="1"/>
        <pt x="355" y="382" on="1"/>
        <pt x="564" y="732" on="1"/>
        <pt x="724" y="732" on="1"/>
        <pt x="403" y="227" on="1"/>
        <pt x="367" y="0" on="1"/>
        <pt x="227" y="0" on="1"/>
        <pt x="263" y="227" on="1"/>
      </contour>
    </TTGlyph>
    <TTGlyph name="Ygrave" xMin="139" yMin="0" xMax="743" yMax="936">
      <contour>
        <pt x="301" y="936" on="1"/>
        <pt x="420" y="936" on="1"/>
        <pt x="497" y="797" on="1"/>
        <pt x="406" y="797" on="1"/>
      </contour>
      <contour>
        <pt x="139" y="732" on="1"/>
        <pt x="290" y="732" on="1"/>
        <pt x="374" y="382" on="1"/>
        <pt x="583" y="732" on="1"/>
        <pt x="743" y="732" on="1"/>
        <pt x="422" y="227" on="1"/>
        <pt x="386" y="0" on="1"/>
        <pt x="246" y="0" on="1"/>
        <pt x="282" y="227" on="1"/>
      </contour>
    </TTGlyph>
    <TTGlyph name="Z" xMin="26" yMin="0" xMax="647" yMax="732">
      <contour>
        <pt x="27" y="0" on="1"/>
        <pt x="48" y="129" on="1"/>
        <pt x="455" y="603" on="1"/>
        <pt x="122" y="603" on="1"/>
        <pt x="143" y="732" on="1"/>
        <pt x="647" y="732" on="1"/>
        <pt x="626" y="603" on="1"/>
        <pt x="229" y="129" on="1"/>
        <pt x="552" y="129" on="1"/>
        <pt x="531" y="0" on="1"/>
      </contour>
    </TTGlyph>
    <TTGlyph name="Zacute" xMin="73" yMin="0" xMax="694" yMax="934">
      <contour>
        <pt x="406" y="795" on="1"/>
        <pt x="518" y="933" on="1"/>
        <pt x="641" y="933" on="1"/>
        <pt x="497" y="795" on="1"/>
      </contour>
      <contour>
        <pt x="74" y="0" on="1"/>
        <pt x="94" y="129" on="1"/>
        <pt x="502" y="603" on="1"/>
        <pt x="169" y="603" on="1"/>
        <pt x="190" y="732" on="1"/>
        <pt x="694" y="732" on="1"/>
        <pt x="673" y="603" on="1"/>
        <pt x="276" y="129" on="1"/>
        <pt x="598" y="129" on="1"/>
        <pt x="578" y="0" on="1"/>
      </contour>
    </TTGlyph>
    <TTGlyph name="Zcaron" xMin="26" yMin="0" xMax="647" yMax="933">
      <contour>
        <pt x="272" y="932" on="1"/>
        <pt x="363" y="932" on="1"/>
        <pt x="408" y="867" on="1"/>
        <pt x="478" y="932" on="1"/>
        <pt x="581" y="932" on="1"/>
        <pt x="452" y="797" on="1"/>
        <pt x="350" y="797" on="1"/>
      </contour>
      <contour>
        <pt x="27" y="0" on="1"/>
        <pt x="48" y="129" on="1"/>
        <pt x="455" y="603" on="1"/>
        <pt x="122" y="603" on="1"/>
        <pt x="143" y="732" on="1"/>
        <pt x="647" y="732" on="1"/>
        <pt x="626" y="603" on="1"/>
        <pt x="229" y="129" on="1"/>
        <pt x="552" y="129" on="1"/>
        <pt x="531" y="0" on="1"/>
      </contour>
    </TTGlyph>
    <TTGlyph name="Zdotaccent" xMin="26" yMin="0" xMax="647" yMax="921">
      <contour>
        <pt x="389" y="921" on="1"/>
        <pt x="461" y="921" on="1"/>
        <pt x="484" y="921" on="0"/>
        <pt x="480" y="896" on="1"/>
        <pt x="468" y="820" on="1"/>
        <pt x="465" y="797" on="0"/>
        <pt x="442" y="797" on="1"/>
        <pt x="370" y="797" on="1"/>
        <pt x="360" y="797" on="0"/>
        <pt x="348" y="810" on="0"/>
        <pt x="349" y="820" on="1"/>
        <pt x="361" y="896" on="1"/>
        <pt x="365" y="921" on="0"/>
      </contour>
      <contour>
        <pt x="27" y="0" on="1"/>
        <pt x="48" y="129" on="1"/>
        <pt x="455" y="603" on="1"/>
        <pt x="122" y="603" on="1"/>
        <pt x="143" y="732" on="1"/>
        <pt x="647" y="732" on="1"/>
        <pt x="626" y="603" on="1"/>
        <pt x="229" y="129" on="1"/>
        <pt x="552" y="129" on="1"/>
        <pt x="531" y="0" on="1"/>
      </contour>
    </TTGlyph>
    <TTGlyph name="a" xMin="65" yMin="-6" xMax="577" yMax="542">
      <contour>
        <pt x="244" y="531" on="0"/>
        <pt x="293" y="539" on="0"/>
        <pt x="338" y="542" on="0"/>
        <pt x="370" y="542" on="0"/>
        <pt x="426" y="537" on="0"/>
        <pt x="461" y="530" on="1"/>
        <pt x="540" y="514" on="0"/>
        <pt x="576" y="479" on="1"/>
        <pt x="506" y="1" on="1"/>
        <pt x="398" y="1" on="1"/>
        <pt x="377" y="56" on="1"/>
        <pt x="349" y="21" on="0"/>
        <pt x="280" y="3" on="1"/>
        <pt x="247" y="-6" on="0"/>
        <pt x="176" y="-6" on="0"/>
        <pt x="114" y="27" on="0"/>
        <pt x="92" y="63" on="1"/>
        <pt x="66" y="107" on="0"/>
        <pt x="66" y="232" on="0"/>
        <pt x="89" y="360" on="0"/>
        <pt x="132" y="452" on="0"/>
        <pt x="179" y="501" on="0"/>
      </contour>
      <contour>
        <pt x="427" y="419" on="1"/>
        <pt x="392" y="431" on="0"/>
        <pt x="335" y="431" on="0"/>
        <pt x="300" y="424" on="0"/>
        <pt x="274" y="412" on="0"/>
        <pt x="259" y="397" on="1"/>
        <pt x="228" y="368" on="0"/>
        <pt x="213" y="271" on="1"/>
        <pt x="206" y="230" on="0"/>
        <pt x="206" y="173" on="0"/>
        <pt x="211" y="154" on="1"/>
        <pt x="223" y="113" on="0"/>
        <pt x="308" y="113" on="0"/>
        <pt x="363" y="137" on="0"/>
        <pt x="389" y="163" on="1"/>
      </contour>
    </TTGlyph>
    <TTGlyph name="a.salt" xMin="63" yMin="-8" xMax="569" yMax="537">
      <contour>
        <pt x="249" y="-8" on="1"/>
        <pt x="63" y="-8" on="0"/>
        <pt x="63" y="189" on="1"/>
        <pt x="63" y="231" on="0"/>
        <pt x="71" y="283" on="1"/>
        <pt x="92" y="426" on="0"/>
        <pt x="207" y="537" on="0"/>
        <pt x="319" y="537" on="1"/>
        <pt x="475" y="537" on="0"/>
        <pt x="568" y="475" on="1"/>
        <pt x="507" y="20" on="1"/>
        <pt x="486" y="7" on="0"/>
        <pt x="306" y="-8" on="0"/>
      </contour>
      <contour>
        <pt x="246" y="399" on="0"/>
        <pt x="220" y="327" on="0"/>
        <pt x="203" y="217" on="0"/>
        <pt x="203" y="160" on="0"/>
        <pt x="208" y="141" on="1"/>
        <pt x="220" y="100" on="0"/>
        <pt x="266" y="100" on="1"/>
        <pt x="377" y="103" on="1"/>
        <pt x="422" y="413" on="1"/>
        <pt x="367" y="429" on="0"/>
        <pt x="289" y="429" on="0"/>
      </contour>
    </TTGlyph>
    <TTGlyph name="a.smcp" xMin="26" yMin="0" xMax="581" yMax="570">
      <contour>
        <pt x="27" y="0" on="1"/>
        <pt x="317" y="570" on="1"/>
        <pt x="484" y="570" on="1"/>
        <pt x="581" y="0" on="1"/>
        <pt x="444" y="0" on="1"/>
        <pt x="421" y="116" on="1"/>
        <pt x="234" y="116" on="1"/>
        <pt x="176" y="0" on="1"/>
      </contour>
      <contour>
        <pt x="288" y="229" on="1"/>
        <pt x="408" y="229" on="1"/>
        <pt x="377" y="400" on="1"/>
      </contour>
    </TTGlyph>
    <TTGlyph name="a.superior" xMin="98" yMin="361" xMax="469" yMax="732">
      <contour>
        <pt x="226" y="726" on="0"/>
        <pt x="260" y="731" on="0"/>
        <pt x="289" y="732" on="0"/>
        <pt x="320" y="732" on="0"/>
        <pt x="383" y="725" on="0"/>
        <pt x="452" y="703" on="0"/>
        <pt x="469" y="688" on="1"/>
        <pt x="422" y="366" on="1"/>
        <pt x="343" y="366" on="1"/>
        <pt x="324" y="414" on="1"/>
        <pt x="309" y="391" on="0"/>
        <pt x="247" y="361" on="0"/>
        <pt x="206" y="361" on="1"/>
        <pt x="146" y="361" on="0"/>
        <pt x="116" y="414" on="1"/>
        <pt x="99" y="446" on="0"/>
        <pt x="99" y="528" on="0"/>
        <pt x="114" y="611" on="0"/>
        <pt x="146" y="674" on="0"/>
        <pt x="179" y="707" on="0"/>
      </contour>
      <contour>
        <pt x="202" y="505" on="1"/>
        <pt x="202" y="452" on="0"/>
        <pt x="240" y="452" on="1"/>
        <pt x="293" y="452" on="0"/>
        <pt x="332" y="489" on="1"/>
        <pt x="355" y="640" on="1"/>
        <pt x="323" y="649" on="0"/>
        <pt x="285" y="649" on="0"/>
        <pt x="266" y="646" on="0"/>
        <pt x="252" y="642" on="0"/>
        <pt x="235" y="629" on="0"/>
        <pt x="228" y="619" on="1"/>
        <pt x="213" y="597" on="0"/>
        <pt x="202" y="526" on="0"/>
      </contour>
    </TTGlyph>
    <TTGlyph name="aacute" xMin="65" yMin="-6" xMax="577" yMax="741">
      <contour>
        <pt x="312" y="602" on="1"/>
        <pt x="424" y="740" on="1"/>
        <pt x="547" y="740" on="1"/>
        <pt x="403" y="602" on="1"/>
      </contour>
      <contour>
        <pt x="244" y="531" on="0"/>
        <pt x="293" y="539" on="0"/>
        <pt x="339" y="542" on="0"/>
        <pt x="407" y="542" on="0"/>
        <pt x="541" y="513" on="0"/>
        <pt x="576" y="479" on="1"/>
        <pt x="506" y="1" on="1"/>
        <pt x="398" y="1" on="1"/>
        <pt x="377" y="56" on="1"/>
        <pt x="349" y="21" on="0"/>
        <pt x="280" y="3" on="1"/>
        <pt x="247" y="-6" on="0"/>
        <pt x="176" y="-6" on="0"/>
        <pt x="114" y="27" on="0"/>
        <pt x="92" y="63" on="1"/>
        <pt x="66" y="107" on="0"/>
        <pt x="66" y="232" on="0"/>
        <pt x="89" y="360" on="0"/>
        <pt x="132" y="452" on="0"/>
        <pt x="179" y="501" on="0"/>
      </contour>
      <contour>
        <pt x="427" y="419" on="1"/>
        <pt x="392" y="431" on="0"/>
        <pt x="335" y="431" on="0"/>
        <pt x="300" y="424" on="0"/>
        <pt x="274" y="412" on="0"/>
        <pt x="259" y="397" on="1"/>
        <pt x="228" y="368" on="0"/>
        <pt x="213" y="271" on="1"/>
        <pt x="206" y="230" on="0"/>
        <pt x="206" y="173" on="0"/>
        <pt x="211" y="154" on="1"/>
        <pt x="223" y="113" on="0"/>
        <pt x="308" y="113" on="0"/>
        <pt x="363" y="137" on="0"/>
        <pt x="389" y="163" on="1"/>
      </contour>
    </TTGlyph>
    <TTGlyph name="aacute.salt" xMin="63" yMin="-8" xMax="569" yMax="739">
      <contour>
        <pt x="308" y="600" on="1"/>
        <pt x="421" y="738" on="1"/>
        <pt x="543" y="738" on="1"/>
        <pt x="399" y="600" on="1"/>
      </contour>
      <contour>
        <pt x="249" y="-8" on="1"/>
        <pt x="63" y="-8" on="0"/>
        <pt x="63" y="189" on="1"/>
        <pt x="63" y="231" on="0"/>
        <pt x="71" y="283" on="1"/>
        <pt x="92" y="426" on="0"/>
        <pt x="207" y="537" on="0"/>
        <pt x="319" y="537" on="1"/>
        <pt x="475" y="537" on="0"/>
        <pt x="568" y="475" on="1"/>
        <pt x="507" y="20" on="1"/>
        <pt x="486" y="7" on="0"/>
        <pt x="306" y="-8" on="0"/>
      </contour>
      <contour>
        <pt x="246" y="399" on="0"/>
        <pt x="220" y="327" on="0"/>
        <pt x="203" y="217" on="0"/>
        <pt x="203" y="160" on="0"/>
        <pt x="208" y="141" on="1"/>
        <pt x="220" y="100" on="0"/>
        <pt x="266" y="100" on="1"/>
        <pt x="377" y="103" on="1"/>
        <pt x="422" y="413" on="1"/>
        <pt x="367" y="429" on="0"/>
        <pt x="289" y="429" on="0"/>
      </contour>
    </TTGlyph>
    <TTGlyph name="aacute.smcp" xMin="26" yMin="0" xMax="600" yMax="769">
      <contour>
        <pt x="365" y="630" on="1"/>
        <pt x="477" y="768" on="1"/>
        <pt x="600" y="768" on="1"/>
        <pt x="456" y="630" on="1"/>
      </contour>
      <contour>
        <pt x="27" y="0" on="1"/>
        <pt x="317" y="570" on="1"/>
        <pt x="484" y="570" on="1"/>
        <pt x="581" y="0" on="1"/>
        <pt x="444" y="0" on="1"/>
        <pt x="421" y="116" on="1"/>
        <pt x="234" y="116" on="1"/>
        <pt x="176" y="0" on="1"/>
      </contour>
      <contour>
        <pt x="288" y="229" on="1"/>
        <pt x="408" y="229" on="1"/>
        <pt x="377" y="400" on="1"/>
      </contour>
    </TTGlyph>
    <TTGlyph name="abreve" xMin="65" yMin="-6" xMax="577" yMax="716">
      <contour>
        <pt x="288" y="716" on="1"/>
        <pt x="287" y="711" on="0"/>
        <pt x="287" y="686" on="0"/>
        <pt x="311" y="659" on="0"/>
        <pt x="336" y="659" on="1"/>
        <pt x="336" y="659" on="0"/>
        <pt x="337" y="659" on="1"/>
        <pt x="394" y="659" on="0"/>
        <pt x="401" y="716" on="1"/>
        <pt x="459" y="716" on="1"/>
        <pt x="453" y="661" on="0"/>
        <pt x="388" y="603" on="0"/>
        <pt x="287" y="603" on="0"/>
        <pt x="230" y="661" on="0"/>
        <pt x="230" y="703" on="1"/>
        <pt x="230" y="709" on="0"/>
        <pt x="230" y="716" on="1"/>
      </contour>
      <contour>
        <pt x="244" y="531" on="0"/>
        <pt x="293" y="539" on="0"/>
        <pt x="339" y="542" on="0"/>
        <pt x="407" y="542" on="0"/>
        <pt x="541" y="513" on="0"/>
        <pt x="576" y="479" on="1"/>
        <pt x="506" y="1" on="1"/>
        <pt x="398" y="1" on="1"/>
        <pt x="377" y="56" on="1"/>
        <pt x="349" y="21" on="0"/>
        <pt x="280" y="3" on="1"/>
        <pt x="247" y="-6" on="0"/>
        <pt x="176" y="-6" on="0"/>
        <pt x="114" y="27" on="0"/>
        <pt x="92" y="63" on="1"/>
        <pt x="66" y="107" on="0"/>
        <pt x="66" y="232" on="0"/>
        <pt x="89" y="360" on="0"/>
        <pt x="132" y="452" on="0"/>
        <pt x="179" y="501" on="0"/>
      </contour>
      <contour>
        <pt x="427" y="419" on="1"/>
        <pt x="392" y="431" on="0"/>
        <pt x="335" y="431" on="0"/>
        <pt x="300" y="424" on="0"/>
        <pt x="274" y="412" on="0"/>
        <pt x="259" y="397" on="1"/>
        <pt x="228" y="368" on="0"/>
        <pt x="213" y="271" on="1"/>
        <pt x="206" y="230" on="0"/>
        <pt x="206" y="173" on="0"/>
        <pt x="211" y="154" on="1"/>
        <pt x="223" y="113" on="0"/>
        <pt x="308" y="113" on="0"/>
        <pt x="363" y="137" on="0"/>
        <pt x="389" y="163" on="1"/>
      </contour>
    </TTGlyph>
    <TTGlyph name="abreve.salt" xMin="63" yMin="-8" xMax="569" yMax="711">
      <contour>
        <pt x="360" y="654" on="1"/>
        <pt x="418" y="654" on="0"/>
        <pt x="425" y="711" on="1"/>
        <pt x="482" y="711" on="1"/>
        <pt x="474" y="637" on="0"/>
        <pt x="420" y="610" on="1"/>
        <pt x="394" y="598" on="0"/>
        <pt x="310" y="598" on="0"/>
        <pt x="253" y="655" on="0"/>
        <pt x="253" y="698" on="1"/>
        <pt x="253" y="704" on="0"/>
        <pt x="254" y="711" on="1"/>
        <pt x="311" y="711" on="1"/>
        <pt x="307" y="675" on="0"/>
        <pt x="331" y="661" on="1"/>
        <pt x="343" y="654" on="0"/>
      </contour>
      <contour>
        <pt x="249" y="-8" on="1"/>
        <pt x="63" y="-8" on="0"/>
        <pt x="63" y="189" on="1"/>
        <pt x="63" y="231" on="0"/>
        <pt x="71" y="283" on="1"/>
        <pt x="92" y="426" on="0"/>
        <pt x="207" y="537" on="0"/>
        <pt x="319" y="537" on="1"/>
        <pt x="475" y="537" on="0"/>
        <pt x="568" y="475" on="1"/>
        <pt x="507" y="20" on="1"/>
        <pt x="486" y="7" on="0"/>
        <pt x="306" y="-8" on="0"/>
      </contour>
      <contour>
        <pt x="246" y="399" on="0"/>
        <pt x="220" y="327" on="0"/>
        <pt x="203" y="217" on="0"/>
        <pt x="203" y="160" on="0"/>
        <pt x="208" y="141" on="1"/>
        <pt x="220" y="100" on="0"/>
        <pt x="266" y="100" on="1"/>
        <pt x="377" y="103" on="1"/>
        <pt x="422" y="413" on="1"/>
        <pt x="367" y="429" on="0"/>
        <pt x="289" y="429" on="0"/>
      </contour>
    </TTGlyph>
    <TTGlyph name="abreve.smcp" xMin="26" yMin="0" xMax="581" yMax="743">
      <contour>
        <pt x="416" y="686" on="1"/>
        <pt x="474" y="686" on="0"/>
        <pt x="481" y="743" on="1"/>
        <pt x="538" y="743" on="1"/>
        <pt x="532" y="688" on="0"/>
        <pt x="467" y="630" on="0"/>
        <pt x="366" y="630" on="0"/>
        <pt x="309" y="688" on="0"/>
        <pt x="309" y="730" on="1"/>
        <pt x="309" y="736" on="0"/>
        <pt x="310" y="743" on="1"/>
        <pt x="367" y="743" on="1"/>
        <pt x="363" y="707" on="0"/>
        <pt x="387" y="693" on="1"/>
        <pt x="399" y="686" on="0"/>
      </contour>
      <contour>
        <pt x="27" y="0" on="1"/>
        <pt x="317" y="570" on="1"/>
        <pt x="484" y="570" on="1"/>
        <pt x="581" y="0" on="1"/>
        <pt x="444" y="0" on="1"/>
        <pt x="421" y="116" on="1"/>
        <pt x="234" y="116" on="1"/>
        <pt x="176" y="0" on="1"/>
      </contour>
      <contour>
        <pt x="288" y="229" on="1"/>
        <pt x="408" y="229" on="1"/>
        <pt x="377" y="400" on="1"/>
      </contour>
    </TTGlyph>
    <TTGlyph name="acircumflex" xMin="65" yMin="-6" xMax="577" yMax="738">
      <contour>
        <pt x="199" y="602" on="1"/>
        <pt x="328" y="737" on="1"/>
        <pt x="432" y="737" on="1"/>
        <pt x="507" y="602" on="1"/>
        <pt x="417" y="602" on="1"/>
        <pt x="374" y="667" on="1"/>
        <pt x="302" y="602" on="1"/>
      </contour>
      <contour>
        <pt x="244" y="531" on="0"/>
        <pt x="293" y="539" on="0"/>
        <pt x="339" y="542" on="0"/>
        <pt x="407" y="542" on="0"/>
        <pt x="541" y="513" on="0"/>
        <pt x="576" y="479" on="1"/>
        <pt x="506" y="1" on="1"/>
        <pt x="398" y="1" on="1"/>
        <pt x="377" y="56" on="1"/>
        <pt x="349" y="21" on="0"/>
        <pt x="280" y="3" on="1"/>
        <pt x="247" y="-6" on="0"/>
        <pt x="176" y="-6" on="0"/>
        <pt x="114" y="27" on="0"/>
        <pt x="92" y="63" on="1"/>
        <pt x="66" y="107" on="0"/>
        <pt x="66" y="232" on="0"/>
        <pt x="89" y="360" on="0"/>
        <pt x="132" y="452" on="0"/>
        <pt x="179" y="501" on="0"/>
      </contour>
      <contour>
        <pt x="427" y="419" on="1"/>
        <pt x="392" y="431" on="0"/>
        <pt x="335" y="431" on="0"/>
        <pt x="300" y="424" on="0"/>
        <pt x="274" y="412" on="0"/>
        <pt x="259" y="397" on="1"/>
        <pt x="228" y="368" on="0"/>
        <pt x="213" y="271" on="1"/>
        <pt x="206" y="230" on="0"/>
        <pt x="206" y="173" on="0"/>
        <pt x="211" y="154" on="1"/>
        <pt x="223" y="113" on="0"/>
        <pt x="308" y="113" on="0"/>
        <pt x="363" y="137" on="0"/>
        <pt x="389" y="163" on="1"/>
      </contour>
    </TTGlyph>
    <TTGlyph name="acircumflex.salt" xMin="63" yMin="-8" xMax="569" yMax="734">
      <contour>
        <pt x="204" y="598" on="1"/>
        <pt x="333" y="733" on="1"/>
        <pt x="437" y="733" on="1"/>
        <pt x="512" y="598" on="1"/>
        <pt x="422" y="598" on="1"/>
        <pt x="379" y="663" on="1"/>
        <pt x="307" y="598" on="1"/>
      </contour>
      <contour>
        <pt x="249" y="-8" on="1"/>
        <pt x="63" y="-8" on="0"/>
        <pt x="63" y="189" on="1"/>
        <pt x="63" y="231" on="0"/>
        <pt x="71" y="283" on="1"/>
        <pt x="92" y="426" on="0"/>
        <pt x="207" y="537" on="0"/>
        <pt x="319" y="537" on="1"/>
        <pt x="475" y="537" on="0"/>
        <pt x="568" y="475" on="1"/>
        <pt x="507" y="20" on="1"/>
        <pt x="486" y="7" on="0"/>
        <pt x="306" y="-8" on="0"/>
      </contour>
      <contour>
        <pt x="246" y="399" on="0"/>
        <pt x="220" y="327" on="0"/>
        <pt x="203" y="217" on="0"/>
        <pt x="203" y="160" on="0"/>
        <pt x="208" y="141" on="1"/>
        <pt x="220" y="100" on="0"/>
        <pt x="266" y="100" on="1"/>
        <pt x="377" y="103" on="1"/>
        <pt x="422" y="413" on="1"/>
        <pt x="367" y="429" on="0"/>
        <pt x="289" y="429" on="0"/>
      </contour>
    </TTGlyph>
    <TTGlyph name="acircumflex.smcp" xMin="26" yMin="0" xMax="581" yMax="766">
      <contour>
        <pt x="256" y="630" on="1"/>
        <pt x="385" y="766" on="1"/>
        <pt x="489" y="766" on="1"/>
        <pt x="565" y="630" on="1"/>
        <pt x="474" y="630" on="1"/>
        <pt x="432" y="695" on="1"/>
        <pt x="359" y="630" on="1"/>
      </contour>
      <contour>
        <pt x="27" y="0" on="1"/>
        <pt x="317" y="570" on="1"/>
        <pt x="484" y="570" on="1"/>
        <pt x="581" y="0" on="1"/>
        <pt x="444" y="0" on="1"/>
        <pt x="421" y="116" on="1"/>
        <pt x="234" y="116" on="1"/>
        <pt x="176" y="0" on="1"/>
      </contour>
      <contour>
        <pt x="288" y="229" on="1"/>
        <pt x="408" y="229" on="1"/>
        <pt x="377" y="400" on="1"/>
      </contour>
    </TTGlyph>
</ttFont>
